<?xml version="1.0" standalone="no"?>
<!DOCTYPE svg PUBLIC "-//W3C//DTD SVG 1.1//EN" "http://www.w3.org/Graphics/SVG/1.1/DTD/svg11.dtd" >
<svg xmlns="http://www.w3.org/2000/svg">
<metadata>
This is a custom SVG webfont generated by Font Squirrel.
Copyright   : Copyright c 2009 by Nate Piekos Blambotcom All rights reserved
Designer    : Nate Piekos
Foundry     : Nate Piekos Blambotcom
</metadata>
<defs>
<font id="GiantSizedSpectacularStdBBRg" horiz-adv-x="712" >
<font-face units-per-em="2048" ascent="1536" descent="-512" />
<missing-glyph horiz-adv-x="512" />
<glyph unicode=" "  horiz-adv-x="512" />
<glyph unicode="&#x09;" horiz-adv-x="512" />
<glyph unicode="&#xa0;" horiz-adv-x="512" />
<glyph unicode="!" horiz-adv-x="327" d="M74 83q2 28 12 48q16 29 41 39q29 10 59 0q31 -12 43 -43q18 -49 -4 -88q-31 -43 -71 -41q-51 0 -66 33l-6 8q-10 16 -8 44zM77 1129.5q1 27.5 21 46.5q27 25 69 15.5t58 -44.5q8 -18 8 -57q0 -37 -4 -78q0 -4 -1 -30t-1 -44q0 -252 9 -342q2 -27 2 -80t2 -80 q4 -98 -27 -139q-20 -27 -46 -32t-50 20q-37 45 -27 121q8 57 8 202q0 82 -3 226.5t-3 175.5v6q0 16 -8 51t-7 62.5z" />
<glyph unicode="&#x22;" horiz-adv-x="616" d="M84 766q0 47 7 133l9 111q0 10 -1 39.5t0 49t8.5 42t23.5 33.5q16 16 78.5 8t58.5 -60v-69q-8 -55 -8 -146v-123q0 -53 -2 -84q-2 -47 -22.5 -76.5t-65.5 -25.5q-70 8 -82 96q-4 49 -4 72zM350 659v70q10 70 10 150q0 23 -1 67.5t-1 69.5q0 43 2 65q2 47 24 77t67 26 q72 -8 79 -99q4 -49 5 -75q0 -31 -17 -238q0 -10 1 -34.5t1 -39.5q0 -70 -33 -90q-12 -8 -44.5 -11t-63.5 12t-29 50z" />
<glyph unicode="#" horiz-adv-x="800" d="M55 539q-2 66 86 88q31 18 35 47v20q-4 20 -24 29q-45 4 -62 22q-25 25 -24 76q0 59 55 66q41 20 49 55q0 6 -4 44t-4 61q0 78 43 106q29 20 61.5 13t44.5 -33q10 -23 11 -58q0 -18 -5 -63q-2 -20 -2 -58q12 -43 68 -43q20 0 45 7q41 14 51 61q-6 61 -6 68q0 74 43 106 q29 20 61.5 13t45 -33.5t12.5 -57.5q0 -2 -6 -63v-13q8 -41 41 -59q86 -8 88 -72q2 -66 -80 -90q-23 -18 -33 -51q2 -10 2 -31q10 -20 35 -32q27 -4 45 -21q20 -25 21 -74q0 -68 -62 -69h-4q-29 -12 -29 -49q2 -16 7.5 -53.5t8.5 -64t1 -50.5q-4 -33 -29 -55.5t-63 -18.5 q-63 8 -76 78q-4 20 -4 61v78v18q-16 37 -49 43l-68 -6q-29 -10 -39 -51q18 -106 14 -147q-4 -33 -27.5 -55.5t-64.5 -18.5q-63 8 -76 78q-2 10 -2 127q-12 35 -32 49q-99 4 -99 76zM347 708.5q-15 -22.5 7 -51.5q31 -31 82 -12q51 14 49 57q-2 23 -20 33l-8 8q-23 12 -59 0 t-51 -34.5z" />
<glyph unicode="$" horiz-adv-x="718" d="M68 252q0 39 16 88q18 47 60 81t87 19q49 -14 50 -51q0 -20 -31 -88q-14 -33 -14 -61q0 -94 73 -125q57 -27 116.5 12t78.5 98q12 35 -3.5 72t-57.5 73t-77.5 62.5t-92 62t-76.5 50.5q-59 41 -92 114.5t-33 155.5q0 102 49 176q41 63 125 113q39 35 59 94q10 66 39 96.5 t61.5 19.5t45.5 -52q4 -12 8 -41q14 -35 59 -58q41 -8 82 -30q70 -43 70 -150q0 -74 -33 -146.5t-78 -99.5l-20 -14q-37 -33 -95.5 -1t-35.5 75q8 16 46 53t35 80q-2 53 -69 53q-39 0 -72 -18q-37 -20 -64.5 -60.5t-27.5 -77.5q-2 -51 27.5 -97t56.5 -67.5t95.5 -64.5 t82.5 -53q74 -51 116 -127t42 -156q0 -51 -19 -100q-35 -90 -116 -142q-33 -31 -43 -73v-23q-4 -51 -29 -87t-63 -27q-63 10 -76 120q-12 33 -58 58l-18 6q-84 39 -135 107.5t-51 150.5z" />
<glyph unicode="%" horiz-adv-x="1015" d="M41 793q0 141 70 239q63 88 149 117q31 10 70 10q12 0 94 -10l8 -4q10 -2 22.5 -14.5t28 -31t21.5 -24.5q33 -27 59 -67q27 -10 58 34q53 168 122 195q35 12 63 -9.5t25 -58.5q-2 -33 -57 -147q-43 -98 -74 -182q-8 -61 54 -95q4 0 12 -2t12 -2l6 -4q10 -2 23.5 -14 t29 -30.5t21.5 -24.5q119 -104 119 -273q0 -160 -103 -284q-43 -51 -130 -81t-148 -10q-49 16 -90 56q-66 31 -94 -6q-23 -68 -41 -107q-20 -39 -52 -54t-69 3q-57 35 -31 123q10 33 35 92t33 80q14 37 59 143q4 53 -39 70q-39 0 -63 8q-80 29 -131.5 101.5t-63.5 160.5 q-8 70 -8 103zM201 766q0 -53 14 -90q20 -51 60 -77t87 -3q51 20 70 86q6 20 14 61q2 8 9 56v2q10 66 -15 117q-29 51 -61 65q-43 20 -85 -7.5t-65 -74.5q-28 -61 -28 -135zM553 356q0 -51 14 -88q20 -49 61.5 -75.5t86.5 -4.5q51 25 71 88q6 18 15 60q2 8 4 28.5t4 28.5v2 q10 63 -16 115q-25 51 -60 68q-43 20 -85 -7.5t-64 -74.5q-31 -58 -31 -140z" />
<glyph unicode="&#x26;" horiz-adv-x="935" d="M35 729q0 102 51 198.5t133 159.5q115 88 236 89q82 0 141 -48l29 -30q80 -150 67 -307q0 -2 -2 -20.5t-2 -23t-3 -20.5t-5 -22.5t-5 -19.5t-8 -20.5t-12.5 -16.5t-15.5 -15t-18 -10q-57 -25 -80 19t-13 101q4 41 4 66q0 90 -35.5 141t-119.5 29q-72 -20 -120 -78.5 t-48 -128.5q0 -35 12 -67q23 -59 50.5 -89t76.5 -47q37 -14 59.5 -25.5t44 -39t13.5 -62.5q-8 -41 -44 -77.5t-67.5 -59t-52 -56.5t1.5 -69q16 -29 56 -37t85 7q29 16 39 24q51 39 68 74q27 55 14 110q-4 16 -22.5 45t-22.5 43q-16 61 45.5 89t112.5 14q68 -23 98 -8 q82 37 111 2l8 -27q-2 -8 -2 -41q-4 -55 -47 -84q-16 -10 -31.5 -11t-38 2t-35.5 3q-49 -2 -36 -76q10 -43 -5 -106q-2 -6 -5 -19.5t-7 -21.5q0 -12 -12 -31q-23 -39 -33 -49t-49 -35q-100 -66 -221 -65q-86 0 -162 36q-125 63 -125 189q0 94 78 160q43 37 43 67 q0 33 -51 64q-94 57 -113 153q-8 33 -8 78z" />
<glyph unicode="'" horiz-adv-x="360" d="M84 766q0 47 7 133l9 111q0 10 -1 39.5t0 49t8.5 42t23.5 33.5q16 16 78.5 8t58.5 -60v-69q-8 -55 -8 -146v-123q0 -53 -2 -84q-2 -47 -22.5 -76.5t-65.5 -25.5q-70 8 -82 96q-4 49 -4 72z" />
<glyph unicode="(" horiz-adv-x="600" d="M51 635q4 248 121 444q61 106 150 146q78 39 131 39q39 0 55 -27l6 -20q6 -33 -8 -62q-12 -27 -65.5 -60.5t-67.5 -50.5q-68 -74 -88 -163q-43 -154 -43 -312q0 -53 2 -80q16 -174 141 -364q10 -16 37 -44t44 -52.5t19 -51.5q6 -53 -41 -66t-88 3q-57 12 -105 65.5 t-71.5 99.5t-52.5 118q-80 200 -76 438z" />
<glyph unicode=")" horiz-adv-x="591" d="M80 -47q-6 35 10 63q12 27 66.5 61t66.5 48q61 68 88 164q43 160 43 303q0 27 -4 88q-12 168 -141 364q-10 16 -37 44t-43 53.5t-20 52.5q-6 51 42 65.5t87 -2.5q57 -14 106 -67t71.5 -98t51.5 -119q80 -201 76 -436q-4 -250 -121 -447q-57 -102 -148 -145 q-92 -37 -131 -37t-55 26z" />
<glyph unicode="*" horiz-adv-x="759" d="M80.5 985q-17.5 27 3.5 68q18 41 53 41q25 0 62 -23q10 -6 29.5 -23.5t37 -27.5t35.5 -6q10 14 13 81.5t51 78.5q55 10 75.5 -23t10.5 -82q-6 -51 63 2q8 8 10 8q49 35 101 15q29 -10 48 -35t9 -53q-4 -14 -16.5 -25.5t-32 -24t-27.5 -18.5q-23 -23 -34 -38t-10 -36.5 t26 -40.5q4 -2 50 -26.5t60 -46.5q14 -25 -5 -62t-48 -45q-8 -8 -23.5 -3t-19.5 4t-16.5 9.5t-15.5 13.5t-14 15t-15 16q-33 33 -51.5 29t-18.5 -57q0 -10 1 -28.5t1 -29t-2 -25t-11 -25.5t-24 -19q-25 -14 -64.5 -4t-52.5 41q-8 20 1.5 67t1.5 72q-4 12 -9.5 17t-12.5 4 t-13 -4t-13.5 -11t-13.5 -14t-13 -16.5t-9 -12.5q-57 -66 -117 -12q-61 51 -8 108q8 8 31.5 22.5t40 30t16.5 31.5q4 31 -21.5 52.5t-53.5 32.5t-45.5 38z" />
<glyph unicode="+" horiz-adv-x="768" d="M94 541q0 72 86 90q43 8 60 10q51 18 65 72v41q0 45 20.5 75.5t65.5 28.5q74 -6 84 -94q0 -8 2 -25.5t2 -25.5q14 -45 68 -49q90 12 115 -21q16 -23 16 -72q0 -68 -51 -69l-70 -8h-14q-59 -10 -70 -58q0 -10 2 -32.5t2 -34.5q0 -63 -31 -84q-16 -12 -59 -13 q-35 0 -58.5 13.5t-21.5 46.5l-2 69q2 4 2 15q-10 47 -51 51q-8 -2 -25.5 -3t-25.5 -1q-111 -4 -111 78z" />
<glyph unicode="," horiz-adv-x="423" d="M68 -47q10 45 23 81t34.5 81t34.5 78q2 2 15 47t27.5 68.5t39.5 29.5q29 6 81 -20.5t31 -71.5l-22 -68q-33 -68 -58.5 -148.5t-44.5 -125.5q-39 -102 -116 -68q-63 31 -45 117z" />
<glyph unicode="-" d="M66 510q0 61 49 68l69 10q76 2 189.5 20.5t161.5 22.5q111 12 112 -72q6 -76 -82 -94q-45 -12 -95 -18.5t-120.5 -11.5t-97.5 -7q-8 0 -48 -7t-61 -7q-41 0 -59 20q-18 19 -18 76z" />
<glyph unicode="." horiz-adv-x="335" d="M96 76.5q2 27.5 13 48.5q16 31 41 39q29 10 59 0q31 -12 43 -43q18 -49 -4 -88q-31 -43 -72 -41q-53 0 -67 33l-5 8q-10 16 -8 43.5z" />
<glyph unicode="/" horiz-adv-x="679" d="M53 35q8 35 35 94t33 78q14 39 61 151.5t62 153.5q61 164 186 463q4 8 29.5 87t52.5 120t66 55q35 12 62.5 -9.5t23.5 -58.5q0 -18 -7.5 -39.5t-12.5 -34t-18.5 -40t-17.5 -33.5q-35 -76 -102.5 -263.5t-87.5 -236.5l-4 -16q-4 -10 -57.5 -133t-71.5 -170 q-8 -25 -34 -111t-46 -129q-20 -39 -52 -54t-69 3q-58 35 -31 123z" />
<glyph unicode="0" horiz-adv-x="716" d="M35 547q-6 119 14 225q8 37 26.5 103.5t22.5 80.5q20 80 92 151t152 75q139 8 240 -133q49 -68 75 -187q14 -63 17 -86l4 -31q4 -29 4 -45v-26q-4 -242 -23 -305q-6 -20 -16 -68.5t-18 -75.5q-6 -20 -17.5 -40.5t-27 -44t-23.5 -38.5q-37 -63 -99.5 -90.5t-135.5 -17.5 q-125 16 -209 166q-66 117 -78 387zM193 575q0 -63 10 -141q25 -154 84 -225q25 -31 61 -31q35 0 69 30t50 71q37 98 45 180q4 53 4 80q0 14 -2 38.5t-2 38.5l-2 29q0 170 -49 266q-37 74 -74 86q-49 14 -94 -43q-16 -20 -28.5 -39.5t-20.5 -49t-11.5 -41t-10.5 -52.5 t-9 -47q-20 -127 -20 -150z" />
<glyph unicode="1" horiz-adv-x="391" d="M22.5 934q12.5 39 47.5 61q76 51 114 107q61 82 125 33q33 -25 33 -86q0 -10 -2 -32t-2 -30q-8 -131 -8 -199q-2 -45 6 -133l-2 -73q0 -203 -8 -344q-2 -29 3 -78t5 -74q-2 -39 -20.5 -63.5t-53.5 -22.5q-94 4 -94 195q0 43 4 88q4 70 6 197.5t4 168.5q6 98 6 107 q0 39 -8 65q-12 35 -37.5 36t-50 -10t-51.5 13q-29 35 -16.5 74z" />
<glyph unicode="2" horiz-adv-x="624" d="M37 111q0 53 39 92q137 141 221 297q6 12 29.5 55t35 64.5t26.5 57.5t22.5 66.5t7.5 61.5q0 37 -17 80q-20 51 -66 75.5t-91 0.5q-41 -20 -41 -80q0 -23 8 -68t8 -49q12 -76 -76 -127q-41 -23 -61.5 -2.5t-20.5 65.5l-2 15q-20 47 -20 155q0 57 10 88q35 98 123 148 q66 37 141 37q150 0 226 -117q47 -70 47 -168q0 -106 -68 -280q-55 -137 -98 -199q-16 -23 -43 -54.5t-47.5 -60t-22.5 -47t15.5 -27t39 -10.5t58.5 -2q147 0 168 -20q31 -37 3 -91.5t-71 -64.5q-49 -6 -78.5 -4t-85 9t-77.5 9q-18 2 -62.5 -4t-64.5 -6q-53 0 -80 25 q-35 33 -35 80z" />
<glyph unicode="3" horiz-adv-x="608" d="M39 946l2 21q10 66 78.5 121t140.5 69q31 6 59 6q111 0 179 -73q72 -72 71 -201q0 -47 -12 -84q-4 -12 -9 -29.5t-8 -29t-10.5 -25.5t-17.5 -27q-53 -61 -37 -94q37 -78 45 -88q45 -57 41 -145q0 -109 -22 -172q-29 -96 -115 -162q-61 -45 -133 -45q-76 0 -131 47 q-123 102 -117 229q4 49 45 64q51 18 80 -11q12 -12 45 -71.5t70 -71.5q23 -6 48 7.5t36 35.5q14 37 14 105q4 145 -88 194q-10 6 -44 7t-42 18q-14 25 -14 69.5t18 61.5q8 6 77.5 37.5t86.5 81.5q16 45 16 86q0 90 -90 104q-74 12 -94 -43q-4 -12 -9 -44t-12 -46 q-16 -35 -62 -50.5t-67 21.5q-36 86 -18 127z" />
<glyph unicode="4" horiz-adv-x="645" d="M14 426q0 35 33 123q41 104 90 223q12 31 55.5 117t55.5 123q2 4 9 25.5t10 28.5l10.5 24.5t14.5 24.5l17 18q10 10 21.5 13t25.5 3q61 -2 62 -72q0 -35 -16.5 -86t-33 -90t-41 -88t-26.5 -55q-8 -16 -28.5 -56t-35 -73t-18.5 -60q-6 -37 19.5 -56t64.5 -19t68 18 q35 25 37 111t10 174t55 116q39 25 68.5 -12t31.5 -90q2 -20 -16 -209q0 -10 -2 -26.5t-2 -22.5t3 -17.5t11 -23.5l26 -26q22 -22 28 -46q4 -45 -0.5 -54t-27 -27.5t-34.5 -41.5q-10 -14 -12 -30q-2 -20 -2 -113q0 -18 2 -44t2 -36q0 -45 -39 -82q-31 -31 -61.5 -30.5 t-50 25t-21.5 67.5q-2 29 9 88t-1 84q-25 86 -121 86q-23 0 -67.5 -5t-65.5 -5q-66 0 -94 36q-23 31 -23 68z" />
<glyph unicode="5" horiz-adv-x="655" d="M14 156q0 31 22.5 59.5t51.5 28.5q39 0 82 -51q35 -41 84 -41q31 0 72 20q162 86 139 313q-8 68 -49 114t-103 46q-47 0 -90 -24q-12 -8 -32.5 -22.5t-29.5 -21t-26.5 -3t-36.5 21.5q-37 35 -37 90q0 27 13 92q14 80 14 180q2 12 -2 47t-4 52q0 51 22 69q23 16 62 17 q23 0 63.5 -6.5t51.5 -6.5q35 -2 99 3.5t91 5.5l6 -2q18 0 25 -4q43 -8 43 -64q0 -33 -17 -59q-20 -29 -62 -34t-77 1q-12 0 -45 7t-55.5 5t-38.5 -18q-20 -18 -21 -82q0 -49 11 -74q8 -14 52 -8t56 4q55 -4 137 -45q49 -23 64.5 -44.5t34.5 -74.5q29 -72 30 -82 q2 -16 3 -47t4 -47q10 -92 -14.5 -190.5t-82.5 -165.5q-74 -88 -147 -115q-41 -16 -88 -16q-23 0 -88 8q-57 8 -122 58.5t-65 105.5z" />
<glyph unicode="6" horiz-adv-x="714" d="M27 344q0 121 65 283q109 264 207 434q20 35 55 63.5t70 28.5q33 0 55 -31q14 -18 14.5 -40.5t-10 -47t-22.5 -44t-28.5 -43t-22.5 -36.5l-27 -43q-4 -8 -14.5 -27.5l-17.5 -32.5t-13 -31.5t-5 -33t9 -26.5q10 -14 29.5 -15.5t40 4t43.5 -0.5q59 -12 120 -70 q70 -61 103 -184q12 -49 12 -107q0 -100 -39 -188t-114 -127q-80 -43 -164 -43q-164 0 -277 143q-69 90 -69 215zM211 309q0 -57 29.5 -100t95.5 -49q88 -8 140 45t52 123q0 143 -86 190q-20 14 -32 14l-19 3q-23 8 -53.5 -5.5t-46.5 -29.5q-41 -41 -70 -123 q-10 -35 -10 -68z" />
<glyph unicode="7" horiz-adv-x="591" d="M25 1008q2 51 35.5 83.5t80.5 32.5q14 0 46 -7t51 -5q20 2 59 3t59 1q12 0 59.5 9.5t71.5 9.5q45 0 64 -25q20 -27 20 -68q0 -49 -32 -133q-14 -47 -34 -133t-28 -117q-33 -119 -43 -170q-14 -74 -35 -153l-2 -19q-10 -100 -41 -225q-14 -80 -41 -94q-20 -12 -55 0 t-51 31q-31 33 -31 82q0 41 25 114q47 162 59 221q6 33 60 230q2 4 13 43t14 54t9.5 55t-4.5 44q-18 51 -92 52q-23 0 -73 -6.5t-72 -6.5q-94 1 -92 97z" />
<glyph unicode="8" horiz-adv-x="745" d="M16 281q12 106 56 172q8 12 43 57t45 72q20 57 -25 136t-49 97q-20 78 29 158t125 119q55 29 129 28q104 0 190 -51q72 -41 92 -127q12 -43 -7 -117.5t-42 -101.5l-8 -8q-6 -8 -20.5 -21.5t-19.5 -21.5t-5 -19q-4 -47 47 -108q33 -37 74 -105q33 -51 49 -127q6 -35 6 -69 q0 -145 -117 -230q-84 -59 -198 -59q-92 0 -186.5 37t-155 116t-52.5 173zM199 307q0 -94 61 -170q37 -43 113 -43q33 0 63 10q109 31 121 129q10 74 -15.5 140.5t-86.5 97.5q-53 27 -86 18q-55 -6 -64 -18l-10 -4q-96 -54 -96 -160zM259 842q-5 -39 11 -68q33 -51 99 -51 q61 0 94 45q41 59 22 121q-6 25 -30.5 48.5t-48.5 25.5h-7q-27 10 -71 -13q-27 -12 -47 -41q-17 -28 -22 -67z" />
<glyph unicode="9" horiz-adv-x="708" d="M25 795q0 100 38.5 189t114.5 128q82 41 162 41q166 0 278 -141q70 -90 70 -215q0 -121 -65 -283q-106 -264 -207 -434q-20 -35 -56 -64.5t-69 -29.5q-31 0 -55 32q-14 18 -14.5 41t10 46.5t22.5 43t28.5 44t22.5 36.5l27 43q4 6 15 26.5t17.5 34t12.5 31t5 33t-9 25.5 q-10 14 -29.5 15t-40 -4t-43.5 1q-55 14 -121 70q-70 66 -102 186q-12 50 -12 105zM186 813q0 -145 86 -192q25 -16 33 -13l19 -2q23 -8 53.5 5.5t46.5 29.5q39 37 70 123q10 31 10 65q0 59 -30 102.5t-95 49.5q-88 8 -140.5 -45t-52.5 -123z" />
<glyph unicode=":" horiz-adv-x="344" d="M96 355.5q2 27.5 13 47.5q16 31 41 39q29 10 59 0q31 -12 43 -43q18 -49 -4 -88q-31 -43 -72 -41q-53 0 -67 33l-5 8q-10 17 -8 44.5zM98 76.5q2 27.5 13 48.5q16 31 41 39q29 10 59 0q31 -12 43 -43q18 -49 -4 -88q-31 -43 -72 -41q-53 0 -67 33l-5 8q-10 16 -8 43.5z " />
<glyph unicode=";" horiz-adv-x="409" d="M68 -47q10 45 23 81t34.5 81t34.5 78q2 2 15 47t27.5 68.5t39.5 29.5q29 6 81 -20.5t31 -71.5l-22 -68q-33 -68 -58.5 -148.5t-44.5 -125.5q-39 -102 -116 -68q-63 31 -45 117zM158 566.5q2 27.5 12 47.5q16 31 41 39q29 10 59 0q31 -12 43 -43q18 -49 -4 -88 q-31 -43 -71 -41q-53 0 -68 33l-4 8q-10 17 -8 44.5z" />
<glyph unicode="&#x3c;" horiz-adv-x="704" d="M49 532q0 37 60 89q47 43 122 165q6 10 54.5 79t72.5 108q8 12 37 68.5t49 78.5q33 35 83.5 53.5t82.5 -6.5q27 -33 13.5 -80t-48.5 -81q-23 -23 -57.5 -72t-50.5 -70l-23 -35q-16 -29 -67 -88q-4 -6 -21 -26l-24 -31q-8 -10 -19.5 -28.5t-17.5 -35t-8 -32.5 q-4 -33 5 -60.5t21.5 -44t38.5 -45.5q16 -20 48 -68t53 -71q66 -66 135 -152q33 -43 33 -77q0 -39 -39 -66q-74 -51 -140 43q-23 33 -241 318q-18 25 -64.5 59.5t-62.5 54.5q-25 30 -25 53z" />
<glyph unicode="=" horiz-adv-x="751" d="M84 371q-2 74 86 92q47 10 95 14t122 6t96 4q6 0 43 5.5t58 5.5q49 0 67 -25q16 -23 17 -70q0 -70 -54 -71l-69 -8q-78 2 -192.5 -13.5t-157.5 -17.5q-111 -4 -111 78zM94 653q0 63 49 66l70 10q76 2 189.5 20.5t160.5 22.5q111 12 113 -72q6 -76 -84 -94 q-68 -18 -311 -37q-8 0 -48 -7t-61 -7q-41 0 -59 20q-19 23 -19 78z" />
<glyph unicode="&#x3e;" horiz-adv-x="735" d="M105.5 79q13.5 46 46.5 83q23 23 57.5 72t52.5 69l23 35q8 10 67 88q2 4 14.5 18.5t17.5 20.5t15.5 20.5t15.5 22.5t11 21.5t9 24.5t5 24q4 33 -5 61.5t-19 41.5t-39 46q-18 20 -50 69.5t-53 69.5q-94 102 -135 154q-33 39 -33 74q0 39 41 67q70 53 138 -43 q45 -63 132 -173.5t111 -143.5q18 -25 64.5 -59.5t62.5 -55.5q18 -20 22.5 -39.5t-4.5 -38t-21.5 -32t-33.5 -31.5q-31 -27 -122 -164q-20 -33 -62.5 -94.5t-62.5 -91.5q-6 -10 -36 -67.5t-52 -82.5q-33 -35 -82 -52.5t-84 5.5q-25 35 -11.5 81z" />
<glyph unicode="?" horiz-adv-x="671" d="M70 924q0 147 82 206q96 70 213 70q90 0 159 -45q14 -10 24.5 -20.5t20 -29t12.5 -25.5t11 -32.5t10 -29.5q16 -61 16 -111q0 -39 -6 -78q-23 -199 -194 -268q-33 -14 -44.5 -19t-29.5 -21.5t-28.5 -39t-10.5 -73.5q4 -51 -4 -70q-14 -33 -49 -38t-62 19q-31 31 -30 138 q0 170 143 221q76 27 112 73t44 126q8 86 -44.5 138t-123.5 15q-66 -33 -82 -90q-4 -14 2 -83t-12 -81q-25 -33 -68 -33q-49 0 -59 58v8q0 18 -1 56.5t-1 58.5zM191.5 39q-15.5 43 1.5 76q14 33 47.5 52t64.5 -3l8 -4l6 -8q6 -6 12.5 -15.5t8.5 -13.5q12 -35 4 -60 q-8 -31 -36.5 -51t-59.5 -18q-41 2 -56.5 45z" />
<glyph unicode="@" horiz-adv-x="1431" d="M53 606q0 172 78 299q49 84 147.5 142.5t208.5 85.5q129 29 252 28q350 0 492 -190q147 -195 147 -441q0 -86 -22 -176q-63 -242 -295 -325q-119 -45 -203 -27q-68 18 -78 145q-23 55 -88 52q-96 -31 -155 -11q-76 29 -113 101.5t-33 161.5q10 215 125 342q82 88 172 116 q31 10 70 11q12 0 94 -11l6 -4q12 -2 35 -33q31 -31 92 -61q10 0 14 -2q47 -10 48 -70q0 -43 -23 -96q-90 -201 -90 -354q0 -72 29 -103q49 -53 139 42.5t115 207.5q8 39 8 90q0 190 -105 318q-133 156 -452 155q-260 4 -377 -143q-72 -92 -72 -262q0 -63 14 -131 q29 -129 154 -273q8 -10 44 -39.5t46 -50.5q18 -33 -2 -86q-14 -33 -31 -20l-16 -4q-10 6 -48 19.5t-56 25.5q-39 29 -111 123q-139 182 -156 374q-4 49 -4 74zM555 436q10 -51 46 -76.5t87 -3.5q51 20 86 86q10 20 27 62q2 6 16 55l2 2q23 66 6 117q-16 49 -49 65 q-39 20 -86 -7t-78 -72q-80 -117 -57 -228z" />
<glyph unicode="A" horiz-adv-x="671" d="M18 104q0 31 6.5 66t19.5 81t15 54q8 43 43 210t56 257q4 25 17 100.5t24 116.5q25 131 100 158q25 8 46.5 8t36.5 -5t28.5 -18.5t22.5 -26.5t16.5 -34.5t11.5 -38t8 -42t5 -40t4 -38t3 -31.5q4 -45 20.5 -128t20.5 -118q10 -59 20.5 -108.5t14.5 -67.5l23 -86 q2 -12 16 -64q6 -27 24.5 -85t24.5 -89q1 -7 1 -14q0 -38 -26 -76q-28 -40 -71 -40q-6 0 -12 1q-27 4 -42.5 20.5t-20.5 29t-10 42t-7 37.5q-20 75 -112 75q-11 0 -23 -1q-59 -6 -86 -29.5t-33 -75.5q-8 -55 -31 -90q-17 -26 -48 -25q-11 0 -24 3q-82 18 -82 112zM266 483 q0 -57 17 -69q6 -5 27 -5q16 0 42 3q31 4 39 37q1 7 1 15q0 14 -2 33q-3 32 -3 42l-2 18q-6 51 -8 59.5t-6 23.5t-6 24q-10 55 -33 67q-7 4 -13 4q-31 0 -43 -108q-2 -8 -4 -41q-2 -16 -4 -51.5t-2 -51.5z" />
<glyph unicode="B" horiz-adv-x="688" d="M0 1053q-2 9 -2 17q0 40 40 69q48 35 99 35q78 -4 121 -15q109 -20 131 -31q96 -47 162.5 -127.5t66.5 -173.5q0 -49 -20 -98q-14 -37 -23 -49q-4 -4 -32 -45q-6 -6 -16.5 -17.5t-13.5 -16.5t-4 -14t7 -22q8 -14 39 -48t39 -48q43 -68 55 -107q12 -35 13 -73 q0 -61 -35 -148q-41 -96 -164 -141q-82 -29 -158 -29q-35 0 -76 6q-61 8 -94 33q-29 25 -37 90q-4 51 -5 144.5t-3 122.5q-2 27 -2 79v82q0 25 -4 70q0 6 3 31.5t-1 29.5l-2 35q0 10 2 40t0 42q0 41 -4 119q0 78 -21 94l-18 12q-12 8 -18.5 13.5t-14.5 16t-10 22.5zM225 850 l2 -19q2 -10 2 -34.5t1 -46t6.5 -43t17.5 -32.5t33 -9q47 4 92 36.5t59 75.5q9 28 10 53q0 68 -69 119q-41 33 -90 33q-51 0 -62 -47q-5 -16 -4 -42q-1 -19 2 -44zM254 349q2 -26 2 -32l2 -32q0 -10 -1 -34t-1 -38q0 -57 18 -76q6 -6 13.5 -10t18.5 -4h19q7 0 21 3t19 3 q53 6 88 41q43 47 43 115q0 41 -15 71q-45 92 -137 97h-12q-52 0 -70 -33q-6 -12 -8 -29q-1 -8 -1 -18.5t1 -23.5z" />
<glyph unicode="C" horiz-adv-x="679" d="M23 559q0 39 6 80q31 213 88 338q37 74 97 131t132 70q19 4 38 4q42 0 81 -23q16 -10 47 -45q2 -2 13.5 -17.5t19.5 -19.5l18 -20q12 -14 29 -58q16 -39 16 -79q-4 -51 -31 -85q-14 -17 -31 -17q-18 0 -40 18q-25 20 -55 86q-23 42 -61 42q-6 0 -13 -1q-43 -6 -78 -48.5 t-47 -74t-31 -88.5q-29 -93 -29 -191q0 -12 1 -24q0 -121 34 -218q2 -8 11.5 -32.5t13.5 -33.5t12 -26.5t18.5 -30t24.5 -24.5q39 -33 71 -33q11 0 21 4q41 16 68 93t49 98q22 20 48 20q19 0 40 -10q43 -19 43 -79v-11q-8 -160 -102 -234q-78 -57 -166 -57q-51 0 -107 19 q-74 29 -116 100q-49 86 -90 184q-25 57 -37 201q-6 45 -6 92z" />
<glyph unicode="D" d="M11 1087q0 16 14 31q31 47 92 47q31 0 92 -18.5t65 -18.5q143 -33 250 -155q147 -166 148 -395q0 -129 -49 -252q-76 -190 -252 -285q-115 -63 -193 -64q-45 0 -65 29q-16 25 -17.5 60.5t2.5 62.5v61v127q0 47 -7 134.5t-7 126.5q0 2 -6 118v99l2 8q0 4 1 35.5t1 52.5 q0 72 -10 94q-6 12 -22.5 31.5t-24.5 31.5q-14 17 -14 39zM236 698q0 -12 1 -36.5t1 -36.5q0 -2 1 -6.5t1 -6.5v-12v-78q0 -102 6 -153v-57q0 -54 9 -85.5t32 -33.5q1 0 2 -1q57 0 151 125q60 73 60 172v19q0 18 4 59q3 27 3 47q0 10 -1 17q-4 45 -27 110q-18 55 -53 106.5 t-80 65.5q-30 12 -50 12.5t-30 -12.5q-14 -16 -24 -88q-6 -61 -6 -127z" />
<glyph unicode="E" horiz-adv-x="624" d="M49 838l4 26q0 27 -1 73t-1 69q0 47 2 71q8 74 123 74q37 0 86 -4q18 0 78.5 -4t93.5 -4q10 0 31.5 1t32.5 1q47 0 73 -15q23 -12 29 -42q2 -10 2 -19q0 -19 -8 -35q-2 -8 -7 -13t-12.5 -8t-13.5 -6.5t-16 -4.5t-15.5 -1t-17.5 -1t-14 -1h-66q-53 0 -80 -4q-2 0 -19.5 -2 t-22.5 -2t-21.5 -3t-23.5 -6t-18 -8t-17.5 -12.5t-10.5 -15.5q-10 -7 -10 -48q0 -10 1 -24q3 -63 3 -75q-2 -40 -2 -68q0 -47 6 -61q12 -33 24.5 -42.5t43.5 -9.5q121 0 180 -2q29 -2 42 -3t26.5 -13t13.5 -37q-4 -66 -45 -78q-27 -8 -131.5 -18t-147.5 -45q-25 -22 -25 -95 q0 -10 1 -22q6 -76 41 -102q11 -9 42 -9q28 0 72 7q141 18 144 18q59 0 55 -72q0 -47 -68 -65q-12 -4 -65 -18.5t-84 -20.5q-23 -6 -68 -14l-67 -13q-6 -2 -21.5 -9t-25.5 -9q-7 -1 -14 -1l-40 9q-45 16 -45 88q0 41 -2 127t-2 127q0 63 2 94q4 90 4 137q0 31 -4 89 q-2 16 -2 100q0 68 -2 74z" />
<glyph unicode="F" horiz-adv-x="575" d="M47 850v8v172q-2 19 -2 34q0 34 10 44q27 25 58 27q14 2 50 2t93 -2q31 0 90.5 -2.5t89.5 -2.5h18h18q5 0 16.5 -1t17.5 -3t14 -6t13.5 -11t9.5 -15q11 -27 11 -47q0 -30 -28 -41q-23 -8 -62 -9h-63q-29 -2 -90 -14q-43 -4 -53 -10q-33 -16 -43 -84q-8 -57 -8 -135 q0 -102 10 -131q2 -10 11.5 -16.5t18.5 -10.5t25.5 -5t25.5 -1h26h20q8 0 27.5 1t31.5 1q66 0 82 -27q14 -20 12.5 -48t-18.5 -46q-18 -20 -90 -20q-47 0 -119 -15q-20 -4 -30.5 -14t-12.5 -20.5t-6 -34.5q-4 -39 -4 -117q-1 -14 -1 -34q0 -39 3 -99q0 -80 -31 -103 q-12 -9 -36 -8h-11q-33 2 -47 12q-29 23 -33 97q-2 57 -4 174t-4 176q0 43 -2 121t-3 142.5t-1 121.5z" />
<glyph unicode="G" horiz-adv-x="696" d="M29 563q0 43 2 66q10 158 18 202q27 131 66 185q70 96 133 139q63 41 119 41q17 0 34 -4q23 -6 40.5 -20.5t45 -46t29.5 -33.5l14 -19q2 -4 30 -60.5t28 -84.5q0 -41 -41 -58q-18 -14 -38 -3.5t-27 18.5t-22.5 30.5t-21.5 30.5q-38 48 -77 49q-22 0 -46 -16 q-61 -41 -94 -134t-37 -183q-1 -23 0 -45q0 -190 47 -326q55 -158 129 -158q37 0 74 43q59 72 66 146q6 61 6 86q0 51 -14 67q-16 20 -41 22.5t-57 -5t-46 -5.5q-39 2 -54 54q-6 19 -6 34q0 27 17 43q10 12 30.5 20.5t38 12.5t45 8.5t34.5 6.5q98 25 106 24q39 0 62 -28 q10 -12 17 -34t8 -36l3 -42t2 -36q11 -94 11 -141v-23q-20 -211 -158 -344q-59 -57 -150 -57q-92 0 -161 61q-49 43 -107 176q-47 109 -53 234q-4 94 -4 143z" />
<glyph unicode="H" horiz-adv-x="638" d="M41 1030q0 45 14 74q16 31 61 38q11 2 20 1q30 0 50 -17q33 -29 33 -94q0 -23 -4 -59q-8 -75 -8 -127q0 -26 2 -45q6 -53 24 -72q6 -8 14.5 -11t14.5 -3t19.5 2t19.5 2q59 2 84 17q23 14 23 61l-7 186q0 4 -4 36t-4 48q0 49 37 61q22 8 43 8q22 0 42 -9q40 -17 46 -58 q10 -74 10 -182v-119q0 -90 4 -133q1 -11 1.5 -32.5t-1.5 -52.5q-1 -16 0 -29q0 -40 5 -58q6 -33 16 -207q5 -121 5 -163q0 -14 -1 -19q-4 -43 -42 -60q-22 -9 -44 -9q-17 0 -35 5q-66 18 -65 152q0 29 3 79t3 64q0 123 -8 162q-14 61 -85 61q-12 0 -26 -2 q-43 -4 -58.5 -21.5t-21.5 -64.5q-5 -66 -4 -126v-40q0 -18 2 -86q1 -34 1 -58.5t-1 -39.5q-4 -45 -17.5 -64.5t-58.5 -23.5q-7 -1 -12 -1q-34 0 -55 19q-23 21 -23 58q0 49 2 117t2 84q0 35 -1 105.5t-1 104.5q0 2 -6 125v9q0 2 1 40.5t2 76.5t1 42l-6 158q-6 74 -6 90z " />
<glyph unicode="I" horiz-adv-x="591" d="M35 1067q2 23 13 36t24.5 19t38.5 11q25 6 72.5 7t66.5 3q33 4 91 8t81 6q15 1 28 1q69 0 91 -36q19 -33 19 -63q0 -15 -5 -31q-4 -12 -9 -20.5t-16 -12.5l-15 -6q-5 -2 -22.5 -3t-21.5 -1q-2 0 -10 -1t-12.5 -2t-10.5 -2t-10 -2t-9 -3t-8 -5l-8 -7q-4 -4 -6 -9.5 t-2 -11.5q-4 -20 -4 -63v-84q-10 -209 -10 -250q0 -37 4 -111t4 -110q0 -92 23 -138q18 -31 26 -34q2 -6 38 -2t40 4q31 -2 48.5 -25t17.5 -51q0 -47 -41 -70q-26 -13 -79 -13q-13 0 -28 1q-9 1 -21 1q-18 0 -44 -2q-43 -3 -60 -3q-47 0 -55 2q-10 2 -30.5 -4t-30.5 -4h-25 q-16 0 -28 -1q-2 0 -4 -1q-10 0 -21 4q-14 4 -25 14q-20 18 -24.5 48t10.5 52q16 29 37 39q2 2 22.5 0t24.5 -2q31 0 43 13.5t16 44.5q6 33 8 97t2 77q6 70 7 209v165l-3 13v43q0 57 -16 104q-8 23 -12 31t-15.5 16.5t-31.5 8.5q-8 0 -30 -1.5t-40 0t-29 9.5q-27 19 -27 67 q1 14 3 31z" />
<glyph unicode="J" d="M37 215q-1 19 -1 35q0 57 17 72q27 22 49 21q24 0 41 -26q8 -14 24.5 -47.5t29.5 -50.5q29 -35 86 -43q33 -4 56 13.5t33.5 52t13.5 62.5t5 61q4 156 4 231q0 63 -4 190q0 8 -1 36t-2 42.5t-6 37t-13.5 33.5t-23.5 20.5t-38 9.5q-33 0 -74 -1h-3q-39 0 -68 22 q-24 19 -24 49q0 8 1 18q16 68 55 74t109 10q35 2 96.5 7t81.5 7q23 3 49 3q45 0 99 -9q55 -8 55 -72q0 -39 -10 -49q-6 -6 -21 -14q-6 -4 -37.5 -16.5t-44.5 -28.5q-18 -29 -24 -138q-1 -4 -1 -13q0 -30 5 -116l2 -49l-4 -74v-47q0 -33 -2 -47q-1 -11 -1 -29q0 -26 2 -65 t2 -66q0 -18 -1 -30q-6 -145 -94 -238q-61 -63 -152 -63q-53 0 -106 24q-74 35 -109 72q-41 43 -51 129z" />
<glyph unicode="K" horiz-adv-x="608" d="M44 1061q0 23 8 47q9 27 32 39q19 13 41 13q20 0 41 -11q35 -20 35 -73v-11q0 -10 -3 -31.5t-4 -43t-1 -40.5q0 -78 24 -112q8 -8 16.5 -9.5t21.5 10t24.5 23.5t23.5 30.5t22 33.5l18 28q9 14 11 19q53 90 60 100q39 63 71 66q63 0 64 -74q0 -51 -23 -100 q-29 -68 -145 -220q-41 -51 -59 -106q-3 -12 -4 -26q0 -31 16 -74q14 -39 112 -226q53 -102 78 -131q2 -2 12.5 -14t13.5 -16.5t9 -14.5t8 -17t4 -17.5t2 -20.5q0 -33 -11 -55.5t-40 -20.5q-53 4 -90 55q-23 33 -69 109t-72 115q-2 2 -12.5 17t-18.5 24q-25 31 -31 35t-11 5 t-8 -1.5t-6 -5.5t-5 -9t-3 -11t-2 -12.5t-1 -11.5t-1.5 -11t-1.5 -9q-2 -6 -2 -34q0 -21 1 -53q3 -77 4 -89q0 -43 -5 -64q-4 -31 -27.5 -51t-49.5 -20q-35 0 -56 32q-11 19 -11 79q0 17 1 38q12 227 12 229q0 39 -4 113t-4 111q0 88 4 235l-2 31q-4 98 -6 149q0 11 -0.5 31 t-0.5 29z" />
<glyph unicode="L" horiz-adv-x="575" d="M43 1053q0 84 45 106q27 13 50 13q25 0 44 -15q27 -18 33 -115q1 -12 1 -27q0 -38 -4 -95q-5 -80 -5 -97q-1 -13 -1 -28q0 -39 4 -98q5 -81 5 -113q0 -25 6 -98q4 -44 4 -75q0 -21 -2 -38q-2 -22 -2 -42q0 -66 21 -116q10 -23 24.5 -26t38.5 1q20 0 74 15q41 11 67 11 q7 0 13 -1q63 -10 78 -45q7 -18 7 -38q0 -8 -1 -17q-4 -31 -23 -37q-242 -74 -254 -78q-74 -26 -117 -26q-11 0 -20 1q-20 6 -35.5 29t-19.5 47q-4 9 -4 31q0 15 2 37q4 53 4 69q-2 39 -8.5 108t-8.5 97q-6 119 -6 240q0 20 2 67.5t2 69.5q0 45 -4 66l2 14q4 16 -2 58 t-6 54.5t-2 43.5t-2 47z" />
<glyph unicode="M" horiz-adv-x="839" d="M49 113q0 27 4 70.5t4 54.5q2 25 2 73q0 20 -1 61.5t-1 61.5q0 49 2 74q0 25 3.5 98.5t3.5 122.5v45q0 16 -1 66q0 16 -1 29q0 25 2 36q2 18 3 65.5t5 73.5q4 53 47 86q23 17 47 18q21 0 43 -13q25 -18 53 -109q10 -29 23.5 -83t17.5 -69q6 -25 24.5 -78t26.5 -81 q16 -57 29 -84q4 -12 29 -37q10 -4 17 -6t16.5 6t15.5 15t13 23.5t12.5 28t11.5 28t8 25.5t6 21.5t4 14.5q14 49 44 142t42 136q2 6 7 26.5t9.5 32t12.5 25.5t18 21q18 14 55 15h4q32 0 50 -13q8 -6 14 -14.5t8 -22t3 -20.5t2 -23.5t1 -20.5q4 -135 5 -203q0 -78 -5 -237 q-2 -23 -6 -74t-4 -73v-72q2 -33 4 -98.5t4 -98.5q0 -8 2.5 -33.5t-0.5 -40.5l-6 -61q-4 -18 -32 -31q-25 -14 -50 -14h-9q-57 0 -75 47q-7 8 -6 44v20q1 27 1 43t-1 22q-2 18 -4 76.5t-6 89.5q0 2 -1 20.5t-4 33t-9 18.5q-4 2 -9.5 0t-9.5 -9l-8 -12q-4 -6 -8 -14t-6 -10 q-20 -27 -39 -105q-2 -6 -5 -27.5t-6 -31.5t-10.5 -23.5t-17.5 -23.5q-20 -16 -48 -16.5t-46 16.5q-12 10 -21.5 29.5t-18.5 47t-14 35.5q-8 18 -25.5 67.5t-29.5 74.5q-7 15 -14 14q-11 0 -19 -45q-2 -6 -4 -19q-2 -8 -2 -10q-4 -29 -5 -82t-3 -73q-2 -12 -3 -57.5t-5 -65 t-22.5 -42t-53.5 -28.5q-10 -2 -18 -2q-32 0 -47 25q-19 31 -19 88z" />
<glyph unicode="N" horiz-adv-x="704" d="M43 1034v17q0 64 29 90q18 14 57 20t57 -8q20 -18 52 -96q10 -25 30.5 -83.5t34.5 -88.5q33 -74 41 -107l41 -98q28 -62 50 -62q7 0 14 7q8 8 9 32.5t-1 59.5t-2 39q0 20 2 87q1 33 1 59t-1 44q0 16 -3 47t-4 47.5t1 46.5q2 29 19 54.5t46 32.5q11 3 24 3t28 -3 q30 -6 44 -25q20 -25 21 -84q0 -18 -2 -39q-6 -74 -6 -149q0 -53 2 -80q6 -88 13 -267.5t15 -267.5q4 -57 4 -90q0 -66 -8 -115q-4 -29 -23.5 -47t-47.5 -18q-53 0 -80 57q-12 25 -31.5 71t-28.5 64q-6 16 -67 131q-8 14 -21.5 46t-27 55.5t-29.5 40.5q-35 35 -41 35 q-12 2 -18 -33q-2 -23 -5.5 -69t-5.5 -68q-2 -24 -2 -53q0 -48 6 -109q4 -36 4 -64q0 -34 -6 -53q-10 -29 -36.5 -52.5t-55.5 -23.5q-35 0 -51 37q-10 20 -16 117q-2 31 -5.5 91t-3.5 89v72q0 115 2 172q1 20 1 50t-1 69q-2 78 -2 112l-2 25q-2 18 -5 56t-3 42z" />
<glyph unicode="O" d="M49 522q-1 12 -1 30q0 52 9 148l2 41q0 111 76 263q39 74 102 117q53 37 113 37q11 0 23 -1q94 -8 141 -47q45 -37 90 -162q59 -166 60 -313q0 -66 -9 -121q-2 -12 -10 -100t-18 -135q-29 -123 -84 -183q-102 -111 -201 -110q-43 0 -82 24q-145 94 -186 287 q-17 84 -25 225zM215 520q0 -123 33 -213q41 -104 84 -123q14 -6 27 -6q41 0 73 64q45 78 60 217q0 14 -1.5 52t1.5 54q2 14 3 51t1 54l4 30q0 80 -32 166t-95 95q-5 1 -10 0q-102 0 -134 -256q-2 -10 -2 -15q-12 -111 -12 -170z" />
<glyph unicode="P" horiz-adv-x="632" d="M18 1111q27 42 86 48q41 4 60 4q109 0 209 -53q168 -86 207 -178q29 -70 28 -137q0 -84 -39 -168q-39 -82 -73 -113q-57 -51 -113 -76q-96 -47 -104 -55q-29 -23 -29 -107v-71q0 -49 2 -72q0 -8 1 -29.5t1 -33t-4 -27.5t-14 -29q-18 -23 -51 -29q-13 -3 -25 -3 q-17 0 -31 6q-41 14 -41 86q0 57 1 168.5t1 167.5q0 182 -8 335v31q0 23 -1 72t-1 59q-4 39 -17 62q-6 8 -20 22.5t-20 24.5q-16 29 -17 54q0 22 12 41zM233 741q0 -12 1.5 -26.5t3.5 -30.5t2 -27q6 -76 32 -88q13 -7 28 -7q31 0 66 35q50 50 70 103q20 47 21 95 q0 63 -41 112q-53 68 -117 68q-39 0 -55 -41q-12 -32 -12 -63q0 -18 4 -35v-15q0 -16 -3 -40q-1 -12 -1 -22t1 -18z" />
<glyph unicode="Q" horiz-adv-x="743" d="M35 565q0 78 8 142q2 12 7 68t13 89q25 88 31 109q14 45 56 100q57 68 112 90q31 11 69 11q19 0 40 -3q109 -12 178 -104q117 -154 117 -418q0 -59 -2 -90v-33l-2 -14q0 -14 -2.5 -38.5t-2.5 -43.5q-4 -49 -16 -131q-3 -24 -3 -43q0 -38 13 -55q6 -10 33 -37t37 -47 q6 -13 6 -34q0 -7 -1 -15q-3 -31 -17 -45q-14 -16 -42 -21.5t-46 4.5q-10 4 -24.5 12.5t-27 13.5t-28.5 5q-20 0 -51 -21.5t-37 -23.5q-43 -23 -97 -23q-57 0 -125 31q-137 61 -170 281q-26 155 -26 284zM195 606q0 -27 2 -84t2 -86q0 -125 57 -221q50 -79 95 -79 q20 0 40 16q25 18 26 39.5t-10.5 35t-33.5 35.5l-29 29q-39 39 -39 88q0 47 45 67q16 8 31 8q24 0 47 -20q31 -28 46 -27q5 0 9 3q6 4 11 12q9 18 9 62q0 15 -1 32q-2 18 0 43q1 12 1 22.5t-1 18.5q-2 6 -2 21.5t2 19.5l-2 27q-4 137 -45 225q-23 49 -58 72q-17 12 -37 12 t-43 -12q-41 -29 -45 -35q-20 -25 -30 -51q-8 -18 -33 -127q-14 -58 -14 -146z" />
<glyph unicode="R" horiz-adv-x="671" d="M6 1059q0 41 62 76q47 27 116 26q76 0 160 -26q123 -41 217 -146q77 -86 78 -180q0 -20 -4 -41q-2 -16 -7 -31.5t-10.5 -28t-14.5 -27.5t-14 -23.5t-17.5 -25t-17.5 -22.5l-20 -24q-15 -18 -20 -23q-18 -20 -21.5 -24t-15.5 -23.5t-8 -26t2 -32.5q6 -35 35 -111 q16 -39 62 -112.5t61 -102.5q15 -32 15 -58q0 -19 -9 -34q-10 -20 -44 -21.5t-52 11.5q-31 18 -55.5 47.5t-49 76t-37 62.5t-31 57t-30.5 58q-2 2 -8 13t-11.5 17.5t-14.5 14.5t-17.5 8t-20.5 -2q-16 -33 -16 -102q0 -27 3 -82.5t3 -83.5q0 -49 -4 -72q-12 -57 -78 -57 q-59 0 -72 55q-4 18 -4 59t2 60q1 14 1 34t-1 46q-2 51 -2 69q0 104 -2 162q-2 33 -3 98.5t-1 83.5l2 23q0 8 -2 35.5t-2 40.5q0 14 1 40.5t1 40.5q0 123 -35 152q-31 27 -35 33q-14 29 -14 43zM244 801q2 -12 2 -51t3 -60.5t19 -41.5q14 -16 39 -16q5 0 10 1q53 4 91 40 t45 91q1 8 0 16q0 43 -18 83q-22 48 -66 71q-34 15 -61 15q-21 0 -38 -9q-27 -14 -27 -75q0 -8 1 -17q0 -20 2 -31z" />
<glyph unicode="S" horiz-adv-x="600" d="M43 823q0 123 43 199q35 61 109 112q66 45 124 44h15q78 -6 139 -58q23 -18 74 -121l6 -24q9 -99 8 -175v-30q0 -27 -16.5 -54.5t-40.5 -35.5q-29 -8 -54.5 7t-31.5 46q-4 20 -7 61.5t-8 59.5q0 4 -4 28.5t-7 34t-14 23.5t-28 18q-15 5 -28 5q-39 0 -68 -38 q-39 -52 -45 -114q-2 -17 -3 -34q0 -126 134 -232q80 -61 115 -84q49 -31 82 -94q35 -70 34 -136q0 -55 -22 -110q-53 -131 -184 -150q-31 -6 -60 -6q-96 0 -166 68q-55 53 -78 127q-12 41 -12 80t17 57q16 20 52 19t52 -21q14 -16 32.5 -58t33.5 -59q39 -51 76 -51 q18 0 36 12q53 37 53 81q0 12 -4 24q-6 18 -20.5 34.5t-36 36t-29.5 27.5q-20 23 -68 57.5t-55 38.5q-127 100 -141 285q-4 65 -4 100z" />
<glyph unicode="T" horiz-adv-x="608" d="M27 1094q8 10 26.5 16t34.5 9t41 6t31 5q45 6 130 9.5t107 5.5l43 7q31 5 46 6h12q13 0 32 -1q53 -10 54 -90q0 -41 -12.5 -56.5t-49.5 -17.5q-86 -10 -112 -37q-29 -27 -33 -127q-6 -104 -6 -206q0 -80 7 -236t7 -231q0 -39 -3 -64.5t-12.5 -57.5t-33.5 -44 q-12 -6 -27.5 -6t-34.5 6q-47 12 -57 76q-6 25 -6 77v64q4 147 4 219q2 16 0 49t-2 49q1 22 1 44t-1 44v29q0 84 2 125q5 42 5 78q0 27 -3 49q-5 55 -58 55q-8 0 -18 -2q-31 -10 -58.5 -7t-45.5 32q-26 44 -27 77q1 26 17 46z" />
<glyph unicode="U" horiz-adv-x="663" d="M45 440q6 100 6 199q-4 61 -4 90q0 76 -2 82l6 20q2 10 -2 31t-4 23l6 123q0 8 -1 36.5t2 48t14 35.5q26 45 84 46h10q31 0 47 -23t16 -53q0 -25 -5 -69t-5 -60q-1 -12 -1 -29q0 -25 2 -59q3 -57 3 -80q0 -43 3 -160t3 -176q0 -14 4 -41t4 -35q2 -29 0 -59q-1 -9 0 -18 q0 -58 23 -97q12 -25 37.5 -45t48.5 -18q53 2 72 71q29 88 28 303q0 143 -10 318q-2 29 -8 86t-8 87q-1 10 -1 22q0 25 3 63q4 31 35.5 52.5t66.5 21.5q47 0 64 -35q14 -29 20 -117q9 -75 9 -136q0 -12 -1 -24q-2 -35 -2 -104q0 -117 15 -283q4 -61 4 -92q0 -131 -39 -238 q-29 -80 -45 -100q-23 -31 -86 -55q-63 -23 -133 -23q-86 0 -154 41t-94 123q-12 39 -21 123q-11 83 -10 159v25z" />
<glyph unicode="V" horiz-adv-x="704" d="M18 1061q0 51 33 76q30 20 57 20q25 0 48 -18q27 -23 53 -95q12 -41 23.5 -116.5t17.5 -102.5q8 -39 22.5 -119.5t22.5 -119.5q18 -80 33 -107q18 -27 30.5 -18.5t18.5 37.5q31 119 63 274q8 43 25.5 142.5t30.5 152.5q20 66 59 82q28 10 51 10q33 0 58 -20 q23 -20 22 -58q0 -23 -8 -59q-6 -23 -43 -145q-18 -61 -70 -353q-12 -74 -51 -205q-10 -31 -25 -147q-14 -96 -26 -119q-39 -61 -86 -67q-72 0 -98 22q-25 14 -56 94q-20 61 -42.5 182.5t-30.5 151.5q-10 41 -27 120t-21 99q-4 16 -14 60.5t-16 75.5l-11 57q-14 45 -16 70 q-4 12 -8 37.5t-8 37.5q-11 48 -11 68z" />
<glyph unicode="W" horiz-adv-x="894" d="M20 1048q0 58 46 89q25 16 53 16t49 -23q43 -66 47 -135q8 -139 21 -200l6 -50q6 -51 16 -84.5t27 -37.5q14 -4 23 17.5t14.5 56t5.5 36.5q2 14 11 72.5t17 89.5q15 62 80 62q4 0 8 -1q35 -4 51.5 -16t26.5 -45q8 -25 14.5 -80t16.5 -84q2 -6 12 -41t17 -45q12 -27 26 2 q25 47 45 176q4 35 8.5 100.5t6.5 90.5q0 4 1 21.5t2 24.5t4 21.5t7 22.5t10 17t17 18q25 18 67 18q39 0 68.5 -18.5t32.5 -51.5v-10q0 -28 -9 -73q-10 -55 -12 -76q-6 -68 -31 -183q-4 -25 -14 -110.5t-23 -134.5q-20 -74 -32 -217l-25 -142q-2 -12 -2 -29v-30 q0 -33 -27 -53q-33 -23 -63 -23q-68 0 -94 72q-10 29 -25.5 87t-19.5 75q-2 6 -7.5 23.5t-9.5 30.5t-12 29.5t-15 19.5t-20 -1q-8 -4 -14 -19.5t-13.5 -38t-7.5 -24.5q-4 -8 -16 -39t-18 -45q-10 -20 -25 -106q-8 -39 -59 -74q-13 -10 -31 -10q-27 0 -62 24q-31 18 -34 96 q-2 14 -6.5 41t-7.5 48.5t-5 40.5q-6 109 -43 321q-10 53 -27.5 163.5t-27.5 164.5l-2 18q-17 50 -17 145z" />
<glyph unicode="X" horiz-adv-x="704" d="M27 68q-1 5 -1 10q0 33 21 82q8 18 17.5 39.5t21.5 47t18 40.5q80 166 99 248l4 10q18 29 18 78q0 45 -14 98q-43 164 -78 237q-35 70 -35 121q0 68 66 70q14 0 25.5 -2t20.5 -4t18.5 -10.5t14.5 -12.5t13 -17t11 -19.5t10.5 -25t10.5 -25.5t10 -29.5t11 -30.5 q22 -75 42 -75q2 0 5 1q10 4 21.5 18.5t17.5 27.5t15.5 33.5t11.5 25.5q6 12 14 33.5t15.5 38t15.5 34.5t19.5 29.5t24.5 19.5q12 7 28 7h5q19 -1 42 -9q49 -18 49 -67.5t-55 -139.5q-8 -14 -37 -60t-41.5 -69.5t-27.5 -63.5t-17 -75q-1 -5 -1 -11q0 -30 17 -91 q16 -57 64 -174q63 -150 75 -173q6 -10 19.5 -33.5t22 -36.5t15.5 -33.5t7 -39.5q1 -9 0 -17q0 -56 -25 -75t-62 -19q-14 0 -30 3q-18 4 -33.5 15t-28 34.5t-18.5 37t-16 45t-12 36.5q-8 18 -26.5 55t-27.5 57q-2 4 -8 37t-14 48t-27 22q-16 4 -28.5 -6.5t-16.5 -21.5 t-10 -30q-2 -4 -2 -6q-6 -18 -20.5 -52t-20.5 -48.5t-16.5 -61.5t-23.5 -77.5t-38 -49.5q-27 -20 -61 -20q-31 0 -55.5 19.5t-28.5 52.5z" />
<glyph unicode="Y" horiz-adv-x="583" d="M25 1069q0 63 41 86q25 13 45 13q61 0 92 -109q6 -23 19.5 -67t17.5 -64q0 -4 4 -25.5t7 -33t10 -26t18 -18.5q8 -2 15 -3t13 6.5t9 13.5t7.5 17t6.5 19.5t4 17.5t4 13q23 57 45 158q16 84 47 94q8 3 19 4q29 0 77 -24q30 -13 30 -53q0 -17 -5 -39q-27 -121 -33 -142 q-4 -18 -17.5 -51t-17.5 -43q-45 -168 -49 -186l-4 -15q-14 -68 -31.5 -133t-29.5 -112q-4 -14 -14.5 -64.5t-17.5 -76t-19.5 -66.5t-28 -73t-33.5 -56q-37 -49 -102 -56h-8q-28 0 -46 15q-20 16 -20 47q0 33 28.5 100.5t45.5 155.5q14 90 14 156q0 63 -12 124 q-45 180 -99 349q-32 98 -32 147z" />
<glyph unicode="Z" horiz-adv-x="638" d="M29 115q0 33 12 61.5t42 83.5t42 84q70 166 74 176q66 127 94 205q8 25 31.5 79t31.5 83q12 41 2 51q-7 7 -31 7q-16 0 -38 -3q-72 -6 -112 -6q-24 0 -36 2q-31 6 -52 40t-21 71q0 47 32 61q2 2 43 8h21q31 10 94.5 12.5t83.5 6.5q86 14 113 14q35 0 61 -8q2 0 18.5 -4 t20.5 -6.5t16.5 -7.5t17.5 -10t10 -14t7 -20q2 -13 2 -27q0 -55 -33 -122q-82 -176 -100 -225q-14 -41 -51 -115t-49 -100q-10 -23 -37 -79.5t-39 -88.5l-10 -21q-10 -18 -13.5 -26.5t-7.5 -24.5t-1 -27.5t12 -19.5q12 -12 32.5 -14.5t55 5t39.5 7.5q54 6 88 6q21 0 34 -2 q47 -10 47 -88q0 -37 -15 -56.5t-52 -29.5q-94 -27 -197 -33q-10 0 -58 -4t-75 -4q-31 0 -61 6q-43 8 -65.5 41t-22.5 76z" />
<glyph unicode="[" horiz-adv-x="575" d="M74 -109q0 16 5 48t5 45q6 78 6 151q0 51 -3 153.5t-3 151.5q0 84 5 250t5 250q0 41 -4 130t-4 132q0 63 4 94q8 90 98 90q16 0 85 -10t81 2h25q92 0 119 -28q20 -20 20 -58q0 -47 -31 -78q-23 -20 -63 -20q-10 0 -30.5 2t-28.5 2q-51 2 -67.5 -10t-21.5 -62 q-8 -74 -11 -214t-5 -164q-10 -217 -10 -517q0 -18 -2 -54t-2 -65.5t4 -54.5q6 -35 20.5 -48t36 -13t51.5 2q123 6 156 -25q23 -23 23 -73q0 -45 -19 -70q-25 -31 -60.5 -35t-68.5 6q-49 8 -160 -10q-37 -10 -72.5 -5t-62.5 38q-20 28 -20 67z" />
<glyph unicode="\" horiz-adv-x="688" d="M26.5 1182q12.5 39 51.5 47q63 14 108 -66q18 -31 42 -93t30 -77q20 -43 69.5 -158.5t61.5 -144.5q61 -133 197 -459q6 -18 23.5 -52t28.5 -58.5t24.5 -62.5t12.5 -61.5t-9 -53.5q-16 -33 -51 -38t-58 23q-29 33 -65 146q-27 76 -112 255t-108 232l-8 14q-8 18 -55 139.5 t-70 166.5q-12 27 -54 103.5t-56 121.5q-15 37 -2.5 76z" />
<glyph unicode="]" horiz-adv-x="591" d="M68 1272q0 47 18 69q25 33 59.5 36t69.5 -5q57 -8 160 8q31 6 59 6q45 0 76 -38q20 -29 20 -68q0 -16 -5 -48t-5 -42q-6 -76 -6 -154q0 -51 3 -153.5t3 -151.5q0 -84 -5 -250t-5 -250q0 -41 4 -129t4 -131q0 -66 -4 -96q-8 -90 -98 -90q-14 0 -85 10t-81 0h-25 q-86 -6 -119 27q-20 20 -20 57q0 49 31 80q12 10 28.5 14t29.5 4t34.5 -1t30.5 -1q49 -4 65.5 8.5t22.5 61.5q8 74 11 215t5 166q10 215 10 516q0 18 2 54t2 65t-4 53q-6 35 -20.5 49.5t-36 13.5t-51.5 -1q-8 0 -29.5 -1t-34.5 -1q-66 0 -92 24q-22 23 -22 74z" />
<glyph unicode="^" horiz-adv-x="591" d="M61 836q0 20 14.5 45.5t35 55.5t26.5 44q6 12 19.5 44t26 54.5t28.5 40.5q27 27 73 43.5t76 -2.5q25 -18 41.5 -47t35 -76t30.5 -71q6 -10 20.5 -32t23.5 -39t17.5 -37.5t7.5 -40t-14 -36.5q-25 -29 -63 -28q-41 0 -66 32q-14 18 -27.5 66.5t-25.5 67.5q-37 57 -84 -35 q-8 -14 -20 -43q-39 -80 -58 -86q-37 -12 -77 14.5t-40 65.5z" />
<glyph unicode="_" horiz-adv-x="870" d="M63 98q0 74 56 74l69 6q78 -4 279 9.5t240 13.5q47 2 78.5 -16.5t29.5 -63.5q-2 -78 -90 -88q-47 -8 -138 -12.5t-204 -6.5t-139 -2q-10 0 -42 -3t-50 -3q-55 0 -74 27q-15 18 -15 65z" />
<glyph unicode="`" horiz-adv-x="628" d="M61 1401q41 57 123 24q33 -14 72 -35.5t65.5 -38t70.5 -45t65 -40.5l45 -23q41 -20 61.5 -39.5t20.5 -44.5q4 -29 -31 -76t-78 -20l-61 35q-61 45 -161.5 98t-143.5 80q-95 55 -48 125z" />
<glyph unicode="a" horiz-adv-x="735" d="M41 256q0 68 14 117q35 119 205 289q27 29 89 52q53 20 91 20q7 0 13 -1q14 -2 45.5 -9t54.5 -7q29 0 61 8q27 8 58 -19q26 -23 25 -59q0 -7 -1 -14q-6 -49 -32 -152q-20 -119 -21 -219q0 -25 4 -61q0 -2 14.5 -63.5t14.5 -94.5q0 -47 -29 -68q-23 -16 -45 -16 q-37 0 -74 45q-10 12 -21 31.5t-15.5 26t-19.5 12.5t-34 -6q-14 -6 -59 -30t-86 -39t-78 -15q-70 0 -115 59q-59 80 -59 213zM215 225q10 -45 53 -45q35 0 78 25.5t68 52.5q4 6 14 16l14 17q4 4 19.5 42t26.5 87q5 22 5 40q0 24 -8 44q-14 35 -43 35q-9 0 -19 -3 q-44 -13 -84 -43t-54 -53q-74 -105 -74 -180q0 -19 4 -35z" />
<glyph unicode="b" horiz-adv-x="716" d="M63 778q0 100 23 183q41 143 107 151q9 1 16 1q26 0 37 -16q14 -22 14 -61q0 -35 -8 -75q-11 -72 -11 -159q0 -25 1 -50q10 -31 69 -31q49 25 107 24q53 0 100 -24q74 -41 120 -129t46 -178q0 -27 -8 -68q-59 -250 -307 -317q-16 -4 -48 -14.5t-50.5 -15.5t-50.5 -8 q-9 -1 -16 -1q-20 0 -32 6q-8 -3 -17 -3q-25 0 -55 25q-33 29 -32 95q0 18 3 53t3 47q0 43 2 131t2 131q0 49 -7.5 150.5t-7.5 152.5zM248 385q6 -119 6 -145q11 -54 60 -54q14 0 32 4q111 33 152 121q12 31 12 70q0 68 -38 123t-93 55q-37 0 -76 -26.5t-55 -102.5v-45z" />
<glyph unicode="c" horiz-adv-x="647" d="M49 274q0 61 12 117q31 172 129 260q61 53 115 62q33 4 78 4q102 0 129 -17q82 -49 82 -165q0 -20 -8 -58l-6 -20q-4 -37 -50 -50q-19 -6 -35 -6q-23 0 -42 11q-16 10 -19.5 33.5t-1.5 45t-20.5 38t-73.5 18.5h-3q-48 0 -86 -75q-40 -77 -40 -163q0 -117 76 -149 q36 -17 71 -17l52 9q14 4 51 26.5t57 24.5q29 2 50.5 -23.5t19.5 -52.5q0 -39 -72 -86q-103 -66 -210 -66h-23q-55 2 -107.5 43t-85.5 95q-39 67 -39 161z" />
<glyph unicode="d" horiz-adv-x="647" d="M35 274q0 43 12 117q31 172 131 260q57 53 113 62q25 4 61 4h-2h2h13q63 6 75 67q-2 2 -2 10.5t-2 10.5q-27 133 -28 160q-1 17 -2 32q0 70 24 86q20 14 39 19q7 1 13 1q11 0 19 -4q13 -7 24.5 -19.5t19.5 -33t14 -39t11 -42t7.5 -37t4.5 -29.5q8 -61 12 -223v-64 q0 -96 -6 -192q-8 -129 -8 -328v-10q0 -55 -41 -72q-23 -6 -45 0q-12 0 -80 -12q-66 -24 -124 -24q-12 0 -24 1q-111 6 -192 138q-39 67 -39 161zM195 309q0 -117 75 -149q36 -17 73 -17q26 0 52 9q8 2 25 22q6 20 10 62q2 31 7 78.5t5 76.5v39q-6 109 -118 117h-5 q-44 0 -83 -74q-41 -78 -41 -164zM348 717h2h-2z" />
<glyph unicode="e" horiz-adv-x="696" d="M25 289q0 100 56 193t148 157q96 68 224 68q133 0 176 -99q23 -51 22 -100q0 -31 -9 -58.5t-29.5 -52t-33 -39t-43 -39t-36.5 -30.5l-33 -19q-20 -14 -92 -29.5t-82 -33.5q-8 -13 -8 -24q0 -22 33 -35q35 -14 72 -13q15 0 30 2q31 6 67.5 20.5t62 26t50.5 18.5t37 0 q14 -8 14 -36q0 -75 -78 -129q-80 -55 -157 -60q-15 -1 -30 0q-108 0 -204 39q-90 39 -135 152q-22 58 -22 121zM240 410q0 -23 20 -34q15 -8 35 -8q7 0 14 1q88 10 148 90q23 34 23 54q0 28 -44 30h-6l-133 -45q-10 -6 -18 -15l-3 -4q-36 -38 -36 -69z" />
<glyph unicode="f" horiz-adv-x="503" d="M43 498q0 43 18 61q10 10 30 18.5t26 12.5q16 14 26 33q1 19 1 39q0 40 -3 81q-4 29 -3 57q0 99 44 195q39 78 103 101q8 4 14 4q46 13 76 13q25 0 39 -9q18 -8 38 -39q18 -28 17 -49q0 -36 -25 -43q-20 -8 -26 -8q-55 0 -84 -39q-4 -6 -8 -19q-33 -88 -33 -172 q0 -20 4 -86q2 -45 84 -45q57 -2 63 -63q2 -15 3 -28q0 -54 -41 -71q-4 -2 -44 -8t-57 -20q4 -156 10 -209q10 -78 11 -105q0 -74 -35 -114q-16 -20 -46 -30q-14 -4 -27 -4q-14 0 -28 5q-41 20 -45 88q-1 11 0 25q0 36 3 95q5 83 6 114l-2 14q4 10 2 29l-4 24q0 23 -2.5 35 t-15.5 25.5t-40 17.5q-41 6 -47 33q-2 10 -2 41z" />
<glyph unicode="g" horiz-adv-x="759" d="M29 260q0 170 100 295q55 66 123 98q6 2 28.5 12.5t33 14.5t35 13t33.5 7t30 -2l22 4q4 0 8 1q19 0 48 -8q36 -9 52.5 -9t55.5 9.5t61 2.5q55 -12 56 -73q0 -25 -11.5 -70t-13.5 -55q-6 -43 -6 -92q0 -12 1 -37t1 -37q2 -31 15.5 -85t15.5 -79q3 -28 3 -54 q0 -159 -108 -257q-137 -127 -290 -127q-27 0 -50 6q-23 0 -36 18q-25 27 -25 55.5t19.5 52t37.5 30.5q2 0 17.5 4t21.5 6q16 -4 51 2q94 10 150 86q14 18 26.5 47t9.5 57.5t-30 30.5h-3q-23 0 -78 -31q-58 -33 -64 -35q-75 -29 -141 -28h-9q-84 2 -136 70.5t-54 156.5z M268 209q53 0 117 41t86 86l12 31q23 23 32 67q3 14 3 27q0 28 -14 47q-20 23 -62 22q-31 0 -77 -14q-72 -25 -125 -87q-51 -60 -52 -127q0 -93 80 -93z" />
<glyph unicode="h" horiz-adv-x="647" d="M47 643v13q0 42 8 171q4 137 27 183q20 41 61 67q23 15 45 15q17 0 33 -9l19 -16q5 -12 5 -38q0 -13 -1 -30q-4 -49 -8 -71q-2 -27 -4.5 -80t-4.5 -80q0 -8 -5 -49t-5 -64q0 -45 14 -71q10 -14 23.5 -17.5t31 8t29 18.5t31 25.5t21.5 20.5l24 25q20 20 29.5 28t27 20.5 t34 15.5t32.5 1q49 -8 72 -47q17 -29 16 -61q0 -12 -2 -25q-37 -203 -37 -270q0 -43 6 -88q2 -14 14 -78q10 -54 9 -83q0 -58 -44 -79q-19 -9 -38 -9q-23 0 -45 13q-70 37 -70 201q0 33 4 97q3 43 3 67q0 12 -1 20q0 49 -12 51q-10 2 -24 -6q-29 -12 -58 -61 q-37 -61 -63 -211q0 -4 -2 -17.5t-3 -18.5t-4.5 -17.5t-4.5 -17.5t-4 -15.5t-7 -16.5t-8 -14t-10 -14t-13.5 -12.5t-15.5 -12.5q-29 -18 -55 -18q-61 0 -66 77v16q0 30 5 79q7 63 7 94q0 35 -2 99.5t-2 97.5q0 37 -6 102t-6 92z" />
<glyph unicode="i" horiz-adv-x="288" d="M72 520q0 12 -1 23q0 81 27 119q27 36 53 35q22 0 44 -25q29 -34 28 -89q0 -15 -2 -32q-8 -57 -8 -129q0 -39 3 -117t3 -117v-6q0 -16 8.5 -51t7 -62.5t-19.5 -45.5q-19 -18 -47 -18q-11 0 -23 2q-43 9 -57 44q-10 18 -10 62q0 37 4 73q1 5 0 19q0 40 -4 155zM82 829 q-8 24 -8 45q0 25 12 44q29 43 72 43q49 0 67 -33l4 -8q9 -14 9 -36q0 -34 -13 -57q-16 -31 -41 -39q-14 -5 -29 -5t-30 5q-31 12 -43 41z" />
<glyph unicode="j" horiz-adv-x="303" d="M18 -256q10 18 25.5 45t22.5 43q31 82 30 176q0 27 -4 101q-2 27 -6 145.5t-10 181.5q-8 66 -8 109q0 78 30 119q16 23 43 32t52 -2q43 -23 43 -90q1 -14 0 -32q0 -37 -3 -95q-4 -86 -4 -119q-2 -6 -1 -19q0 -21 3 -60l7 -99v-155q0 -43 2 -64q3 -23 3 -46 q0 -86 -42 -177q-18 -41 -53 -76t-70 -35q-31 0 -53 29q-17 19 -18 42q0 26 11 46zM89 816q-7 21 -7 40q0 20 8 37q14 33 48 52q15 9 30 9q18 0 35 -14l8 -8q8 -8 16.5 -17.5t10.5 -13.5q7 -21 7 -38q0 -11 -3 -21q-8 -31 -37 -52q-26 -20 -54 -20h-6q-41 2 -56 46z" />
<glyph unicode="k" horiz-adv-x="630" d="M45 772q0 135 33 232q12 35 44 63.5t64 28.5q37 0 58 -43q7 -25 6 -60q0 -29 -4 -64q-10 -79 -27 -128v-6q-4 -20 -4 -66v-24q0 -120 39 -119q23 0 63 28q18 12 53.5 53.5t68.5 66.5q31 24 64 24h5q88 -8 88 -72q0 -39 -33 -68q-127 -117 -166 -157q-12 -25 -12 -39 q2 -31 43 -82q47 -63 135 -156q47 -47 47 -106q0 -49 -49 -64q-12 -3 -23 -3l-46 14q-35 20 -51.5 41.5t-43.5 60.5q-12 18 -35.5 43t-31.5 35q-24 27 -49 26q-10 0 -19 -4q0 -2 -2 -2l-2 -4q-8 -31 -8 -74q-2 -47 -46 -105q-35 -47 -78 -47q-10 0 -22 3q-55 16 -55 98 q0 23 6 66t6 55q2 45 2 131t-2 131q-2 23 -9 128.5t-7 164.5z" />
<glyph unicode="l" horiz-adv-x="301" d="M57 823q0 121 25 196q19 59 62 59q12 0 26 -5q57 -20 57 -266q0 -37 -1 -82t-2 -74.5t-1 -42.5l-2 -8q8 -68 11.5 -150.5t4.5 -182t3 -152.5q1 -10 0 -20q0 -54 -20 -87q-14 -23 -40 -23q-18 0 -41 11q-33 14 -48 47q-14 31 -14 63q0 12 0.5 38t0.5 40q2 31 2 92 q0 45 -17 390q-6 85 -6 157z" />
<glyph unicode="m" horiz-adv-x="911" d="M49 555q0 49 2 74q0 2 1 13t1 14t1 13.5t2 13.5t3 11t5.5 12.5t8.5 10.5t10 10t13 6q16 5 32 5q18 0 36 -6q35 -11 51 -38q16 -23 16 -63q0 -10 -1 -30.5t-1 -33.5l-4 -18q-8 -45 -2 -62q10 -27 35 11q4 2 4 4q51 68 82 127l16 35q18 35 30.5 51t29.5 24q11 5 22 5 q16 0 34 -10q30 -17 48 -44q17 -26 17 -83q0 -21 -2 -46q-3 -26 -3 -45q0 -50 19 -51q6 0 12 2q10 4 21.5 20.5t18.5 32t16.5 35.5t11.5 25q4 10 14 33.5t16.5 36t18.5 28.5t27 29q23 18 57 18q37 0 63 -20q34 -26 35 -86q0 -12 -2 -25q0 -23 -8 -66t-10 -65 q-1 -14 -1 -33.5t1 -44.5q2 -49 2 -66q0 -94 8 -137q2 -10 10 -41.5t8 -42t-2 -43.5q-4 -29 -32 -47q-23 -15 -49 -15q-6 0 -11 1q-45 6 -75 80q-8 18 -11.5 37.5t-5.5 48t-4 41.5q0 2 1 36.5t-4 51t-22 8.5q-12 -6 -24 -26.5t-22.5 -48t-14.5 -36.5q-8 -14 -29.5 -60 t-36.5 -69q-39 -56 -85 -56q-14 0 -29 5q-53 16 -64 103v14q0 46 11 123q0 4 4 21.5t4 24.5t-4 21q-16 31 -41 -12q-12 -23 -32 -71t-24 -56q-8 -16 -24.5 -68.5t-30.5 -74.5q-18 -29 -57 -35q-8 -1 -15 -1q-29 0 -49 19q-8 8 -13 18.5t-6 25t-2 24.5t0 27.5t1 23.5 q0 88 -23 332q-4 29 -4 90z" />
<glyph unicode="n" horiz-adv-x="630" d="M49 430q0 23 2 75q1 26 1 45.5t-1 33.5v16q0 69 33 96q25 18 58.5 15.5t54.5 -23.5q18 -16 18 -65q0 -12 -1 -34t-1 -30q-3 -27 -3 -47q0 -41 11 -59q8 -14 19 -14q18 0 41 40q16 27 56 99.5t66 109.5q35 43 84 43q80 0 107 -78q1 -10 1.5 -19t1 -14t0.5 -8q0 -8 -9 -37 q-10 -31 -13 -38q-18 -80 -18 -160q0 -12 -1 -37t-1 -37q0 -37 6 -72q4 -25 16.5 -67.5t16.5 -63.5q7 -26 7 -46q0 -43 -30 -64q-13 -8 -32 -8q-11 0 -25 3q-37 7 -51 23q-25 29 -45 131q-10 49 -19 140q-4 39 -16 40q-4 0 -10 -2q-14 -4 -39 -41q-18 -27 -47 -82t-33 -61 q-2 -2 -11.5 -22.5t-13.5 -28.5t-15 -25.5t-19.5 -25.5t-19.5 -16.5t-23 -10.5q-7 -1 -15 -1q-29 0 -50 14q-26 17 -30 53q-6 57 -6 108q0 18 1 56t1 61q0 82 -4 135z" />
<glyph unicode="o" horiz-adv-x="661" d="M41 373q0 147 70 241q59 86 149 117q31 10 68 10q14 0 96 -10l27 -14q14 -2 30.5 -27.5t22.5 -32.5q119 -104 119 -272q0 -160 -103 -285q-43 -51 -130 -81q-52 -18 -94 -17q-29 0 -54 8q-80 29 -131.5 101.5t-63.5 160.5q-6 52 -6 101zM199 346q0 -51 14 -88 q20 -51 60 -77q21 -14 45 -13q20 0 42 10q49 20 72 86q6 20 14 62q2 8 4.5 27.5t4.5 27.5v27q1 11 1 20q0 38 -18 72q-25 47 -59 65q-18 9 -37 9q-24 0 -48 -16q-42 -28 -65 -75q-30 -57 -30 -137z" />
<glyph unicode="p" horiz-adv-x="690" d="M50 585q-1 17 -1 30q0 26 4 36q10 74 68 76h11q60 0 73 -41l4 -4q4 -10 44 -8t60 12q54 30 96 30q7 0 15 -1q51 -8 99 -52.5t79 -99.5q54 -96 54 -215q0 -26 -3 -53q-6 -74 -46 -136.5t-101 -84.5q-78 -29 -115 -29q-20 0 -60 10.5t-63 7.5q-16 0 -25.5 -4t-14.5 -16 t-6 -18.5t-1 -26.5v-27q-2 -23 -2 -67v-70q0 -10 2 -41t-2 -49t-20 -33q-18 -13 -43 -13q-6 0 -13 1q-33 4 -51 25q-10 10 -15 21t-7 26.5t-3 24.5t0 29.5t1 27.5q0 20 3 74q2 33 1 56v27q-2 43 -6.5 118t-7.5 136.5t-5 116.5q-2 23 -2 68t2 69q0 15 -3 67zM229 399 q0 -51 21 -129q20 -70 96 -69q31 0 70 12q45 14 61 57q11 29 11 60q0 16 -3 32l-4 17q-2 10 -10 43t-16.5 52.5t-24.5 37.5q-20 25 -56 32q-15 3 -29 3q-20 0 -38 -6q-78 -27 -78 -142z" />
<glyph unicode="q" horiz-adv-x="655" d="M33 362q0 90 26 168q14 41 48 87.5t71 66.5q31 18 70 18t94 -20q31 -12 49 -8q39 4 49 10q8 4 39 23.5t53 21.5h7q38 0 53 -21q16 -24 16 -67q0 -29 -4 -70q-14 -162 -14 -272v-29v-61q2 -29 9 -83t9 -79l19 -172q1 -12 1 -23q0 -65 -42 -85q-24 -11 -45 -12 q-38 0 -62 40q-12 23 -12 62v59q-4 78 -6 119q-2 45 -45 45q-27 0 -83.5 -20.5t-64.5 -22.5q-11 -1 -21 -2q-54 0 -103 35q-58 41 -78 102q-33 86 -33 190zM193 340q0 -57 23 -92q19 -28 54 -28q8 0 17 1q47 8 82 49l10 17q27 33 36 85q4 25 4 46q0 24 -5 45q-12 41 -58 61 q-25 11 -48 12q-19 0 -36 -8q-35 -16 -57 -72.5t-22 -115.5z" />
<glyph unicode="r" horiz-adv-x="581" d="M45 150q20 213 21 321l-3 31q0 10 -8 51t-8 63q0 55 41 74q25 8 57.5 -12.5t47.5 -20.5q16 2 51 32t45 34q49 23 96 22q90 0 135 -67q39 -59 39 -115q0 -72 -63 -88q-39 -10 -57.5 7.5t-28.5 58.5q-11 32 -38 31q-20 0 -48 -17q-88 -53 -101 -205q-8 -98 -8 -147 q0 -12 1 -34t1 -32q0 -41 -14 -67q-14 -29 -46 -38q-11 -3 -23 -4q-20 0 -40 11q-49 30 -49 100v11z" />
<glyph unicode="s" horiz-adv-x="661" d="M43 63q-16 22 -16 42q0 34 49 61q18 8 35.5 11t26.5 2t32 -6t33 -7q47 -10 92 -10q37 0 67 8q31 6 62 29.5t20 50.5q-12 32 -80 31q-11 0 -24 -1q-53 -4 -88 -4q-131 0 -180 64q-25 35 -25 74q0 23 10 57q33 117 82 176q51 57 127 96t150 39q49 0 98 -22q68 -31 82 -123 v-70q0 -43 -25 -72q-29 -23 -65 -23q-12 0 -25 3q-20 2 -47.5 21.5t-23.5 48.5q1 7 0 14q0 45 -37 45q-33 0 -71 -28.5t-46 -61.5q-10 -41 4 -57.5t55 -18.5h67q58 0 67 -4q150 -29 167 -158q4 -20 4 -41q0 -51 -22 -101q-31 -71 -96 -103q-88 -43 -213 -43q-72 0 -117 10 q-94 20 -129 71z" />
<glyph unicode="t" horiz-adv-x="532" d="M20 621q0 61 43 67l27 4q45 25 57 60q2 18 3 55q2 29 7 53.5t17 54t38 41.5q14 7 31 7q14 0 31 -5q57 -12 58 -81q0 -23 -17 -99q2 -39 52 -43l18 2q20 2 31 4q8 1 16 1q78 0 78 -78q0 -68 -70 -91q-43 -12 -86 -18q-39 -18 -47 -51q4 -53 4 -72v-20q0 -33 6.5 -106 t6.5 -109v-38q0 -19 -1 -39t-6.5 -39.5t-13.5 -34.5t-25.5 -26.5t-41.5 -17.5q-14 -3 -26 -3q-31 0 -45 20q-19 28 -20 79q0 10 9 92q2 37 2 111q0 61 -4 176q-12 39 -52 47q-7 -1 -12 0q-37 0 -51 21q-17 23 -17 76z" />
<glyph unicode="u" horiz-adv-x="651" d="M41 270q0 45 4 107q0 8 2 47t4 60.5t6 59.5t11.5 63.5t18.5 54t29.5 47t41.5 28.5q17 7 33 8q25 0 48 -17q31 -23 31 -59q0 -8 -2 -16q-4 -27 -26.5 -90t-24.5 -102l-4 -27q-2 -20 -6 -71.5t-3 -60.5t5 -38q10 -19 26 -19q15 0 34 16q42 34 69 77q31 49 47 107.5 t28.5 137.5t20.5 113q12 45 49 68q15 9 32 9q24 0 50 -19q33 -31 33 -92q0 -41 -10 -78q-29 -109 -29 -193q0 -12 -4 -45q-6 -27 -6 -59q0 -27 8 -41l4 -8q10 -23 17 -29q20 -33 36 -57q26 -41 27 -64q0 -6 -2 -10q-14 -45 -29 -55q-10 -8 -22 -15q-19 -7 -37 -7 q-29 0 -51 19q-20 18 -45 61.5t-47 59.5q-25 0 -93.5 -70.5t-119.5 -70.5q-37 0 -78 33q-76 61 -76 237z" />
<glyph unicode="v" horiz-adv-x="634" d="M31 625q0 70 49 96q28 15 51 15q30 0 51 -26q37 -46 35 -114v-31q4 -12 14 -76q0 -2 6.5 -37.5t13.5 -67.5t16 -68.5t21.5 -55t24.5 -12.5q10 6 23.5 33.5t25 60.5t15.5 39q10 16 16 37.5t11.5 49.5t9.5 42q16 47 26 119q10 104 27 125q25 32 64 32q19 0 40 -8 q20 -8 30 -24q8 -15 8 -32q0 -7 -0.5 -22t-0.5 -22q0 -63 -33 -186l-55 -222q-10 -37 -36.5 -103.5t-34.5 -96.5q-10 -33 -29 -48.5t-53 -25.5q-24 -7 -46 -7q-96 0 -159 124q-14 27 -26.5 59.5t-21 55t-18.5 66.5t-13 58.5t-13.5 67.5t-12.5 59q0 4 -13 59.5t-13 86.5z" />
<glyph unicode="w" horiz-adv-x="874" d="M24 649q0 24 24 44q26 22 54 20q49 -4 95 -74q16 -25 47 -123q2 -4 7 -35.5t14 -48t24 -8.5q12 6 19 27.5t11.5 50t6.5 35.5q4 14 16 62t23 71q31 64 83 63q10 0 21 -2q59 -14 84 -96q16 -55 20 -137q2 -10 1 -21.5t1.5 -25t8.5 -19.5q23 -31 39 17q8 23 15 68.5t11 60.5 q6 18 11.5 70t13.5 75q12 29 50 38q12 3 23 3q25 0 46 -14q10 -6 16 -16.5t11 -26t8 -23.5t7.5 -27.5t4.5 -23.5v-11q0 -7 2 -12q4 -12 4 -18q0 -2 -4 -31l-11 -57q-12 -57 -18 -70q-2 -8 -10 -33.5t-17 -44.5q-8 -16 -15 -26.5t-13 -22.5q-4 -8 -4 -12q-4 -6 -25 -39 q-12 -25 -20.5 -72t-14.5 -63q-2 -4 -8 -27.5t-10 -35t-13.5 -28t-19.5 -22.5q-25 -16 -57.5 -2t-57.5 41q-53 53 -61 127q-2 18 -3 28.5t-6 32t-15.5 29.5t-24.5 0q-18 -12 -43 -117q-2 -8 -8.5 -33.5t-9.5 -36.5t-11 -28.5t-20 -32.5q-18 -20 -60 -20q-39 0 -61 14 q-45 25 -58 105q-2 23 -3 65.5t-5 65.5q-4 27 -17 75t-18 66q-25 104 -36 135q-4 8 -17.5 36t-19.5 47q-7 20 -7 44z" />
<glyph unicode="x" horiz-adv-x="634" d="M29 76q-1 6 -1 12q0 54 64 125q47 53 60 145q1 6 0 12q0 41 -35 105q-8 12 -24.5 34.5t-27 41t-14.5 41.5q-2 10 -2 20q0 57 70 105q35 20 59.5 16t39.5 -26.5t26.5 -50t17.5 -52.5q2 -8 2 -10q12 -53 43 -64q14 -6 35 15q35 35 64 88q4 8 14 30.5t17 35t19.5 27.5 t24.5 26q18 12 43 12q9 0 20 -2q38 -6 54 -31q15 -24 15 -51q0 -23 -10 -45q-11 -25 -24.5 -46.5t-31 -46t-25.5 -40.5l-10 -19q-18 -31 -35 -91q-10 -37 -10 -62q0 -16 4 -27q18 -53 84 -123q27 -27 38 -59q5 -14 5 -30q0 -19 -8 -40q-16 -30 -48 -30q-30 0 -73 26 q-41 23 -100 100q-6 8 -15.5 24.5t-13.5 24t-16.5 11.5t-26.5 -12q-16 -12 -34.5 -49t-22.5 -44q-45 -74 -74 -88q-18 -8 -41 -8q-35 2 -49.5 6t-28.5 18.5t-18 45.5z" />
<glyph unicode="y" horiz-adv-x="714" d="M55 260q0 45 4 111q0 4 1 37.5t2 46t3.5 46.5t6.5 52t9 48t13 47.5t19.5 39t26 34.5t32.5 21q17 7 34 8q25 0 47 -17q31 -23 31 -60q0 -8 -1 -17q-6 -31 -28 -95t-26 -103l-4 -29q-3 -109 -2 -150v-24q10 -53 41 -53t74 45t68 82q31 53 47 112.5t28.5 140.5t20.5 117 q12 49 49 72q14 9 30 9q24 0 52 -21q35 -35 35 -96q0 -33 -13 -78v-2q0 -27 -2 -76t-3 -87t-1 -63v-6q-2 -5 -1 -17q0 -19 3 -56l6 -99q1 -14 1 -35t-1 -48q-2 -54 -2 -70q0 -20 4 -66q2 -19 2 -38q0 -91 -40 -185q-18 -41 -53.5 -76t-69.5 -35q-31 0 -54 29q-18 20 -18 45 t10 43t26.5 45t22.5 43q29 84 29 172q0 49 -2 78q-8 28 -28 28q-10 0 -23 -8q-123 -123 -232 -122q-55 0 -98 36q-76 64 -76 244z" />
<glyph unicode="z" horiz-adv-x="692" d="M39 158q12 37 46 80t65 59q33 16 126 121q99 112 100 155q0 24 -32 27q-7 1 -16 1q-28 0 -76 -5q-63 -6 -72 -6q-29 -2 -52.5 -3t-39.5 11t-18 41q-1 13 -1 24q0 61 27 76q12 8 72 17q34 5 50 4q12 0 15 -2l31 2q14 0 44 -1t44 -1q43 0 86 6q78 10 105 10q47 0 78 -14 q39 -22 39 -91q0 -26 -35 -65q-16 -18 -69.5 -100t-82.5 -117q-10 -14 -53 -55t-70.5 -76t-27.5 -55q0 -27 53 -27q23 0 85 12.5t93 12.5q70 0 92 -47q10 -18 10 -40q0 -13 -4 -28q-10 -39 -45 -47q-61 -18 -164 -18q-28 0 -59 1q-4 0 -180 7q-8 0 -32 -1t-39 -1t-35.5 7 t-33.5 21q-29 37 -29 74q0 16 5 31z" />
<glyph unicode="{" horiz-adv-x="591" d="M59 547q0 57 54 86q12 8 30.5 12t31.5 11.5t26 23.5q29 47 16 111q-6 33 -38 101.5t-34 111.5q-2 213 265 335l16 7q49 8 75.5 -12.5t26.5 -59.5q0 -78 -71 -115q-145 -74 -111 -215q2 -10 24.5 -85t30.5 -120q8 -49 -28.5 -114.5t-42.5 -83.5q-8 -6 -4 -29t5 -28 t9 -26.5t10 -25.5q29 -84 25 -115q-4 -35 -39 -102.5t-37 -105.5q-4 -51 18.5 -90t67.5 -50q14 -4 51 -7t58.5 -7t42 -21.5t20.5 -48.5q2 -53 -46 -80.5t-108 -33.5q-117 -8 -215 86q-92 92 -92 194q0 47 34 121t40 98q27 104 -68 187q-43 39 -43 90z" />
<glyph unicode="|" horiz-adv-x="282" d="M51 1128q0 102 43 142q29 25 61.5 16.5t45.5 -43.5q10 -29 10 -74q0 -29 -4 -86q-2 -20 -2 -67q0 -80 10 -247t10 -220l2 -17q0 -25 -1 -103.5t-1 -121.5q0 -76 2 -104q2 -23 12.5 -113t6.5 -137q-4 -43 -27.5 -73t-64.5 -23q-63 10 -76 102q-4 41 -4 66q0 14 2 55t0 63 q-2 51 -4 180.5t-2 149.5q-10 221 -11 498q0 18 -4 72t-4 85z" />
<glyph unicode="}" horiz-adv-x="624" d="M57 1243q-2 51 46.5 80t107.5 35q115 8 215 -88q92 -90 90 -193q0 -49 -33.5 -122.5t-40.5 -96.5q-27 -104 70 -188q43 -39 43 -90q0 -57 -53 -84q-12 -8 -31.5 -12.5t-32 -11.5t-24.5 -26q-29 -39 -17 -108q6 -31 38 -100.5t32 -112.5q2 -117 -65.5 -194.5 t-186.5 -143.5l-4 -2q-53 -10 -84 16.5t-31 67.5q0 70 62 100q117 61 116 158q0 31 -8 57q-6 23 -25.5 91.5t-27.5 111.5q-10 51 29 116.5t43 84.5q0 35 2 38t-10.5 34.5t-12.5 33.5q-29 88 -26 115q4 35 39.5 103.5t37.5 107.5q2 51 -19.5 90t-66.5 49q-12 2 -50 6 t-59.5 8.5t-42 21.5t-20.5 48z" />
<glyph unicode="~" horiz-adv-x="847" d="M82 428q-2 45 59 107q102 111 183 110q35 0 59 -22q6 -6 27.5 -25.5t37 -32t31.5 -20.5q61 -25 123 10q12 6 39 32.5t45 33.5q31 10 52.5 -10.5t27.5 -51.5q16 -61 -35 -106t-123 -70q-78 -25 -137 -12q-59 10 -96 57q-45 55 -90 35q-20 -8 -49 -40t-46 -42 q-31 -20 -68.5 -7t-39.5 54z" />
<glyph unicode="&#xa1;" horiz-adv-x="327" d="M74 1121.5q-2 27.5 8 43.5l6 9q14 33 66 32q41 2 71 -41q23 -39 4 -88q-12 -31 -43 -43q-31 -10 -59 0q-25 10 -41 39q-10 21 -12 48.5zM77 74.5q-1 27.5 7 62.5t8 51v7q0 31 3 175t3 226q0 145 -8 203q-10 76 27 121q25 25 50.5 19.5t45.5 -32.5q31 -41 27 -139 q-2 -27 -2 -80t-2 -80q-8 -90 -9 -342q0 -18 1 -43.5t1 -29.5q4 -41 4 -78q0 -39 -8 -58q-16 -35 -58 -44t-69 16q-20 18 -21 45.5z" />
<glyph unicode="&#xa2;" horiz-adv-x="618" d="M37 442q0 41 12 119q35 172 131 258l17 17q33 45 43 82q4 82 47 112q31 20 64.5 13t43.5 -35q12 -27 8 -74q10 -33 48 -53q37 -4 49 -13q51 -31 70.5 -96t2.5 -125l-6 -22q-2 -37 -48 -50.5t-79 7.5q-16 10 -19 32.5t-1 44t-20.5 39t-73.5 19.5q-47 2 -88 -77t-41 -165 q0 -115 75 -147q61 -27 125 -9q12 4 49 27t60 25q27 2 48 -22.5t21 -51.5q-2 -43 -73 -86q-25 -16 -58 -33q-23 -20 -36 -61q0 -18 -2 -27q-4 -37 -30 -60.5t-67 -19.5q-61 8 -73 80q-25 51 -52 82q-59 33 -108 109q-39 67 -39 161z" />
<glyph unicode="&#xa3;" horiz-adv-x="792" d="M33 119q2 25 33 55q31 25 67 76q8 18 19 59q4 57 -25 76q-74 12 -74 78q0 57 49 78q41 41 56 104q0 59 4 88q10 125 65.5 233.5t155.5 166.5q51 29 92 28q57 0 98 -43t48 -112q6 -78 -24 -163t-93 -116l-29 -20q-23 -12 -51.5 7t-26.5 43.5t43 76.5q31 37 40 91t-34 60 q-14 0 -25 -6t-21.5 -17.5t-17.5 -22.5t-14.5 -30.5t-11.5 -31t-10 -31t-8 -25.5q-25 -70 -25 -170q12 -61 78 -76q10 0 30.5 1.5t33.5 1.5q6 0 43 5t57 5q47 0 66 -23q16 -23 16 -71q0 -68 -51 -70l-72 -8q-72 0 -104 -4q-72 -20 -84 -68q0 -49 6 -63q23 -49 57 -66 q41 -20 43 -22q14 -4 28.5 -15.5t28.5 -15.5q51 -16 144 18q45 20 76 21q37 0 53 -39q20 -51 -26 -88t-111 -54q-55 -14 -119 -14q-68 0 -170 23l-27 6q-12 4 -36.5 11t-36.5 11q-8 4 -15 9q-33 2 -80 -19q-45 -20 -78 -8q-12 4 -23 34t-7 46z" />
<glyph unicode="&#xa5;" horiz-adv-x="696" d="M49 291q-2 74 86 92q41 8 62 10q53 20 55 47q2 20 -15.5 30.5t-41.5 10.5q-90 -16 -117 17q-18 18 -19 75q0 61 50 68l49 6q41 18 41 68q-29 111 -68 229q-33 92 -33 148q0 68 43 88q94 49 135 -99q6 -23 19.5 -66.5t17.5 -64.5q0 -4 4.5 -24.5t7.5 -32.5t10 -26.5 t17 -18.5q10 -6 18.5 -2t13.5 10t10 18.5t7 21.5t5.5 20.5t5.5 15.5q20 51 45 158q16 82 47 96q23 8 98 -21q41 -20 23 -94q-27 -117 -33 -141q-4 -18 -17.5 -51t-17.5 -43q-4 -18 -20 -76q2 -43 30 -66q72 -10 74 -73q4 -72 -82 -95q-31 -8 -51 -10q-41 -20 -45 -57 q-4 -20 11 -30.5t40 -12.5q78 8 102 -21q16 -27 17 -73q0 -68 -51 -70l-72 -6h-18q-43 -14 -54 -43q4 -106 -32 -156q-37 -53 -103 -55q-33 -2 -54.5 14.5t-19.5 46.5q0 86 4 121q-8 35 -34 43q-6 0 -19.5 -1t-19.5 -1q-111 -8 -111 76z" />
<glyph unicode="&#xa8;" horiz-adv-x="550" d="M68 1299.5q2 27.5 12 48.5q16 31 41 38q29 10 59 0q31 -12 43 -43q18 -49 -4 -88q-31 -43 -72 -41q-53 0 -67 33l-4 8q-10 17 -8 44.5zM321.5 1311.5q2.5 27.5 12.5 48.5q16 31 41 39q29 10 59 0q31 -12 43 -43q18 -49 -4 -88q-31 -43 -72 -41q-53 0 -67 33l-4 8 q-11 16 -8.5 43.5z" />
<glyph unicode="&#xa9;" horiz-adv-x="1263" d="M49 559q0 139 64 266q72 145 235 246q190 117 383 98l14 -2q51 0 162 -66.5t162 -113.5q72 -68 108.5 -179.5t36.5 -229.5q0 -76 -16 -152q-45 -182 -157.5 -304t-286.5 -138q-61 -6 -125 -7q-297 0 -443 152q-84 90 -125 301q-12 66 -12 129zM217 565q0 -45 6 -92 q12 -109 107 -197q137 -131 319 -131q125 0 230.5 69t156.5 196q27 72 27 147q0 137 -90 287q-35 59 -144 104q-16 8 -64 20.5t-54 8.5l-19 4q-137 4 -264 -62.5t-180 -185.5q-31 -70 -31 -168zM406 510q0 45 10 96q25 135 102 209q51 45 94 51q131 8 166 -12 q43 -25 57.5 -78t2.5 -100l-4 -19q-2 -29 -39 -40t-64 6q-14 8 -16 26.5t-1 35.5t-16.5 30.5t-58.5 15.5q-39 2 -71.5 -60.5t-32.5 -131.5q0 -92 61 -121q47 -23 98 -6q12 4 42 21.5t46 19.5q23 2 40.5 -18.5t15.5 -41.5q0 -37 -58 -69q-88 -61 -188 -56q-47 2 -89 35 t-67 76q-30 53 -30 131z" />
<glyph unicode="&#xaa;" horiz-adv-x="735" d="M41 256q0 68 14 117q35 119 205 289q27 29 89 52q53 20 91 20q7 0 13 -1q14 -2 45.5 -9t54.5 -7q29 0 61 8q27 8 58 -19q26 -23 25 -59q0 -7 -1 -14q-6 -49 -32 -152q-20 -119 -21 -219q0 -25 4 -61q0 -2 14.5 -63.5t14.5 -94.5q0 -47 -29 -68q-23 -16 -45 -16 q-37 0 -74 45q-10 12 -21 31.5t-15.5 26t-19.5 12.5t-34 -6q-14 -6 -59 -30t-86 -39t-78 -15q-70 0 -115 59q-59 80 -59 213zM215 225q10 -45 53 -45q35 0 78 25.5t68 52.5q4 6 14 16l14 17q4 4 19.5 42t26.5 87q5 22 5 40q0 24 -8 44q-14 35 -43 35q-9 0 -19 -3 q-44 -13 -84 -43t-54 -53q-74 -105 -74 -180q0 -19 4 -35z" />
<glyph unicode="&#xad;" d="M66 510q0 61 49 68l69 10q76 2 189.5 20.5t161.5 22.5q111 12 112 -72q6 -76 -82 -94q-45 -12 -95 -18.5t-120.5 -11.5t-97.5 -7q-8 0 -48 -7t-61 -7q-41 0 -59 20q-18 19 -18 76z" />
<glyph unicode="&#xae;" horiz-adv-x="1271" d="M51 559q0 139 64 266q72 145 235 246q190 117 383 98l15 -2q51 0 161.5 -66.5t161.5 -113.5q72 -68 109 -179.5t37 -229.5q0 -76 -17 -152q-45 -182 -157.5 -304t-286.5 -138q-61 -6 -125 -7q-297 0 -443 152q-84 90 -125 301q-12 66 -12 129zM219 565q0 -45 6 -92 q12 -109 107 -197q137 -131 319 -131q125 0 230.5 69t156.5 196q27 72 27 147q0 137 -90 287q-35 59 -144 104q-16 8 -64 20.5t-54 8.5l-19 4q-137 4 -264 -62.5t-180 -185.5q-31 -70 -31 -168zM459 846q0 27 35 43q25 16 67 16q39 0 92 -16q70 -23 125.5 -83.5t42.5 -127.5 q-6 -41 -69 -117q-29 -35 -25 -61q4 -23 21 -64q10 -25 31.5 -65.5t27.5 -53.5q20 -49 14 -59q-6 -12 -25.5 -12t-29.5 6q-18 10 -31.5 27.5t-29 45t-21.5 35.5q-6 10 -16.5 33t-18.5 33q-2 2 -7 10t-8 11.5t-11.5 8.5t-14.5 -1q-10 -18 -10 -58q0 -8 3 -68.5t-1 -68.5 q-8 -33 -45 -33q-35 0 -41 31t-2 70q2 14 0 44.5t-2 41.5v92q-2 33 -2 104v15q0 4 -1 20.5t-1 22.5q0 8 1 23.5t1 23.5q0 72 -21 88q-16 12 -20 18q-8 13 -8 25zM596 698q0 -6 1 -29.5t2 -35.5t11.5 -23.5t28.5 -9.5q31 4 52.5 24.5t25.5 51.5q4 72 -49 98q-33 14 -58 4 q-20 -10 -14 -53q0 -12 2 -18z" />
<glyph unicode="&#xb2;" horiz-adv-x="624" d="M37 111q0 53 39 92q137 141 221 297q6 12 29.5 55t35 64.5t26.5 57.5t22.5 66.5t7.5 61.5q0 37 -17 80q-20 51 -66 75.5t-91 0.5q-41 -20 -41 -80q0 -23 8 -68t8 -49q12 -76 -76 -127q-41 -23 -61.5 -2.5t-20.5 65.5l-2 15q-20 47 -20 155q0 57 10 88q35 98 123 148 q66 37 141 37q150 0 226 -117q47 -70 47 -168q0 -106 -68 -280q-55 -137 -98 -199q-16 -23 -43 -54.5t-47.5 -60t-22.5 -47t15.5 -27t39 -10.5t58.5 -2q147 0 168 -20q31 -37 3 -91.5t-71 -64.5q-49 -6 -78.5 -4t-85 9t-77.5 9q-18 2 -62.5 -4t-64.5 -6q-53 0 -80 25 q-35 33 -35 80z" />
<glyph unicode="&#xb3;" horiz-adv-x="608" d="M39 946l2 21q10 66 78.5 121t140.5 69q31 6 59 6q111 0 179 -73q72 -72 71 -201q0 -47 -12 -84q-4 -12 -9 -29.5t-8 -29t-10.5 -25.5t-17.5 -27q-53 -61 -37 -94q37 -78 45 -88q45 -57 41 -145q0 -109 -22 -172q-29 -96 -115 -162q-61 -45 -133 -45q-76 0 -131 47 q-123 102 -117 229q4 49 45 64q51 18 80 -11q12 -12 45 -71.5t70 -71.5q23 -6 48 7.5t36 35.5q14 37 14 105q4 145 -88 194q-10 6 -44 7t-42 18q-14 25 -14 69.5t18 61.5q8 6 77.5 37.5t86.5 81.5q16 45 16 86q0 90 -90 104q-74 12 -94 -43q-4 -12 -9 -44t-12 -46 q-16 -35 -62 -50.5t-67 21.5q-36 86 -18 127z" />
<glyph unicode="&#xb4;" horiz-adv-x="657" d="M90 1120.5q-6 30.5 25 50.5l59 39q70 33 164 99.5t135 89.5q39 25 70 24q41 0 63 -41q33 -63 -35 -122q-37 -29 -78.5 -55.5t-106 -61.5t-85.5 -47q-8 -4 -25.5 -18.5t-30 -22.5t-32.5 -19.5t-32.5 -10.5t-30.5 5q-14 6 -34 33t-26 57.5z" />
<glyph unicode="&#xb8;" horiz-adv-x="512" d="M50 -364.5q-7 34.5 9 59.5q6 10 12.5 16t15.5 8t16.5 3.5t19.5 -2t17 -4.5t18.5 -5t17.5 -6q27 -10 70 -10q45 0 67 16q29 18 24 54t-36 47q-16 12 -71.5 1.5t-73.5 -8.5q-78 8 -68 91q0 8 8 55t6 76q0 12 -3 32.5t-3 30.5q0 43 35 66q27 16 57 16q45 0 62 -39 q6 -27 5 -49.5t-5 -61t-4 -51.5q0 -10 10 -18q12 -8 74 -2q51 0 69 -8q49 -20 72 -103q6 -25 6 -59q0 -61 -22.5 -119.5t-67.5 -79.5q-53 -29 -147 -24q-125 6 -154 24.5t-36 53z" />
<glyph unicode="&#xb9;" horiz-adv-x="391" d="M22.5 934q12.5 39 47.5 61q76 51 114 107q61 82 125 33q33 -25 33 -86q0 -10 -2 -32t-2 -30q-8 -131 -8 -199q-2 -45 6 -133l-2 -73q0 -203 -8 -344q-2 -29 3 -78t5 -74q-2 -39 -20.5 -63.5t-53.5 -22.5q-94 4 -94 195q0 43 4 88q4 70 6 197.5t4 168.5q6 98 6 107 q0 39 -8 65q-12 35 -37.5 36t-50 -10t-51.5 13q-29 35 -16.5 74z" />
<glyph unicode="&#xba;" horiz-adv-x="661" d="M41 373q0 147 70 241q59 86 149 117q31 10 68 10q14 0 96 -10l27 -14q14 -2 30.5 -27.5t22.5 -32.5q119 -104 119 -272q0 -160 -103 -285q-43 -51 -130 -81q-52 -18 -94 -17q-29 0 -54 8q-80 29 -131.5 101.5t-63.5 160.5q-6 52 -6 101zM199 346q0 -51 14 -88 q20 -51 60 -77q21 -14 45 -13q20 0 42 10q49 20 72 86q6 20 14 62q2 8 4.5 27.5t4.5 27.5v27q1 11 1 20q0 38 -18 72q-25 47 -59 65q-18 9 -37 9q-24 0 -48 -16q-42 -28 -65 -75q-30 -57 -30 -137z" />
<glyph unicode="&#xbf;" horiz-adv-x="671" d="M47 311q0 37 6 78q23 199 195 268q33 14 44 19.5t29.5 22t28.5 39t10 73.5q-4 51 5 70q14 33 49 38t61 -20q31 -31 31 -137q0 -170 -144 -221q-76 -27 -111.5 -73t-43.5 -126q-8 -86 44 -138t124 -16q66 33 82 91q4 14 -2 82.5t12 80.5q25 33 68 33q49 0 59 -57v-8 q0 -18 1 -56.5t1 -58.5q0 -147 -82 -207q-96 -70 -213 -70q-90 0 -160 45q-14 10 -24.5 20.5t-19.5 29t-12 25.5t-11 33t-11 30q-16 61 -16 110zM322 1155q8 31 36.5 51.5t59.5 18.5q41 -2 56 -45t-1 -76q-14 -33 -48 -52.5t-65 3.5l-8 4l-6 6q-6 8 -12 17.5t-8 13.5 q-12 34 -4 59z" />
<glyph unicode="&#xc0;" horiz-adv-x="671" d="M-78 1559q41 57 123 24q33 -14 72 -35.5t65.5 -38t70.5 -45t64 -41.5l45 -22q41 -20 61.5 -40t20.5 -44q4 -29 -30.5 -76t-77.5 -20l-62 34q-61 45 -161.5 98.5t-143.5 80.5q-94 55 -47 125zM18 104q0 31 6.5 66t19.5 81t15 54q8 43 43 210t56 257q4 25 17 100.5 t24 116.5q25 131 100 158q25 8 46.5 8t36.5 -5t28.5 -18.5t22.5 -26.5t16.5 -34.5t11.5 -38t8 -42t5 -40t4 -38t3 -31.5q4 -45 20.5 -128t20.5 -118q10 -59 20.5 -108.5t14.5 -67.5l23 -86q2 -12 16 -64q6 -27 24.5 -85t24.5 -89q6 -45 -25.5 -90t-82.5 -39 q-27 4 -42.5 20.5t-20.5 29t-10 42t-7 37.5q-23 84 -135 74q-59 -6 -86 -29.5t-33 -75.5q-8 -55 -30.5 -89.5t-72.5 -22.5q-82 18 -82 112zM266 483q0 -57 17 -69q10 -8 69 -2q31 4 39 37q2 16 -1 47.5t-3 42.5l-2 18q-6 51 -8 59.5t-6 23.5t-6 24q-10 55 -33 67 q-41 25 -56 -104q-2 -8 -4 -41q-2 -16 -4 -51.5t-2 -51.5z" />
<glyph unicode="&#xc1;" horiz-adv-x="671" d="M18 104q0 31 6.5 66t19.5 81t15 54q8 43 43 210t56 257q4 25 17 100.5t24 116.5q25 131 100 158q25 8 46.5 8t36.5 -5t28.5 -18.5t22.5 -26.5t16.5 -34.5t11.5 -38t8 -42t5 -40t4 -38t3 -31.5q4 -45 20.5 -128t20.5 -118q10 -59 20.5 -108.5t14.5 -67.5l23 -86 q2 -12 16 -64q6 -27 24.5 -85t24.5 -89q6 -45 -25.5 -90t-82.5 -39q-27 4 -42.5 20.5t-20.5 29t-10 42t-7 37.5q-23 84 -135 74q-59 -6 -86 -29.5t-33 -75.5q-8 -55 -30.5 -89.5t-72.5 -22.5q-82 18 -82 112zM211 1286q-6 31 25 51l59 39q70 33 164 99.5t135 89.5 q39 25 70 24q41 0 63 -41q33 -63 -35 -123q-37 -29 -79 -55.5t-106.5 -61t-84.5 -46.5q-8 -4 -25.5 -18.5t-30 -23t-33 -19.5t-32.5 -10t-31 5q-14 6 -33.5 32.5t-25.5 57.5zM266 483q0 -57 17 -69q10 -8 69 -2q31 4 39 37q2 16 -1 47.5t-3 42.5l-2 18q-6 51 -8 59.5 t-6 23.5t-6 24q-10 55 -33 67q-41 25 -56 -104q-2 -8 -4 -41q-2 -16 -4 -51.5t-2 -51.5z" />
<glyph unicode="&#xc2;" horiz-adv-x="671" d="M18 104q0 31 6.5 66t19.5 81t15 54q8 43 43 210t56 257q4 25 17 100.5t24 116.5q25 131 100 158q25 8 46.5 8t36.5 -5t28.5 -18.5t22.5 -26.5t16.5 -34.5t11.5 -38t8 -42t5 -40t4 -38t3 -31.5q4 -45 20.5 -128t20.5 -118q10 -59 20.5 -108.5t14.5 -67.5l23 -86 q2 -12 16 -64q6 -27 24.5 -85t24.5 -89q6 -45 -25.5 -90t-82.5 -39q-27 4 -42.5 20.5t-20.5 29t-10 42t-7 37.5q-23 84 -135 74q-59 -6 -86 -29.5t-33 -75.5q-8 -55 -30.5 -89.5t-72.5 -22.5q-82 18 -82 112zM88 1274q0 20 14.5 46t35 55.5t26.5 43.5q6 12 19.5 44 t25.5 54.5t29 41.5q27 27 72.5 43t76.5 -3q25 -18 41 -46.5t34.5 -75.5t31.5 -72q6 -10 20 -31.5t23.5 -39t17.5 -38t7 -40t-13 -35.5q-25 -29 -64 -29q-41 0 -65 33q-14 18 -27.5 66t-25.5 67q-37 57 -84 -35q-8 -14 -21 -43q-39 -80 -57 -86q-37 -12 -77 14.5t-40 65.5z M266 483q0 -57 17 -69q10 -8 69 -2q31 4 39 37q2 16 -1 47.5t-3 42.5l-2 18q-6 51 -8 59.5t-6 23.5t-6 24q-10 55 -33 67q-41 25 -56 -104q-2 -8 -4 -41q-2 -16 -4 -51.5t-2 -51.5z" />
<glyph unicode="&#xc3;" horiz-adv-x="671" d="M-16 1253q-2 45 59 107q102 111 182 110q35 0 60 -22q6 -6 27.5 -25.5t37 -32t31.5 -20.5q61 -25 123 10q12 6 38.5 33t45.5 33q31 10 52.5 -10.5t27.5 -51.5q16 -61 -35 -106t-123 -70q-78 -25 -137 -12q-59 10 -97 57q-45 55 -90 35q-20 -8 -48.5 -39.5t-45.5 -42.5 q-31 -20 -68.5 -7t-39.5 54zM18 104q0 31 6.5 66t19.5 81t15 54q8 43 43 210t56 257q4 25 17 100.5t24 116.5q25 131 100 158q25 8 46.5 8t36.5 -5t28.5 -18.5t22.5 -26.5t16.5 -34.5t11.5 -38t8 -42t5 -40t4 -38t3 -31.5q4 -45 20.5 -128t20.5 -118q10 -59 20.5 -108.5 t14.5 -67.5l23 -86q2 -12 16 -64q6 -27 24.5 -85t24.5 -89q6 -45 -25.5 -90t-82.5 -39q-27 4 -42.5 20.5t-20.5 29t-10 42t-7 37.5q-23 84 -135 74q-59 -6 -86 -29.5t-33 -75.5q-8 -55 -30.5 -89.5t-72.5 -22.5q-82 18 -82 112zM266 483q0 -57 17 -69q10 -8 69 -2 q31 4 39 37q2 16 -1 47.5t-3 42.5l-2 18q-6 51 -8 59.5t-6 23.5t-6 24q-10 55 -33 67q-41 25 -56 -104q-2 -8 -4 -41q-2 -16 -4 -51.5t-2 -51.5z" />
<glyph unicode="&#xc4;" horiz-adv-x="671" d="M18 104q0 31 6.5 66t19.5 81t15 54q8 43 43 210t56 257q4 25 17 100.5t24 116.5q25 131 100 158q25 8 46.5 8t36.5 -5t28.5 -18.5t22.5 -26.5t16.5 -34.5t11.5 -38t8 -42t5 -40t4 -38t3 -31.5q4 -45 20.5 -128t20.5 -118q10 -59 20.5 -108.5t14.5 -67.5l23 -86 q2 -12 16 -64q6 -27 24.5 -85t24.5 -89q6 -45 -25.5 -90t-82.5 -39q-27 4 -42.5 20.5t-20.5 29t-10 42t-7 37.5q-23 84 -135 74q-59 -6 -86 -29.5t-33 -75.5q-8 -55 -30.5 -89.5t-72.5 -22.5q-82 18 -82 112zM121 1262.5q2 27.5 12 48.5q16 31 41 39q29 10 59 0 q31 -12 43 -43q18 -49 -4 -88q-31 -43 -71 -41q-53 0 -68 32l-4 9q-10 16 -8 43.5zM266 483q0 -57 17 -69q10 -8 69 -2q31 4 39 37q2 16 -1 47.5t-3 42.5l-2 18q-6 51 -8 59.5t-6 23.5t-6 24q-10 55 -33 67q-41 25 -56 -104q-2 -8 -4 -41q-2 -16 -4 -51.5t-2 -51.5z M375 1275q2 28 12 48q16 31 41 39q29 10 59 0q31 -12 43 -43q18 -49 -4 -88q-31 -43 -71 -41q-53 0 -68 33l-4 8q-10 16 -8 44z" />
<glyph unicode="&#xc5;" horiz-adv-x="671" d="M18 104q0 31 6.5 66t19.5 81t15 54q8 43 43 210t56 257q4 25 17 100.5t24 116.5q25 131 100 158q25 8 46.5 8t36.5 -5t28.5 -18.5t22.5 -26.5t16.5 -34.5t11.5 -38t8 -42t5 -40t4 -38t3 -31.5q4 -45 20.5 -128t20.5 -118q10 -59 20.5 -108.5t14.5 -67.5l23 -86 q2 -12 16 -64q6 -27 24.5 -85t24.5 -89q6 -45 -25.5 -90t-82.5 -39q-27 4 -42.5 20.5t-20.5 29t-10 42t-7 37.5q-23 84 -135 74q-59 -6 -86 -29.5t-33 -75.5q-8 -55 -30.5 -89.5t-72.5 -22.5q-82 18 -82 112zM115 1407q12 49 53 86t92 49t100 12q66 0 113 -26q55 -31 80 -82 q14 -33 14 -74l-6 -31q-2 -8 -18.5 -24.5t-18.5 -22.5q-61 -92 -186 -92q-84 0 -150 45q-33 20 -57 70.5t-16 89.5zM254 1348q14 -20 45 -27q4 -2 14.5 -3t14.5 -1q6 -2 24 -2h2q33 0 54 14q23 12 28 31q8 23 -7 41t-40 24q-61 23 -106 -4q-54 -28 -29 -73zM266 483 q0 -57 17 -69q10 -8 69 -2q31 4 39 37q2 16 -1 47.5t-3 42.5l-2 18q-6 51 -8 59.5t-6 23.5t-6 24q-10 55 -33 67q-41 25 -56 -104q-2 -8 -4 -41q-2 -16 -4 -51.5t-2 -51.5z" />
<glyph unicode="&#xc6;" horiz-adv-x="970" d="M-80 74q0 33 12.5 70.5t40 98t27.5 62.5q27 66 86 224.5t94 242.5q10 27 36 101.5t42 115.5q51 131 129 158q57 16 90 -2q27 6 60 6q39 0 84 -4q18 0 78.5 -4t93.5 -4q10 0 31.5 1t31.5 1q47 0 74 -15q23 -12 29 -41.5t-7 -54.5q-2 -8 -7 -13t-12 -8t-13.5 -6.5 t-16.5 -4.5t-15 -1t-17.5 -1t-14.5 -1h-65q-53 0 -80 -4q-2 0 -19.5 -2t-22.5 -2t-21.5 -3t-24 -6t-18.5 -8t-17 -12.5t-10 -15.5q-12 -8 -9.5 -71.5t2.5 -75.5q-6 -106 4 -129q12 -33 24.5 -42.5t43.5 -9.5q121 0 180 -2q29 -2 42.5 -3t26.5 -13t13 -37q-4 -66 -45 -78 q-27 -8 -131 -18t-147 -45q-29 -25 -25 -117q6 -76 41 -102q20 -16 115 -2q141 18 143 18q59 0 55 -72q0 -47 -67 -65q-12 -4 -65.5 -18.5t-84.5 -20.5q-23 -6 -67 -14l-68 -13q-6 -2 -21.5 -9t-25.5 -9q-25 -4 -53 8q-2 0 -10 4q-14 -4 -27 0q-25 4 -38 20.5t-15 28 t-2 42.5v38q-6 47 -36 62.5t-87 11.5q-61 -6 -91 -29.5t-44 -75.5q-47 -131 -123 -112q-66 14 -66 82zM238 483q-10 -55 4 -69q8 -8 67 -2q33 4 47 37q4 16 6.5 48.5t4.5 41.5l2 18q0 4 2 26.5t0 32.5q0 14 -4 48q0 55 -21 67q-14 10 -29.5 -4t-28 -51t-16.5 -51.5 t-10 -38.5z" />
<glyph unicode="&#xc7;" horiz-adv-x="679" d="M23 559q0 39 6 80q31 213 88 338q37 74 97 131t132 70q63 14 119 -19q16 -10 47 -45q2 -2 13.5 -17.5t19.5 -19.5l18 -20q12 -14 29 -58q16 -39 16 -79q-4 -51 -31.5 -85t-70.5 1q-25 20 -55 86q-27 49 -74 41q-43 -6 -78 -48.5t-47 -74t-31 -88.5q-33 -104 -28 -215 q0 -121 34 -218q2 -8 11.5 -32.5t13.5 -33.5t12 -26.5t18.5 -30t24.5 -24.5q53 -45 92 -29q41 16 68 93t49 98q37 35 88 10q47 -20 43 -90q-8 -160 -102 -234q-72 -53 -158 -57q-2 -14 -2 -39q0 -10 10 -18q12 -8 74 -2q51 0 70 -8q49 -20 71 -103q6 -25 6 -59 q0 -61 -22.5 -119.5t-67.5 -79.5q-53 -29 -147 -24q-125 6 -153.5 24.5t-36 53t9.5 59.5q6 10 12 16t15.5 8t16.5 3t19 -2t17.5 -4t18.5 -5t17 -6q27 -10 70 -10q45 0 68 16q29 18 23.5 54t-36.5 46q-16 12 -71.5 2t-73.5 -8q-78 8 -68 90q0 8 8.5 55.5t6.5 76.5q0 12 -2 18 q-51 27 -84 84q-49 86 -90 184q-25 57 -37 201q-6 45 -6 92z" />
<glyph unicode="&#xc8;" horiz-adv-x="624" d="M-29 1544q41 57 123 25q33 -14 72 -36t65.5 -38t70.5 -45t65 -41l45 -23q41 -20 61.5 -39.5t20.5 -43.5q4 -29 -31 -76t-78 -21l-61 35q-61 45 -162 98.5t-144 79.5q-94 55 -47 125zM49 838l4 26q0 27 -1 73t-1 69q0 47 2 71q8 74 123 74q37 0 86 -4q18 0 78.5 -4 t93.5 -4q10 0 31.5 1t32.5 1q47 0 73 -15q23 -12 29 -41.5t-6 -54.5q-2 -8 -7 -13t-12.5 -8t-13.5 -6.5t-16 -4.5t-15.5 -1t-17.5 -1t-14 -1h-66q-53 0 -80 -4q-2 0 -19.5 -2t-22.5 -2t-21.5 -3t-23.5 -6t-18 -8t-17.5 -12.5t-10.5 -15.5q-12 -8 -9 -71.5t3 -75.5 q-6 -106 4 -129q12 -33 24.5 -42.5t43.5 -9.5q121 0 180 -2q29 -2 42 -3t26.5 -13t13.5 -37q-4 -66 -45 -78q-27 -8 -131.5 -18t-147.5 -45q-29 -25 -24 -117q6 -76 41 -102q20 -16 114 -2q141 18 144 18q59 0 55 -72q0 -47 -68 -65q-12 -4 -65 -18.5t-84 -20.5 q-23 -6 -68 -14l-67 -13q-6 -2 -21.5 -9t-25.5 -9q-27 -4 -54 8q-45 16 -45 88q0 41 -2 127t-2 127q0 63 2 94q4 90 4 137q0 31 -4 89q-2 16 -2 100q0 68 -2 74z" />
<glyph unicode="&#xc9;" horiz-adv-x="624" d="M49 838l4 26q0 27 -1 73t-1 69q0 47 2 71q8 74 123 74q37 0 86 -4q18 0 78.5 -4t93.5 -4q10 0 31.5 1t32.5 1q47 0 73 -15q23 -12 29 -41.5t-6 -54.5q-2 -8 -7 -13t-12.5 -8t-13.5 -6.5t-16 -4.5t-15.5 -1t-17.5 -1t-14 -1h-66q-53 0 -80 -4q-2 0 -19.5 -2t-22.5 -2 t-21.5 -3t-23.5 -6t-18 -8t-17.5 -12.5t-10.5 -15.5q-12 -8 -9 -71.5t3 -75.5q-6 -106 4 -129q12 -33 24.5 -42.5t43.5 -9.5q121 0 180 -2q29 -2 42 -3t26.5 -13t13.5 -37q-4 -66 -45 -78q-27 -8 -131.5 -18t-147.5 -45q-29 -25 -24 -117q6 -76 41 -102q20 -16 114 -2 q141 18 144 18q59 0 55 -72q0 -47 -68 -65q-12 -4 -65 -18.5t-84 -20.5q-23 -6 -68 -14l-67 -13q-6 -2 -21.5 -9t-25.5 -9q-27 -4 -54 8q-45 16 -45 88q0 41 -2 127t-2 127q0 63 2 94q4 90 4 137q0 31 -4 89q-2 16 -2 100q0 68 -2 74zM139 1292.5q-6 30.5 25 50.5l59 39 q70 33 164 99.5t135 89.5q39 25 70 24q41 0 63 -41q33 -63 -34 -122q-37 -29 -79 -55.5t-106.5 -61.5t-85.5 -47q-8 -4 -25.5 -18.5t-29.5 -22.5t-32.5 -19.5t-33 -10.5t-30.5 5q-14 6 -34 33t-26 57.5z" />
<glyph unicode="&#xca;" horiz-adv-x="624" d="M49 838l4 26q0 27 -1 73t-1 69q0 47 2 71q8 74 123 74q37 0 86 -4q18 0 78.5 -4t93.5 -4q10 0 31.5 1t32.5 1q47 0 73 -15q23 -12 29 -41.5t-6 -54.5q-2 -8 -7 -13t-12.5 -8t-13.5 -6.5t-16 -4.5t-15.5 -1t-17.5 -1t-14 -1h-66q-53 0 -80 -4q-2 0 -19.5 -2t-22.5 -2 t-21.5 -3t-23.5 -6t-18 -8t-17.5 -12.5t-10.5 -15.5q-12 -8 -9 -71.5t3 -75.5q-6 -106 4 -129q12 -33 24.5 -42.5t43.5 -9.5q121 0 180 -2q29 -2 42 -3t26.5 -13t13.5 -37q-4 -66 -45 -78q-27 -8 -131.5 -18t-147.5 -45q-29 -25 -24 -117q6 -76 41 -102q20 -16 114 -2 q141 18 144 18q59 0 55 -72q0 -47 -68 -65q-12 -4 -65 -18.5t-84 -20.5q-23 -6 -68 -14l-67 -13q-6 -2 -21.5 -9t-25.5 -9q-27 -4 -54 8q-45 16 -45 88q0 41 -2 127t-2 127q0 63 2 94q4 90 4 137q0 31 -4 89q-2 16 -2 100q0 68 -2 74zM55 1290q0 20 14.5 46t35 55.5 t26.5 44.5q6 12 19.5 43.5t25.5 54t29 41.5q27 27 73 43t76 -2q25 -18 41.5 -47t35 -76t30.5 -72q6 -10 20.5 -31.5t23.5 -39t17 -38t7 -40t-13 -35.5q-25 -29 -63 -29q-41 0 -66 33q-14 18 -27.5 66.5t-25.5 66.5q-37 57 -84 -35q-8 -14 -21 -43q-39 -80 -57 -86 q-37 -12 -77 14.5t-40 65.5z" />
<glyph unicode="&#xcb;" horiz-adv-x="624" d="M49 838l4 26q0 27 -1 73t-1 69q0 47 2 71q8 74 123 74q37 0 86 -4q18 0 78.5 -4t93.5 -4q10 0 31.5 1t32.5 1q47 0 73 -15q23 -12 29 -41.5t-6 -54.5q-2 -8 -7 -13t-12.5 -8t-13.5 -6.5t-16 -4.5t-15.5 -1t-17.5 -1t-14 -1h-66q-53 0 -80 -4q-2 0 -19.5 -2t-22.5 -2 t-21.5 -3t-23.5 -6t-18 -8t-17.5 -12.5t-10.5 -15.5q-12 -8 -9 -71.5t3 -75.5q-6 -106 4 -129q12 -33 24.5 -42.5t43.5 -9.5q121 0 180 -2q29 -2 42 -3t26.5 -13t13.5 -37q-4 -66 -45 -78q-27 -8 -131.5 -18t-147.5 -45q-29 -25 -24 -117q6 -76 41 -102q20 -16 114 -2 q141 18 144 18q59 0 55 -72q0 -47 -68 -65q-12 -4 -65 -18.5t-84 -20.5q-23 -6 -68 -14l-67 -13q-6 -2 -21.5 -9t-25.5 -9q-27 -4 -54 8q-45 16 -45 88q0 41 -2 127t-2 127q0 63 2 94q4 90 4 137q0 31 -4 89q-2 16 -2 100q0 68 -2 74zM102 1283q2 28 13 48q16 31 41 39 q29 10 59 0q31 -12 43 -43q18 -49 -4 -88q-31 -43 -72 -41q-53 0 -67 33l-4 8q-11 16 -9 44zM356 1295.5q2 27.5 13 47.5q16 31 41 39q29 10 59 0q31 -12 43 -43q18 -49 -4 -88q-31 -43 -72 -41q-53 0 -67 33l-4 8q-11 17 -9 44.5z" />
<glyph unicode="&#xcc;" horiz-adv-x="591" d="M-145 1544q41 57 122 25q33 -14 72 -36t65.5 -38t70.5 -45t65 -41l45 -23q41 -20 61.5 -39.5t20.5 -43.5q4 -29 -31 -76t-78 -21l-61 35q-61 45 -161.5 98.5t-143.5 79.5q-94 55 -47 125zM35 1067q2 23 13 36t24.5 19t38.5 11q25 6 72.5 7t66.5 3q33 4 91 8t81 6 q92 8 119 -35q29 -49 14 -94q-4 -12 -9 -20.5t-16 -12.5l-15 -6q-5 -2 -22.5 -3t-21.5 -1q-2 0 -10 -1t-12.5 -2t-10.5 -2t-10 -2t-9 -3t-8 -5l-8 -7q-4 -4 -6 -9.5t-2 -11.5q-4 -20 -4 -63v-84q-10 -209 -10 -250q0 -37 4 -111t4 -110q0 -92 23 -138q18 -31 26 -34 q2 -6 38 -2t40 4q31 -2 48.5 -25t17.5 -51q0 -47 -41 -70q-33 -16 -107 -12q-23 2 -65.5 -1t-59.5 -3q-47 0 -55 2q-10 2 -30.5 -4t-30.5 -4h-25q-16 0 -27.5 -1t-26 3t-24.5 14q-20 18 -24.5 48t10.5 52q16 29 37 39q2 2 22.5 0t24.5 -2q31 0 43 13.5t16 44.5q6 33 8 97 t2 77q6 70 7 209v165l-3 13v43q0 57 -16 104q-8 23 -12 31t-15.5 16.5t-31.5 8.5q-8 0 -30 -1.5t-40 0t-29 9.5q-34 24 -24 98z" />
<glyph unicode="&#xcd;" horiz-adv-x="591" d="M35 1067q2 23 13 36t24.5 19t38.5 11q25 6 72.5 7t66.5 3q33 4 91 8t81 6q92 8 119 -35q29 -49 14 -94q-4 -12 -9 -20.5t-16 -12.5l-15 -6q-5 -2 -22.5 -3t-21.5 -1q-2 0 -10 -1t-12.5 -2t-10.5 -2t-10 -2t-9 -3t-8 -5l-8 -7q-4 -4 -6 -9.5t-2 -11.5q-4 -20 -4 -63v-84 q-10 -209 -10 -250q0 -37 4 -111t4 -110q0 -92 23 -138q18 -31 26 -34q2 -6 38 -2t40 4q31 -2 48.5 -25t17.5 -51q0 -47 -41 -70q-33 -16 -107 -12q-23 2 -65.5 -1t-59.5 -3q-47 0 -55 2q-10 2 -30.5 -4t-30.5 -4h-25q-16 0 -27.5 -1t-26 3t-24.5 14q-20 18 -24.5 48 t10.5 52q16 29 37 39q2 2 22.5 0t24.5 -2q31 0 43 13.5t16 44.5q6 33 8 97t2 77q6 70 7 209v165l-3 13v43q0 57 -16 104q-8 23 -12 31t-15.5 16.5t-31.5 8.5q-8 0 -30 -1.5t-40 0t-29 9.5q-34 24 -24 98zM119 1288q-6 31 24 51l60 39q70 33 164 99.5t135 89.5q39 25 69 24 q41 0 64 -41q33 -63 -35 -123q-37 -29 -79 -55t-106.5 -61t-84.5 -47q-8 -4 -25.5 -18.5t-30 -23t-33 -19.5t-32.5 -10t-31 5q-14 6 -33.5 32.5t-25.5 57.5z" />
<glyph unicode="&#xce;" horiz-adv-x="591" d="M35 1067q2 23 13 36t24.5 19t38.5 11q25 6 72.5 7t66.5 3q33 4 91 8t81 6q92 8 119 -35q29 -49 14 -94q-4 -12 -9 -20.5t-16 -12.5l-15 -6q-5 -2 -22.5 -3t-21.5 -1q-2 0 -10 -1t-12.5 -2t-10.5 -2t-10 -2t-9 -3t-8 -5l-8 -7q-4 -4 -6 -9.5t-2 -11.5q-4 -20 -4 -63v-84 q-10 -209 -10 -250q0 -37 4 -111t4 -110q0 -92 23 -138q18 -31 26 -34q2 -6 38 -2t40 4q31 -2 48.5 -25t17.5 -51q0 -47 -41 -70q-33 -16 -107 -12q-23 2 -65.5 -1t-59.5 -3q-47 0 -55 2q-10 2 -30.5 -4t-30.5 -4h-25q-16 0 -27.5 -1t-26 3t-24.5 14q-20 18 -24.5 48 t10.5 52q16 29 37 39q2 2 22.5 0t24.5 -2q31 0 43 13.5t16 44.5q6 33 8 97t2 77q6 70 7 209v165l-3 13v43q0 57 -16 104q-8 23 -12 31t-15.5 16.5t-31.5 8.5q-8 0 -30 -1.5t-40 0t-29 9.5q-34 24 -24 98zM47 1290q0 20 14.5 46t35 55.5t26.5 44.5q6 12 19.5 43.5t25.5 54 t29 41.5q27 27 72.5 43t76.5 -2q25 -18 41 -47t34.5 -76t31.5 -72q6 -10 20 -31.5t23.5 -39t17.5 -38t7 -40t-13 -35.5q-25 -29 -64 -29q-41 0 -65 33q-14 18 -27.5 66.5t-25.5 66.5q-37 57 -84 -35q-8 -14 -21 -43q-39 -80 -57 -86q-37 -12 -77 14.5t-40 65.5z" />
<glyph unicode="&#xcf;" horiz-adv-x="591" d="M35 1067q2 23 13 36t24.5 19t38.5 11q25 6 72.5 7t66.5 3q33 4 91 8t81 6q92 8 119 -35q29 -49 14 -94q-4 -12 -9 -20.5t-16 -12.5l-15 -6q-5 -2 -22.5 -3t-21.5 -1q-2 0 -10 -1t-12.5 -2t-10.5 -2t-10 -2t-9 -3t-8 -5l-8 -7q-4 -4 -6 -9.5t-2 -11.5q-4 -20 -4 -63v-84 q-10 -209 -10 -250q0 -37 4 -111t4 -110q0 -92 23 -138q18 -31 26 -34q2 -6 38 -2t40 4q31 -2 48.5 -25t17.5 -51q0 -47 -41 -70q-33 -16 -107 -12q-23 2 -65.5 -1t-59.5 -3q-47 0 -55 2q-10 2 -30.5 -4t-30.5 -4h-25q-16 0 -27.5 -1t-26 3t-24.5 14q-20 18 -24.5 48 t10.5 52q16 29 37 39q2 2 22.5 0t24.5 -2q31 0 43 13.5t16 44.5q6 33 8 97t2 77q6 70 7 209v165l-3 13v43q0 57 -16 104q-8 23 -12 31t-15.5 16.5t-31.5 8.5q-8 0 -30 -1.5t-40 0t-29 9.5q-34 24 -24 98zM82 1285q2 28 12 48q16 31 41 39q29 10 60 0q31 -12 43 -43 q18 -49 -5 -88q-31 -43 -71 -41q-53 0 -68 33l-4 8q-10 16 -8 44zM336 1297.5q2 27.5 12 48.5q16 31 41 38q29 10 60 0q31 -12 43 -43q18 -49 -5 -88q-31 -43 -71 -41q-53 0 -68 33l-4 8q-10 17 -8 44.5z" />
<glyph unicode="&#xd0;" horiz-adv-x="815" d="M8 516q0 61 49 68l70 10q47 0 90 6l-6 96v99l2 8q0 4 1 35.5t1 52.5q0 72 -10 94q-6 12 -22.5 31.5t-24.5 31t-12.5 32t12.5 38.5q31 47 92 47q31 0 92 -18.5t66 -18.5q143 -33 249 -155q147 -166 148 -395q0 -129 -49 -252q-76 -190 -252 -285q-115 -63 -193 -64 q-45 0 -65 29q-16 25 -17.5 60.5t2.5 62.5v61v127q0 59 -6 119q-4 0 -14 -1t-16 -1q-8 0 -48.5 -7t-60.5 -7q-41 0 -59 20q-19 19 -19 76zM369 698q0 -12 1 -36.5t1 -36.5v-2q39 6 106 14q111 12 113 -72q6 -76 -82 -94q-57 -16 -135 -22q0 -39 6 -80v-57q0 -54 9 -85.5 t32 -33.5q57 -2 153 124q66 80 60 191q0 18 4 59t2 64q-4 45 -27 110q-18 55 -53 106.5t-80 65.5q-59 25 -80 0q-14 -16 -24 -88q-6 -61 -6 -127z" />
<glyph unicode="&#xd1;" horiz-adv-x="704" d="M0 1288q-2 45 59 107q102 111 183 110q35 0 59 -22q6 -6 27.5 -25.5t37 -32t31.5 -20.5q61 -25 123 10q12 6 39 33t45 33q31 10 52.5 -10.5t27.5 -51.5q16 -61 -35 -106t-123 -70q-78 -25 -137 -12q-59 10 -96 57q-45 55 -90 35q-20 -8 -49 -40t-45 -42q-31 -20 -69 -7 t-40 54zM43 1034q-4 78 29 107q18 14 57 20t57 -8q20 -18 52 -96q10 -25 30.5 -83.5t34.5 -88.5q33 -74 41 -107l41 -98q37 -82 64 -55q8 8 9 32.5t-1 59.5t-2 39q0 20 2 86.5t0 103.5q0 16 -3 47t-4 47.5t1 46.5q2 29 19 54.5t46 32.5q23 6 52.5 -0.5t43.5 -24.5 q27 -33 19 -123q-6 -74 -6 -149q0 -53 2 -80q6 -88 13 -267.5t15 -267.5q4 -57 4 -90q0 -66 -8 -115q-4 -29 -23.5 -47t-47.5 -18q-53 0 -80 57q-12 25 -31.5 71t-28.5 64q-6 16 -67 131q-8 14 -21.5 46t-27 55.5t-29.5 40.5q-35 35 -41 35q-12 2 -18 -33q-2 -23 -5.5 -69 t-5.5 -68q-6 -63 4 -162q8 -82 -2 -117q-10 -29 -36.5 -52.5t-55.5 -23.5q-35 0 -51 37q-10 20 -16 117q-2 31 -5.5 91t-3.5 89v72q0 115 2 172q2 41 0 118.5t-2 112.5l-2 25q-2 18 -5 56t-3 42z" />
<glyph unicode="&#xd2;" d="M-31 1565q41 57 123 24q33 -14 72 -35.5t65.5 -38t70.5 -45t65 -40.5l45 -23q41 -20 61.5 -39.5t20.5 -44.5q4 -29 -31 -76t-78 -20l-61 35q-61 45 -162 98t-144 80q-94 55 -47 125zM49 522q-4 49 8 178l2 41q0 111 76 263q39 74 101.5 117.5t136.5 35.5q94 -8 141 -47 q45 -37 90 -162q59 -166 60 -313q0 -66 -9 -121q-2 -12 -10 -100t-18 -135q-29 -123 -84 -183q-102 -111 -201 -110q-43 0 -82 24q-145 94 -186 287q-17 84 -25 225zM215 520q0 -123 33 -213q41 -104 84 -123q57 -27 100 58q45 78 60 217q0 14 -1.5 52t1.5 54q2 14 3 51 t1 54l4 30q0 80 -32 166t-95 95q-111 12 -144 -256q-2 -10 -2 -15q-12 -111 -12 -170z" />
<glyph unicode="&#xd3;" d="M49 522q-4 49 8 178l2 41q0 111 76 263q39 74 101.5 117.5t136.5 35.5q94 -8 141 -47q45 -37 90 -162q59 -166 60 -313q0 -66 -9 -121q-2 -12 -10 -100t-18 -135q-29 -123 -84 -183q-102 -111 -201 -110q-43 0 -82 24q-145 94 -186 287q-17 84 -25 225zM205 1288 q-6 31 24 51l60 39q70 33 164 99.5t135 89.5q39 25 69 24q41 0 64 -41q33 -63 -35 -123q-37 -29 -79 -55t-106.5 -61t-84.5 -47q-8 -4 -25.5 -18.5t-30 -23t-33 -19.5t-32.5 -10t-31 5q-14 6 -33.5 32.5t-25.5 57.5zM215 520q0 -123 33 -213q41 -104 84 -123q57 -27 100 58 q45 78 60 217q0 14 -1.5 52t1.5 54q2 14 3 51t1 54l4 30q0 80 -32 166t-95 95q-111 12 -144 -256q-2 -10 -2 -15q-12 -111 -12 -170z" />
<glyph unicode="&#xd4;" d="M49 522q-4 49 8 178l2 41q0 111 76 263q39 74 101.5 117.5t136.5 35.5q94 -8 141 -47q45 -37 90 -162q59 -166 60 -313q0 -66 -9 -121q-2 -12 -10 -100t-18 -135q-29 -123 -84 -183q-102 -111 -201 -110q-43 0 -82 24q-145 94 -186 287q-17 84 -25 225zM119 1270 q0 20 14 45.5t34.5 55.5t27.5 44q6 12 19 44t25.5 54.5t28.5 40.5q27 27 73 43.5t77 -2.5q25 -18 41 -46.5t34.5 -76t30.5 -71.5q6 -10 20.5 -31.5t24 -39t17.5 -38t7 -40t-13 -35.5q-25 -29 -64 -29q-41 0 -65 33q-14 18 -27.5 66t-26.5 67q-37 57 -84 -35q-8 -14 -20 -43 q-39 -80 -57 -86q-37 -12 -77 14.5t-40 65.5zM215 520q0 -123 33 -213q41 -104 84 -123q57 -27 100 58q45 78 60 217q0 14 -1.5 52t1.5 54q2 14 3 51t1 54l4 30q0 80 -32 166t-95 95q-111 12 -144 -256q-2 -10 -2 -15q-12 -111 -12 -170z" />
<glyph unicode="&#xd5;" d="M10 1270q-2 45 60 106q102 111 182 111q35 0 59 -23q6 -6 27.5 -25.5t37 -31.5t32.5 -21q61 -25 122 11q12 6 39 32.5t45 32.5q31 10 52.5 -10t27.5 -51q16 -61 -35 -106.5t-122 -69.5q-78 -25 -138 -13q-59 10 -96 58q-45 55 -90 35q-20 -8 -49 -40t-45 -42 q-31 -20 -69 -7t-40 54zM49 522q-4 49 8 178l2 41q0 111 76 263q39 74 101.5 117.5t136.5 35.5q94 -8 141 -47q45 -37 90 -162q59 -166 60 -313q0 -66 -9 -121q-2 -12 -10 -100t-18 -135q-29 -123 -84 -183q-102 -111 -201 -110q-43 0 -82 24q-145 94 -186 287 q-17 84 -25 225zM215 520q0 -123 33 -213q41 -104 84 -123q57 -27 100 58q45 78 60 217q0 14 -1.5 52t1.5 54q2 14 3 51t1 54l4 30q0 80 -32 166t-95 95q-111 12 -144 -256q-2 -10 -2 -15q-12 -111 -12 -170z" />
<glyph unicode="&#xd6;" d="M49 522q-4 49 8 178l2 41q0 111 76 263q39 74 101.5 117.5t136.5 35.5q94 -8 141 -47q45 -37 90 -162q59 -166 60 -313q0 -66 -9 -121q-2 -12 -10 -100t-18 -135q-29 -123 -84 -183q-102 -111 -201 -110q-43 0 -82 24q-145 94 -186 287q-17 84 -25 225zM145 1272.5 q2 27.5 13 48.5q16 31 41 39q29 10 59 0q31 -12 43 -43q18 -49 -4 -88q-31 -43 -72 -41q-53 0 -67 33l-4 8q-11 16 -9 43.5zM215 520q0 -123 33 -213q41 -104 84 -123q57 -27 100 58q45 78 60 217q0 14 -1.5 52t1.5 54q2 14 3 51t1 54l4 30q0 80 -32 166t-95 95 q-111 12 -144 -256q-2 -10 -2 -15q-12 -111 -12 -170zM399 1285q2 28 13 48q16 31 41 39q29 10 59 0q31 -12 43 -43q18 -49 -4 -88q-31 -43 -72 -41q-53 0 -67 33l-4 8q-11 16 -9 44z" />
<glyph unicode="&#xd7;" horiz-adv-x="778" d="M98 74q-8 55 64 139q47 57 59 143q8 49 -37 117q-6 12 -23.5 34.5t-26.5 41t-13 41.5q-14 74 67 125q35 20 58.5 16t40 -26.5t26 -49t17.5 -53.5q2 -6 2 -10q14 -49 35 -60q4 -2 10 -4q14 -6 35 15q31 31 61 88q4 6 15.5 29.5t18.5 36t19.5 28.5t24.5 25q25 18 61.5 12 t55.5 -33q14 -20 15 -45t-11.5 -49.5t-25.5 -46t-29.5 -47t-24.5 -39.5l-12 -21q-18 -35 -34 -94t-5 -86q20 -57 84 -121q66 -70 34 -131q-33 -57 -122 -2q-37 23 -101 98q-6 8 -15 25.5t-13.5 24t-16.5 11.5t-26 -13q-16 -12 -34 -49.5t-22 -43.5l-15 -22.5t-15.5 -23.5 t-15.5 -19t-19 -17.5t-21.5 -8.5t-27.5 -3q-35 2 -50.5 5t-29 17.5t-17.5 45.5z" />
<glyph unicode="&#xd8;" d="M49 522q-4 49 8 178l2 41q0 111 76 263q39 74 101.5 117.5t136 35.5t112.5 -29q37 90 93 109q35 12 62.5 -9.5t23.5 -58.5q0 -18 -7.5 -39.5t-12.5 -34t-18.5 -40t-17.5 -33.5l-18 -37l14 -37q59 -166 60 -313q0 -66 -9 -121q-2 -12 -10 -100t-18 -135q-29 -123 -84 -183 q-102 -111 -201 -110q-43 0 -82 24q-20 12 -29 21q-10 -35 -26 -68q-20 -39 -52 -54t-69 3q-57 35 -31 123q6 23 15.5 47t22.5 53t20 45q-25 57 -37 117q-17 84 -25 225zM215 516q0 -45 2 -67l27 63q70 188 172 430q-25 16 -43 19q-111 12 -144 -256q-2 -10 -2 -15 q-12 -86 -12 -174zM291 219q16 -25 41 -35q57 -27 100 58q45 78 60 217q0 14 -1.5 52t1.5 54l4 105l4 30q0 4 -1 16.5t-1 20.5q-63 -176 -80 -215l-4 -16q-12 -27 -58.5 -133.5t-64.5 -153.5z" />
<glyph unicode="&#xd9;" horiz-adv-x="663" d="M-76 1548q41 57 123 25q33 -14 72 -35.5t65.5 -38t70.5 -45.5t64 -41l46 -22q41 -20 61 -40t20 -44q4 -29 -30.5 -76t-77.5 -21l-62 35q-61 45 -161.5 98.5t-143.5 79.5q-94 55 -47 125zM45 440q6 100 6 199q-4 61 -4 90q0 76 -2 82l6 20q2 10 -2 31t-4 23l6 123 q0 8 -1 36.5t2 48t14 35.5q29 49 94 46q31 0 47 -23t16 -53q0 -25 -5 -69t-5 -60q-2 -31 1 -88.5t3 -79.5q0 -43 3 -160t3 -176q0 -14 4 -41t4 -35q2 -29 0 -59q-4 -70 23 -115q12 -25 37.5 -45t48.5 -18q53 2 72 71q29 88 28 303q0 143 -10 318q-2 29 -8 86t-8 87t2 85 q4 31 35.5 52.5t66.5 21.5q47 0 64 -35q14 -29 20 -117q10 -90 8 -160q-2 -35 -2 -104q0 -117 15 -283q4 -61 4 -92q0 -131 -39 -238q-29 -80 -45 -100q-23 -31 -86 -55q-63 -23 -133 -23q-86 0 -154 41t-94 123q-12 39 -21 123q-12 96 -10 184z" />
<glyph unicode="&#xda;" horiz-adv-x="663" d="M45 440q6 100 6 199q-4 61 -4 90q0 76 -2 82l6 20q2 10 -2 31t-4 23l6 123q0 8 -1 36.5t2 48t14 35.5q29 49 94 46q31 0 47 -23t16 -53q0 -25 -5 -69t-5 -60q-2 -31 1 -88.5t3 -79.5q0 -43 3 -160t3 -176q0 -14 4 -41t4 -35q2 -29 0 -59q-4 -70 23 -115q12 -25 37.5 -45 t48.5 -18q53 2 72 71q29 88 28 303q0 143 -10 318q-2 29 -8 86t-8 87t2 85q4 31 35.5 52.5t66.5 21.5q47 0 64 -35q14 -29 20 -117q10 -90 8 -160q-2 -35 -2 -104q0 -117 15 -283q4 -61 4 -92q0 -131 -39 -238q-29 -80 -45 -100q-23 -31 -86 -55q-63 -23 -133 -23 q-86 0 -154 41t-94 123q-12 39 -21 123q-12 96 -10 184zM196.5 1296.5q-6.5 30.5 24.5 51.5l60 38q70 33 164 99.5t135 89.5q39 25 69 24q41 0 64 -40q33 -63 -35 -123q-37 -29 -79 -55.5t-106.5 -61.5t-84.5 -47q-8 -4 -25.5 -18.5t-30 -22.5t-33 -19.5t-33 -10.5t-30.5 5 q-14 6 -33.5 33t-26 57.5z" />
<glyph unicode="&#xdb;" horiz-adv-x="663" d="M45 440q6 100 6 199q-4 61 -4 90q0 76 -2 82l6 20q2 10 -2 31t-4 23l6 123q0 8 -1 36.5t2 48t14 35.5q29 49 94 46q31 0 47 -23t16 -53q0 -25 -5 -69t-5 -60q-2 -31 1 -88.5t3 -79.5q0 -43 3 -160t3 -176q0 -14 4 -41t4 -35q2 -29 0 -59q-4 -70 23 -115q12 -25 37.5 -45 t48.5 -18q53 2 72 71q29 88 28 303q0 143 -10 318q-2 29 -8 86t-8 87t2 85q4 31 35.5 52.5t66.5 21.5q47 0 64 -35q14 -29 20 -117q10 -90 8 -160q-2 -35 -2 -104q0 -117 15 -283q4 -61 4 -92q0 -131 -39 -238q-29 -80 -45 -100q-23 -31 -86 -55q-63 -23 -133 -23 q-86 0 -154 41t-94 123q-12 39 -21 123q-12 96 -10 184zM76 1294q0 20 14 46t34.5 55.5t27.5 44.5q6 12 19 44t25.5 54.5t28.5 40.5q27 27 73 43t77 -2q25 -18 41 -47t34.5 -76t30.5 -72q6 -10 20.5 -31.5t24 -39t17.5 -38t7 -40t-13 -35.5q-25 -29 -64 -29q-41 0 -65 33 q-14 18 -27.5 66.5t-26.5 66.5q-37 57 -84 -35q-8 -14 -20 -43q-39 -80 -57 -86q-37 -12 -77 14.5t-40 65.5z" />
<glyph unicode="&#xdc;" horiz-adv-x="663" d="M45 440q6 100 6 199q-4 61 -4 90q0 76 -2 82l6 20q2 10 -2 31t-4 23l6 123q0 8 -1 36.5t2 48t14 35.5q29 49 94 46q31 0 47 -23t16 -53q0 -25 -5 -69t-5 -60q-2 -31 1 -88.5t3 -79.5q0 -43 3 -160t3 -176q0 -14 4 -41t4 -35q2 -29 0 -59q-4 -70 23 -115q12 -25 37.5 -45 t48.5 -18q53 2 72 71q29 88 28 303q0 143 -10 318q-2 29 -8 86t-8 87t2 85q4 31 35.5 52.5t66.5 21.5q47 0 64 -35q14 -29 20 -117q10 -90 8 -160q-2 -35 -2 -104q0 -117 15 -283q4 -61 4 -92q0 -131 -39 -238q-29 -80 -45 -100q-23 -31 -86 -55q-63 -23 -133 -23 q-86 0 -154 41t-94 123q-12 39 -21 123q-12 96 -10 184zM96 1313.5q2 27.5 13 48.5q16 31 41 39q29 10 59 0q31 -12 43 -43q18 -49 -4 -88q-31 -43 -72 -41q-53 0 -67 33l-5 8q-10 16 -8 43.5zM350 1326q2 28 12 48q16 31 41 39q29 10 60 0q31 -12 43 -43q18 -49 -4 -88 q-31 -43 -72 -41q-53 0 -68 33l-4 8q-10 16 -8 44z" />
<glyph unicode="&#xdd;" horiz-adv-x="583" d="M25 1069q0 63 41 86q96 51 137 -96q6 -23 19.5 -67t17.5 -64q0 -4 4 -25.5t7 -33t10 -26t18 -18.5q8 -2 15 -3t13 6.5t9 13.5t7.5 17t6.5 19.5t4 17.5t4 13q23 57 45 158q16 84 47 94q31 12 96 -20q43 -18 25 -92q-27 -121 -33 -142q-4 -18 -17.5 -51t-17.5 -43 q-45 -168 -49 -186l-4 -15q-14 -68 -31.5 -133t-29.5 -112q-4 -14 -14.5 -64.5t-17.5 -76t-19.5 -66.5t-28 -73t-33.5 -56q-37 -49 -102 -56q-33 -2 -53.5 14.5t-20.5 47.5q0 33 28.5 100.5t45.5 155.5q14 90 14 156q0 63 -12 124q-45 180 -99 349q-32 98 -32 147z M147.5 1278q-6.5 31 24.5 51l59 39q70 33 164 99.5t135 88.5q39 25 70 25q41 0 64 -41q33 -63 -35 -123q-37 -29 -79 -55.5t-106.5 -61t-85.5 -47.5q-8 -4 -25.5 -18t-29.5 -22.5t-32.5 -19.5t-33 -10t-30.5 5q-14 6 -33.5 32.5t-26 57.5z" />
<glyph unicode="&#xde;" horiz-adv-x="792" d="M59 1026q0 92 41 129q29 25 63 16.5t46 -41.5q12 -31 8 -100q12 -37 80 -45q61 12 121 12q109 0 196 -47q35 -18 47.5 -30.5t24.5 -47.5q29 -78 39 -127q8 -47 8 -116q0 -74 -10 -150q-41 -291 -281 -315q-53 -8 -118 6q-53 -2 -70 -39v-37q-4 -41 -27.5 -67.5 t-64.5 -20.5q-63 8 -76 94q-4 41 -4 64v106q0 41 -2 119t-2 119q-10 205 -10 371q0 18 -4.5 68t-4.5 79zM225 727q4 -47 8 -149l3 -15q0 -76 -3 -114v-21q18 -68 82 -90q33 0 50 -2q74 -4 119.5 15.5t68.5 82.5q27 70 27 170q0 96 -34 159.5t-110 65.5q-47 0 -133 -24 q-66 -33 -78 -78z" />
<glyph unicode="&#xdf;" horiz-adv-x="751" d="M41 209q4 41 6 168t8 172q2 23 9.5 95.5t13.5 111.5q8 45 16 100q12 74 12 78v6q12 106 25 154q12 43 76 67l82 25q86 18 205 -29q78 -29 135 -103.5t78 -160.5q14 -53 14 -84q0 -39 -19 -78q-37 -80 -106 -129q-8 -6 -29.5 -18.5t-34 -21.5t-24.5 -20.5t-10 -20.5 t18 -17q96 -49 156 -160q29 -57 28 -115q0 -84 -54 -150.5t-146 -88.5q-53 -14 -113 -17q-35 -4 -54.5 26t-10.5 67q12 72 55 81q109 4 135 54q10 16 9 35.5t-4 27.5t-17.5 35t-16.5 29q-14 27 -84.5 72.5t-85.5 62.5q-29 35 -28 78q0 33 18 59q18 25 87 65t87 58l15 14 q10 10 12 13.5t10 12.5t8 11t6.5 12.5t5 14.5t2 15t-0.5 18q-14 82 -56 122q-61 66 -125 66q-23 0 -51.5 -17.5t-34.5 -54.5q-4 -53 -17 -117.5t-13 -72.5q-6 -70 -12.5 -196t-8.5 -165q0 -6 -5 -69.5t-5 -98.5q0 -39 6 -67q6 -29 18 -47q29 -51 -38 -103q-29 -23 -60 -22.5 t-45 22.5q-57 95 -47 195z" />
<glyph unicode="&#xe0;" horiz-adv-x="735" d="M41 256q0 68 14 117q35 119 205 289q27 29 89.5 52t103.5 19q14 -2 45.5 -9t54.5 -7q29 0 61 8q27 8 57.5 -19.5t24.5 -72.5q-6 -49 -32 -152q-20 -119 -21 -219q0 -25 4 -61q0 -2 14.5 -63.5t14.5 -94.5q0 -47 -29 -68q-61 -43 -119 29q-10 12 -21 31.5t-15.5 26 t-19.5 12.5t-34 -6q-14 -6 -59 -30t-86 -39t-78 -15q-70 0 -115 59q-59 80 -59 213zM57 1139q41 57 123 24q33 -14 72 -35.5t65.5 -38t70.5 -45t65 -40.5l45 -23q41 -20 61.5 -39.5t20.5 -44.5q4 -29 -31 -76t-78 -20l-61 35q-61 45 -162 98t-144 80q-94 55 -47 125z M215 225q10 -45 53 -45q35 0 78 25.5t68 52.5q4 6 14 16l14 17q4 4 19.5 42t27 87t-3.5 84q-18 45 -62 31.5t-84 -43t-54 -52.5q-93 -131 -70 -215z" />
<glyph unicode="&#xe1;" horiz-adv-x="735" d="M41 256q0 68 14 117q35 119 205 289q27 29 89.5 52t103.5 19q14 -2 45.5 -9t54.5 -7q29 0 61 8q27 8 57.5 -19.5t24.5 -72.5q-6 -49 -32 -152q-20 -119 -21 -219q0 -25 4 -61q0 -2 14.5 -63.5t14.5 -94.5q0 -47 -29 -68q-61 -43 -119 29q-10 12 -21 31.5t-15.5 26 t-19.5 12.5t-34 -6q-14 -6 -59 -30t-86 -39t-78 -15q-70 0 -115 59q-59 80 -59 213zM215 225q10 -45 53 -45q35 0 78 25.5t68 52.5q4 6 14 16l14 17q4 4 19.5 42t27 87t-3.5 84q-18 45 -62 31.5t-84 -43t-54 -52.5q-93 -131 -70 -215zM225 862q-6 31 25 51l59 39 q70 33 164 99.5t135 89.5q39 25 70 24q41 0 63 -41q33 -63 -34 -123q-37 -29 -79 -55t-106.5 -61t-85.5 -47q-8 -4 -25.5 -18.5t-29.5 -23t-32.5 -19.5t-33 -10t-30.5 5q-14 6 -34 32.5t-26 57.5z" />
<glyph unicode="&#xe2;" horiz-adv-x="735" d="M41 256q0 68 14 117q35 119 205 289q27 29 89.5 52t103.5 19q14 -2 45.5 -9t54.5 -7q29 0 61 8q27 8 57.5 -19.5t24.5 -72.5q-6 -49 -32 -152q-20 -119 -21 -219q0 -25 4 -61q0 -2 14.5 -63.5t14.5 -94.5q0 -47 -29 -68q-61 -43 -119 29q-10 12 -21 31.5t-15.5 26 t-19.5 12.5t-34 -6q-14 -6 -59 -30t-86 -39t-78 -15q-70 0 -115 59q-59 80 -59 213zM135 846q0 20 14.5 46t35 55.5t26.5 43.5q6 12 19.5 44t25.5 54.5t29 40.5q27 27 72.5 43.5t76.5 -2.5q25 -18 41.5 -46.5t34.5 -76t31 -71.5q6 -10 20 -31.5t23.5 -39t17.5 -38t7 -40 t-13 -35.5q-25 -29 -64 -29q-41 0 -65 33q-14 18 -27.5 66t-25.5 67q-37 57 -84 -35q-8 -14 -21 -43q-39 -80 -57 -86q-37 -12 -77 14.5t-40 65.5zM215 225q10 -45 53 -45q35 0 78 25.5t68 52.5q4 6 14 16l14 17q4 4 19.5 42t27 87t-3.5 84q-18 45 -62 31.5t-84 -43 t-54 -52.5q-93 -131 -70 -215z" />
<glyph unicode="&#xe3;" horiz-adv-x="735" d="M27 840q-2 45 59 106q102 111 182 111q35 0 60 -23q6 -6 27.5 -25.5t37 -31.5t31.5 -21q61 -25 123 11q12 6 38.5 32.5t45.5 32.5q31 10 52.5 -10.5t27.5 -50.5q16 -61 -35 -106.5t-123 -69.5q-78 -25 -137 -13q-59 10 -97 58q-45 55 -90 34q-20 -8 -48.5 -39.5 t-45.5 -41.5q-31 -20 -68.5 -7t-39.5 54zM41 256q0 68 14 117q35 119 205 289q27 29 89.5 52t103.5 19q14 -2 45.5 -9t54.5 -7q29 0 61 8q27 8 57.5 -19.5t24.5 -72.5q-6 -49 -32 -152q-20 -119 -21 -219q0 -25 4 -61q0 -2 14.5 -63.5t14.5 -94.5q0 -47 -29 -68 q-61 -43 -119 29q-10 12 -21 31.5t-15.5 26t-19.5 12.5t-34 -6q-14 -6 -59 -30t-86 -39t-78 -15q-70 0 -115 59q-59 80 -59 213zM215 225q10 -45 53 -45q35 0 78 25.5t68 52.5q4 6 14 16l14 17q4 4 19.5 42t27 87t-3.5 84q-18 45 -62 31.5t-84 -43t-54 -52.5 q-93 -131 -70 -215z" />
<glyph unicode="&#xe4;" horiz-adv-x="735" d="M41 256q0 68 14 117q35 119 205 289q27 29 89.5 52t103.5 19q14 -2 45.5 -9t54.5 -7q29 0 61 8q27 8 57.5 -19.5t24.5 -72.5q-6 -49 -32 -152q-20 -119 -21 -219q0 -25 4 -61q0 -2 14.5 -63.5t14.5 -94.5q0 -47 -29 -68q-61 -43 -119 29q-10 12 -21 31.5t-15.5 26 t-19.5 12.5t-34 -6q-14 -6 -59 -30t-86 -39t-78 -15q-70 0 -115 59q-59 80 -59 213zM162 851q2 28 12 48q16 31 41 39q29 10 59 0q31 -12 43 -43q18 -49 -4 -88q-31 -43 -71 -41q-53 0 -68 33l-4 8q-10 16 -8 44zM215 225q10 -45 53 -45q35 0 78 25.5t68 52.5q4 6 14 16 l14 17q4 4 19.5 42t27 87t-3.5 84q-18 45 -62 31.5t-84 -43t-54 -52.5q-93 -131 -70 -215zM416 863.5q2 27.5 12 47.5q16 31 41 39q29 10 59 0q31 -12 43 -43q18 -49 -4 -88q-31 -43 -71 -41q-53 0 -68 33l-4 8q-10 17 -8 44.5z" />
<glyph unicode="&#xe5;" horiz-adv-x="735" d="M41 256q0 68 14 117q35 119 205 289q27 29 89.5 52t103.5 19q14 -2 45.5 -9t54.5 -7q29 0 61 8q27 8 57.5 -19.5t24.5 -72.5q-6 -49 -32 -152q-20 -119 -21 -219q0 -25 4 -61q0 -2 14.5 -63.5t14.5 -94.5q0 -47 -29 -68q-61 -43 -119 29q-10 12 -21 31.5t-15.5 26 t-19.5 12.5t-34 -6q-14 -6 -59 -30t-86 -39t-78 -15q-70 0 -115 59q-59 80 -59 213zM162 987q12 49 53 86t92 49q53 12 101 13q66 0 112 -27q55 -31 80 -82q14 -33 14 -74l-6 -30q-2 -8 -18.5 -24.5t-18.5 -23.5q-61 -92 -186 -92q-84 0 -149 45q-33 20 -57.5 70.5 t-16.5 89.5zM215 225q10 -45 53 -45q35 0 78 25.5t68 52.5q4 6 14 16l14 17q4 4 19.5 42t27 87t-3.5 84q-18 45 -62 31.5t-84 -43t-54 -52.5q-93 -131 -70 -215zM301 928q14 -20 45 -27q4 -2 14.5 -3t14.5 -1q6 -2 24 -2h2q33 0 54 14q23 12 28 31q8 23 -7 41t-40 25 q-61 23 -106 -5q-54 -28 -29 -73z" />
<glyph unicode="&#xe6;" horiz-adv-x="1114" d="M41 256q0 68 14 117q35 119 205 289q27 29 89.5 52t103.5 19q14 -2 45.5 -9t54.5 -7q29 0 61 8q20 6 48 -14.5t34 -55.5q88 51 195 52q133 0 176 -99q23 -51 23 -100q0 -31 -9.5 -58.5t-30 -52t-32.5 -39t-43 -39t-37 -30.5l-33 -19q-20 -14 -92 -29.5t-82 -33.5 q-25 -39 25.5 -58.5t101.5 -11.5q31 6 68 20.5t62.5 26t50 18.5t36.5 0t15 -32q2 -78 -78 -133t-158 -60q-102 -4 -186 23q-6 -12 -21 -25q-61 -43 -119 29q-10 12 -21 31.5t-15.5 26t-19.5 12.5t-34 -6q-14 -6 -59 -30t-86 -39t-78 -15q-70 0 -115 59q-59 80 -59 213z M227 240q10 -41 49 -41q31 0 70 23.5t62 47.5l12 15l14 14q6 12 16.5 39t23.5 80t-1 76q-18 41 -58 28.5t-75 -39t-49 -47.5q-84 -122 -64 -196zM678 410q0 -23 20.5 -34t49.5 -7q88 10 147 90q55 80 -21 84q-70 2 -139 -45q-10 -6 -18 -15l-2 -4q-37 -38 -37 -69z" />
<glyph unicode="&#xe7;" horiz-adv-x="647" d="M49 274q0 61 12 117q31 172 129 260q61 53 115 62q33 4 78 4q102 0 129 -17q82 -49 82 -165q0 -20 -8 -58l-6 -20q-4 -37 -49.5 -50.5t-77.5 5.5q-16 10 -19.5 33.5t-1.5 45t-20.5 38t-73.5 18.5q-49 2 -89 -75t-40 -163q0 -117 76 -149q61 -29 123 -8q14 4 51 26.5 t57 24.5q29 2 50.5 -23.5t19.5 -52.5q0 -39 -72 -86q-84 -55 -174 -64q-4 -45 -4 -55t10 -18q12 -8 74 -2q51 0 69 -8q49 -20 72 -103q6 -25 6 -59q0 -61 -22.5 -119.5t-67.5 -79.5q-53 -29 -147 -25q-125 6 -154 24.5t-36 53.5t10 60q6 10 12 16t15 8t16.5 3t19.5 -2 t17.5 -4t18.5 -5t17 -6q27 -10 70 -10q45 0 67 16q29 18 24 54t-36 46q-16 12 -71.5 2t-73.5 -8q-78 8 -68 90q0 8 8.5 55.5t6.5 75.5q0 12 -5 29q-61 41 -100 107q-39 67 -39 161z" />
<glyph unicode="&#xe8;" horiz-adv-x="696" d="M-43 1098q41 57 123 24q33 -14 71.5 -35.5t65.5 -38t71 -45t64 -40.5l45 -23q41 -20 61.5 -39.5t20.5 -44.5q4 -29 -30.5 -76t-77.5 -20l-62 35q-61 45 -161.5 98t-143.5 80q-94 55 -47 125zM25 289q0 100 56 193t148 157q96 68 224 68q133 0 176 -99q23 -51 22 -100 q0 -31 -9 -58.5t-29.5 -52t-33 -39t-43 -39t-36.5 -30.5l-33 -19q-20 -14 -92 -29.5t-82 -33.5q-25 -39 25.5 -58.5t101.5 -11.5q31 6 67.5 20.5t62 26t50.5 18.5t37 0t14 -32q2 -78 -77.5 -133t-157.5 -60q-125 -6 -234 39q-90 39 -135 152q-22 58 -22 121zM240 410 q0 -23 20.5 -34t48.5 -7q88 10 148 90q55 80 -21 84q-70 2 -139 -45q-10 -6 -18 -15l-3 -4q-36 -38 -36 -69z" />
<glyph unicode="&#xe9;" horiz-adv-x="696" d="M25 289q0 100 56 193t148 157q96 68 224 68q133 0 176 -99q23 -51 22 -100q0 -31 -9 -58.5t-29.5 -52t-33 -39t-43 -39t-36.5 -30.5l-33 -19q-20 -14 -92 -29.5t-82 -33.5q-25 -39 25.5 -58.5t101.5 -11.5q31 6 67.5 20.5t62 26t50.5 18.5t37 0t14 -32q2 -78 -77.5 -133 t-157.5 -60q-125 -6 -234 39q-90 39 -135 152q-22 58 -22 121zM229.5 846q-6.5 31 24.5 51l59 39q70 33 164 99.5t135 88.5q39 25 70 25q41 0 63 -41q33 -63 -34 -123q-37 -29 -79 -55.5t-106.5 -61t-85.5 -47.5q-8 -4 -25.5 -18.5t-29.5 -22.5t-32.5 -19t-33 -10t-30.5 5 q-14 6 -33.5 32.5t-26 57.5zM240 410q0 -23 20.5 -34t48.5 -7q88 10 148 90q55 80 -21 84q-70 2 -139 -45q-10 -6 -18 -15l-3 -4q-36 -38 -36 -69z" />
<glyph unicode="&#xea;" horiz-adv-x="696" d="M25 289q0 100 56 193t148 157q96 68 224 68q133 0 176 -99q23 -51 22 -100q0 -31 -9 -58.5t-29.5 -52t-33 -39t-43 -39t-36.5 -30.5l-33 -19q-20 -14 -92 -29.5t-82 -33.5q-25 -39 25.5 -58.5t101.5 -11.5q31 6 67.5 20.5t62 26t50.5 18.5t37 0t14 -32q2 -78 -77.5 -133 t-157.5 -60q-125 -6 -234 39q-90 39 -135 152q-22 58 -22 121zM129 834q0 20 14.5 45.5t35 55.5t26.5 44q6 12 19.5 44t25.5 54.5t29 40.5q27 27 72.5 43.5t76.5 -2.5q25 -18 41 -47t34.5 -76t31.5 -71q6 -10 20 -32t23.5 -39t17.5 -37.5t7 -40t-13 -36.5q-25 -29 -64 -28 q-41 0 -65 32q-14 18 -27.5 66.5t-25.5 67.5q-37 57 -84 -35q-8 -14 -21 -43q-39 -80 -57 -86q-37 -12 -77 14.5t-40 65.5zM240 410q0 -23 20.5 -34t48.5 -7q88 10 148 90q55 80 -21 84q-70 2 -139 -45q-10 -6 -18 -15l-3 -4q-36 -38 -36 -69z" />
<glyph unicode="&#xeb;" horiz-adv-x="696" d="M25 289q0 100 56 193t148 157q96 68 224 68q133 0 176 -99q23 -51 22 -100q0 -31 -9 -58.5t-29.5 -52t-33 -39t-43 -39t-36.5 -30.5l-33 -19q-20 -14 -92 -29.5t-82 -33.5q-25 -39 25.5 -58.5t101.5 -11.5q31 6 67.5 20.5t62 26t50.5 18.5t37 0t14 -32q2 -78 -77.5 -133 t-157.5 -60q-125 -6 -234 39q-90 39 -135 152q-22 58 -22 121zM162 820.5q2 27.5 12 47.5q16 31 41 39q29 10 59 0q31 -12 43 -43q18 -49 -4 -88q-31 -43 -71 -41q-53 0 -68 33l-4 8q-10 17 -8 44.5zM240 410q0 -23 20.5 -34t48.5 -7q88 10 148 90q55 80 -21 84 q-70 2 -139 -45q-10 -6 -18 -15l-3 -4q-36 -38 -36 -69zM416 832.5q2 27.5 12 48.5q16 31 41 39q29 10 59 0q31 -12 43 -43q18 -49 -4 -89q-31 -43 -71 -40q-53 0 -68 32l-4 8q-10 17 -8 44.5z" />
<glyph unicode="&#xec;" horiz-adv-x="303" d="M-295 1124q41 57 123 25q33 -14 72 -35.5t65.5 -38t70.5 -45.5t64 -41l45 -22q41 -20 61.5 -40t20.5 -44q4 -29 -30.5 -76t-77.5 -21l-62 35q-61 45 -161.5 98.5t-143.5 79.5q-94 55 -47 125zM72 520q-4 98 26 142q49 66 97 10q37 -43 26 -121q-8 -57 -8 -129 q0 -39 3 -117t3 -117v-6q0 -16 8.5 -51t7 -62.5t-19.5 -45.5q-27 -25 -70 -16t-57 44q-10 18 -10 62q0 37 4 73q2 20 -4 174z" />
<glyph unicode="&#xed;" horiz-adv-x="303" d="M-12 846q-6 31 24 51l60 39q70 33 164 99.5t135 88.5q39 25 69 25q41 0 64 -41q33 -63 -35 -123q-37 -29 -79 -55.5t-106.5 -61t-84.5 -47.5q-8 -4 -25.5 -18.5t-30 -22.5t-33 -19t-32.5 -10t-31 5q-14 6 -33.5 32.5t-25.5 57.5zM72 520q-4 98 26 142q49 66 97 10 q37 -43 26 -121q-8 -57 -8 -129q0 -39 3 -117t3 -117v-6q0 -16 8.5 -51t7 -62.5t-19.5 -45.5q-27 -25 -70 -16t-57 44q-10 18 -10 62q0 37 4 73q2 20 -4 174z" />
<glyph unicode="&#xee;" horiz-adv-x="303" d="M-98 799q0 20 14 45.5t34.5 55.5t26.5 44q6 12 19.5 44t26 54.5t28.5 40.5q27 27 73 43.5t77 -2.5q25 -18 41 -46.5t34.5 -76t30.5 -71.5q6 -10 20.5 -31.5t23.5 -39t17.5 -38t7.5 -40t-14 -36.5q-25 -29 -63 -28q-41 0 -66 33q-14 18 -27 66t-26 67q-37 57 -84 -35 q-8 -14 -20 -43q-39 -80 -58 -86q-37 -12 -76.5 14.5t-39.5 65.5zM72 520q-4 98 26 142q49 66 97 10q37 -43 26 -121q-8 -57 -8 -129q0 -39 3 -117t3 -117v-6q0 -16 8.5 -51t7 -62.5t-19.5 -45.5q-27 -25 -70 -16t-57 44q-10 18 -10 62q0 37 4 73q2 20 -4 174z" />
<glyph unicode="&#xef;" horiz-adv-x="303" d="M-70 824.5q2 27.5 13 47.5q16 31 41 39q29 10 59 0q31 -12 43 -43q18 -49 -4 -88q-31 -43 -72 -41q-53 0 -67 33l-4 8q-11 17 -9 44.5zM72 520q-4 98 26 142q49 66 97 10q37 -43 26 -121q-8 -57 -8 -129q0 -39 3 -117t3 -117v-6q0 -16 8.5 -51t7 -62.5t-19.5 -45.5 q-27 -25 -70 -16t-57 44q-10 18 -10 62q0 37 4 73q2 20 -4 174zM184 836.5q2 27.5 13 48.5q16 31 41 39q29 10 59 0q31 -12 43 -43q18 -49 -4 -88q-31 -43 -72 -41q-53 0 -67 32l-4 9q-11 16 -9 43.5z" />
<glyph unicode="&#xf0;" horiz-adv-x="708" d="M25 344q0 55 12 105q33 121 102 186q66 55 121 70q23 6 43.5 0.5t39.5 -4.5t30 16q20 27 -11 88q-82 -4 -122 -8q-8 0 -48 -7.5t-61 -7.5q-41 0 -59 21q-18 18 -19 76q0 61 49 67l70 10q6 0 98 7q-72 106 -34 157q25 33 55 33q33 0 68.5 -29.5t56.5 -64.5l37 -68l69 8 q111 12 113 -71q6 -76 -82 -94q-12 -4 -18 -5q10 -18 88 -204q66 -162 65 -283q0 -125 -70 -215q-113 -141 -278 -141q-80 0 -162 41q-76 39 -114.5 128t-38.5 189zM186 326q0 -70 52.5 -123t140.5 -45q66 6 95.5 49t29.5 102q0 35 -10 66q-31 86 -70 123q-16 16 -47 29.5 t-53 4.5l-19 -2q-8 4 -33 -12q-86 -47 -86 -192z" />
<glyph unicode="&#xf1;" horiz-adv-x="630" d="M-33 825q-2 45 60 107q102 111 182 110q35 0 59 -22q6 -6 27.5 -25.5t37 -32t32.5 -20.5q61 -25 122 10q12 6 39 33t45 33q31 10 52.5 -10.5t27.5 -51.5q16 -61 -35 -106t-122 -70q-78 -25 -138 -12q-59 10 -96 57q-45 55 -90 35q-20 -8 -49 -40t-45 -42q-31 -20 -69 -7 t-40 54zM49 430q0 23 2 75t0 79q-4 82 33 112q25 18 58.5 15.5t54.5 -23.5q18 -16 18 -65q0 -12 -1 -34t-1 -30q-8 -80 8 -106q23 -37 60 26q16 27 56 99.5t66 109.5q35 43 84 43q80 0 107 -78q2 -33 3 -40t-9 -37.5t-13 -38.5q-18 -80 -18 -160q0 -12 -1 -37t-1 -37 q0 -37 6 -72q4 -25 16.5 -67.5t16.5 -63.5q20 -80 -23 -110q-20 -12 -57 -5t-51 23q-25 29 -45 131q-10 49 -19 140q-4 39 -16 40q-4 0 -10 -2q-14 -4 -39 -41q-18 -27 -47 -82t-33 -61q-2 -2 -11.5 -22.5t-13.5 -28.5t-15 -25.5t-19.5 -25.5t-19.5 -16.5t-23 -10.5 q-39 -4 -65 13.5t-30 52.5q-6 57 -6 108q0 18 1 56t1 61q0 82 -4 135z" />
<glyph unicode="&#xf2;" horiz-adv-x="661" d="M-25 1139q41 57 123 24q33 -14 72 -35.5t65.5 -38t70.5 -45t65 -40.5l45 -23q41 -20 61.5 -39.5t20.5 -44.5q4 -29 -31 -76t-78 -20l-61 35q-61 45 -161.5 98t-143.5 80q-95 55 -48 125zM41 373q0 147 70 241q59 86 149 117q31 10 68 10q14 0 96 -10l27 -14 q14 -2 30.5 -27.5t22.5 -32.5q119 -104 119 -272q0 -160 -103 -285q-43 -51 -130 -80.5t-148 -9.5q-80 29 -131.5 101.5t-63.5 160.5q-6 52 -6 101zM199 346q0 -51 14 -88q20 -51 60 -76.5t87 -3.5q49 20 72 86q6 20 14 62q2 8 4.5 27.5t4.5 27.5v27q6 49 -17 92 q-25 47 -59 65q-43 20 -85 -7.5t-65 -74.5q-30 -57 -30 -137z" />
<glyph unicode="&#xf3;" horiz-adv-x="661" d="M41 373q0 147 70 241q59 86 149 117q31 10 68 10q14 0 96 -10l27 -14q14 -2 30.5 -27.5t22.5 -32.5q119 -104 119 -272q0 -160 -103 -285q-43 -51 -130 -80.5t-148 -9.5q-80 29 -131.5 101.5t-63.5 160.5q-6 52 -6 101zM149.5 880.5q-6.5 30.5 24.5 51.5l59 39 q70 33 164.5 99.5t134.5 88.5q39 25 70 25q41 0 64 -41q33 -63 -35 -123q-37 -29 -79 -55.5t-106.5 -61.5t-85.5 -47q-8 -4 -25.5 -18.5t-29.5 -22.5t-32.5 -19.5t-33 -10.5t-30.5 6q-14 6 -33.5 32.5t-26 57zM199 346q0 -51 14 -88q20 -51 60 -76.5t87 -3.5q49 20 72 86 q6 20 14 62q2 8 4.5 27.5t4.5 27.5v27q6 49 -17 92q-25 47 -59 65q-43 20 -85 -7.5t-65 -74.5q-30 -57 -30 -137z" />
<glyph unicode="&#xf4;" horiz-adv-x="661" d="M41 373q0 147 70 241q59 86 149 117q31 10 68 10q14 0 96 -10l27 -14q14 -2 30.5 -27.5t22.5 -32.5q119 -104 119 -272q0 -160 -103 -285q-43 -51 -130 -80.5t-148 -9.5q-80 29 -131.5 101.5t-63.5 160.5q-6 52 -6 101zM84 852q0 20 14.5 46t35 55.5t26.5 43.5 q6 12 19.5 44t25.5 54.5t28 41.5q27 27 73 43t77 -2q25 -18 41 -47t34.5 -76t30.5 -72q6 -10 20.5 -31.5t24 -39t17.5 -38t7 -40t-13 -35.5q-25 -29 -64 -29q-41 0 -65 33q-14 18 -27.5 66.5t-26.5 66.5q-37 57 -83 -35q-8 -14 -21 -43q-39 -80 -57 -86q-37 -12 -77 14.5 t-40 65.5zM199 346q0 -51 14 -88q20 -51 60 -76.5t87 -3.5q49 20 72 86q6 20 14 62q2 8 4.5 27.5t4.5 27.5v27q6 49 -17 92q-25 47 -59 65q-43 20 -85 -7.5t-65 -74.5q-30 -57 -30 -137z" />
<glyph unicode="&#xf5;" horiz-adv-x="661" d="M-37 848q-2 45 60 106q102 111 182 111q35 0 59 -23q6 -6 27.5 -25.5t37 -31.5t31.5 -20q61 -25 123 10q12 6 39 32.5t45 32.5q31 10 52.5 -10t27.5 -51q16 -61 -35 -106.5t-123 -69.5q-78 -25 -137 -12q-59 10 -96 57q-45 55 -90 35q-20 -8 -49 -40t-45 -42 q-31 -20 -69 -7t-40 54zM41 373q0 147 70 241q59 86 149 117q31 10 68 10q14 0 96 -10l27 -14q14 -2 30.5 -27.5t22.5 -32.5q119 -104 119 -272q0 -160 -103 -285q-43 -51 -130 -80.5t-148 -9.5q-80 29 -131.5 101.5t-63.5 160.5q-6 52 -6 101zM199 346q0 -51 14 -88 q20 -51 60 -76.5t87 -3.5q49 20 72 86q6 20 14 62q2 8 4.5 27.5t4.5 27.5v27q6 49 -17 92q-25 47 -59 65q-43 20 -85 -7.5t-65 -74.5q-30 -57 -30 -137z" />
<glyph unicode="&#xf6;" horiz-adv-x="661" d="M41 373q0 147 70 241q59 86 149 117q31 10 68 10q14 0 96 -10l27 -14q14 -2 30.5 -27.5t22.5 -32.5q119 -104 119 -272q0 -160 -103 -285q-43 -51 -130 -80.5t-148 -9.5q-80 29 -131.5 101.5t-63.5 160.5q-6 52 -6 101zM115 873.5q2 27.5 12 48.5q16 31 41 39q29 10 59 0 q31 -12 43 -43q18 -49 -4 -89q-31 -43 -71 -41q-53 0 -68 33l-4 8q-10 17 -8 44.5zM199 346q0 -51 14 -88q20 -51 60 -76.5t87 -3.5q49 20 72 86q6 20 14 62q2 8 4.5 27.5t4.5 27.5v27q6 49 -17 92q-25 47 -59 65q-43 20 -85 -7.5t-65 -74.5q-30 -57 -30 -137zM369 885.5 q2 27.5 12 48.5q16 31 41 39q29 10 59 0q31 -12 43 -43q18 -49 -4 -88q-31 -43 -71 -41q-53 0 -68 33l-4 8q-10 16 -8 43.5z" />
<glyph unicode="&#xf7;" horiz-adv-x="722" d="M66 659q0 61 49 68l69 10q76 2 189.5 20.5t161.5 22.5q111 12 112 -71q6 -76 -82 -95q-45 -12 -95 -18t-120.5 -11t-97.5 -7q-8 0 -48 -7.5t-61 -7.5q-41 0 -59 21q-18 18 -18 75zM256 916.5q2 27.5 12 48.5q16 31 41 39q29 10 60 0q31 -12 43 -43q18 -49 -4 -89 q-31 -43 -72 -41q-53 0 -68 33l-4 8q-10 17 -8 44.5zM281 392.5q2 27.5 12 47.5q16 31 41 39q29 10 59 0q31 -12 43 -43q18 -49 -4 -88q-31 -43 -72 -41q-53 0 -67 33l-4 8q-10 17 -8 44.5z" />
<glyph unicode="&#xf8;" horiz-adv-x="661" d="M6 91q-37 46 0 79l47 53l2 2q-4 18 -8 47q-6 51 -6 101q0 147 70 241q59 86 149 117q31 10 68 10q14 0 96 -10l27 -14q10 -2 16 -8.5t15.5 -21.5t11.5 -19l2 2q43 43 79 43q31 0 54 -29q23 -25 22.5 -57.5t-28.5 -67.5l-27 -33q27 -66 27 -143q0 -162 -103 -283 q-43 -51 -130 -80.5t-148 -9.5q-59 18 -101 64q-45 -39 -69 -33q-29 4 -66 50zM197 360l190 199l-8 6q-43 20 -85 -7.5t-65 -74.5q-30 -55 -32 -123zM260 190q45 -39 100 -12q49 20 72 86q6 20 14 62q2 8 4.5 27.5t4.5 27.5q-37 -37 -96.5 -93.5t-73.5 -70.5z" />
<glyph unicode="&#xf9;" horiz-adv-x="651" d="M-35 1139q41 57 123 24q33 -14 72 -35.5t65.5 -38t70.5 -45t64 -40.5l46 -23q41 -20 61 -39.5t20 -44.5q4 -29 -30.5 -76t-77.5 -20l-62 35q-61 45 -161.5 98t-143.5 80q-94 55 -47 125zM41 270q0 45 4 107q0 8 2 47t4 60.5t6 59.5t11.5 63.5t18.5 54t29.5 47t41.5 28.5 q43 18 80.5 -9.5t29.5 -74.5q-4 -27 -26.5 -90t-24.5 -102l-4 -27q-2 -20 -6 -71.5t-3 -60.5t5 -38q18 -37 60 -3t69 77q31 49 47 107.5t28.5 137.5t20.5 113q12 45 49 67.5t82 -9.5q33 -31 33 -92q0 -41 -10 -78q-29 -109 -29 -193q0 -12 -4 -45q-6 -27 -6 -59q0 -27 8 -41 l4 -8q10 -23 17 -29q20 -33 36 -57q33 -51 25 -74q-14 -45 -29 -55q-10 -8 -22 -15q-51 -18 -88 12q-20 18 -45 61.5t-47 59.5q-25 0 -93.5 -70.5t-119.5 -70.5q-37 0 -78 33q-76 61 -76 237z" />
<glyph unicode="&#xfa;" horiz-adv-x="651" d="M41 270q0 45 4 107q0 8 2 47t4 60.5t6 59.5t11.5 63.5t18.5 54t29.5 47t41.5 28.5q43 18 80.5 -9.5t29.5 -74.5q-4 -27 -26.5 -90t-24.5 -102l-4 -27q-2 -20 -6 -71.5t-3 -60.5t5 -38q18 -37 60 -3t69 77q31 49 47 107.5t28.5 137.5t20.5 113q12 45 49 67.5t82 -9.5 q33 -31 33 -92q0 -41 -10 -78q-29 -109 -29 -193q0 -12 -4 -45q-6 -27 -6 -59q0 -27 8 -41l4 -8q10 -23 17 -29q20 -33 36 -57q33 -51 25 -74q-14 -45 -29 -55q-10 -8 -22 -15q-51 -18 -88 12q-20 18 -45 61.5t-47 59.5q-25 0 -93.5 -70.5t-119.5 -70.5q-37 0 -78 33 q-76 61 -76 237zM180 897q-6 31 25 51l59 39q70 33 164 99.5t135 89.5q39 25 70 24q41 0 63 -41q33 -63 -34 -123q-37 -29 -79 -55.5t-106.5 -61t-85.5 -47.5q-8 -4 -25.5 -18t-29.5 -22.5t-32.5 -19.5t-33 -10t-30.5 5q-14 6 -34 32.5t-26 57.5z" />
<glyph unicode="&#xfb;" horiz-adv-x="651" d="M41 270q0 45 4 107q0 8 2 47t4 60.5t6 59.5t11.5 63.5t18.5 54t29.5 47t41.5 28.5q43 18 80.5 -9.5t29.5 -74.5q-4 -27 -26.5 -90t-24.5 -102l-4 -27q-2 -20 -6 -71.5t-3 -60.5t5 -38q18 -37 60 -3t69 77q31 49 47 107.5t28.5 137.5t20.5 113q12 45 49 67.5t82 -9.5 q33 -31 33 -92q0 -41 -10 -78q-29 -109 -29 -193q0 -12 -4 -45q-6 -27 -6 -59q0 -27 8 -41l4 -8q10 -23 17 -29q20 -33 36 -57q33 -51 25 -74q-14 -45 -29 -55q-10 -8 -22 -15q-51 -18 -88 12q-20 18 -45 61.5t-47 59.5q-25 0 -93.5 -70.5t-119.5 -70.5q-37 0 -78 33 q-76 61 -76 237zM86 899q0 20 14.5 46t35 55.5t26.5 43.5q6 12 19.5 44t25.5 54.5t29 41.5q27 27 72.5 43t76.5 -2q25 -18 41 -47t34.5 -76t31.5 -72q6 -10 20 -31.5t23.5 -39t17.5 -38t7 -40t-13 -35.5q-25 -29 -64 -29q-41 0 -65 33q-14 18 -27.5 66.5t-25.5 66.5 q-37 57 -84 -35q-8 -14 -21 -43q-39 -80 -57 -86q-37 -12 -77 14.5t-40 65.5z" />
<glyph unicode="&#xfc;" horiz-adv-x="651" d="M41 270q0 45 4 107q0 8 2 47t4 60.5t6 59.5t11.5 63.5t18.5 54t29.5 47t41.5 28.5q43 18 80.5 -9.5t29.5 -74.5q-4 -27 -26.5 -90t-24.5 -102l-4 -27q-2 -20 -6 -71.5t-3 -60.5t5 -38q18 -37 60 -3t69 77q31 49 47 107.5t28.5 137.5t20.5 113q12 45 49 67.5t82 -9.5 q33 -31 33 -92q0 -41 -10 -78q-29 -109 -29 -193q0 -12 -4 -45q-6 -27 -6 -59q0 -27 8 -41l4 -8q10 -23 17 -29q20 -33 36 -57q33 -51 25 -74q-14 -45 -29 -55q-10 -8 -22 -15q-51 -18 -88 12q-20 18 -45 61.5t-47 59.5q-25 0 -93.5 -70.5t-119.5 -70.5q-37 0 -78 33 q-76 61 -76 237zM133 894q2 28 12 48q16 31 41 39q29 10 60 0q31 -12 43 -43q18 -49 -4 -88q-31 -43 -72 -41q-53 0 -68 33l-4 8q-10 16 -8 44zM387 906.5q2 27.5 12 47.5q16 31 41 39q29 10 60 0q31 -12 43 -43q18 -49 -4 -88q-31 -43 -72 -41q-53 0 -68 33l-4 8 q-10 17 -8 44.5z" />
<glyph unicode="&#xfd;" horiz-adv-x="714" d="M55 260q0 45 4 111q0 4 1 37.5t2 46t3.5 46.5t6.5 52t9 48t13 47.5t19.5 39t26 34.5t32.5 21q43 18 81 -9t30 -77q-6 -31 -28 -95t-26 -103l-4 -29q-4 -164 -2 -174q10 -53 41 -53t74 45t68 82q31 53 47 112.5t28.5 140.5t20.5 117q12 49 49 72t82 -12q35 -35 35 -96 q0 -33 -13 -78v-2q0 -27 -2 -76t-3 -87t-1 -63v-6q-4 -12 2 -73l6 -99q2 -29 0 -83t-2 -70q0 -20 4 -66q10 -109 -38 -223q-18 -41 -53.5 -76t-69.5 -35q-31 0 -54 29q-18 20 -18 45t10 43t26.5 45t22.5 43q29 84 29 172q0 49 -2 78q-12 43 -51 20q-123 -123 -232 -122 q-55 0 -98 36q-76 64 -76 244zM231.5 891q-6.5 31 24.5 51l59 39q70 33 164 99.5t135 88.5q39 25 70 25q41 0 64 -41q33 -63 -35 -123q-37 -29 -79 -55.5t-106.5 -61t-85.5 -47.5q-8 -4 -25.5 -18t-29.5 -22.5t-32.5 -19.5t-33 -10t-30.5 5q-14 6 -33.5 32.5t-26 57.5z" />
<glyph unicode="&#xfe;" horiz-adv-x="661" d="M57 518q-4 102 27 144q51 66 96 12q2 -2 6 -8.5t7 -8.5q20 -12 59 -8q94 33 166 33q59 0 98 -23q98 -51 98 -325q0 -63 -2 -88q-23 -276 -239 -234q-12 2 -36 7.5t-34 7.5q-59 4 -94 -13l-8 -8q-27 -27 -69 -17.5t-58 46.5q-10 18 -11 59q0 16 2.5 43t2.5 35q2 20 -5 182 q0 2 -6 164zM207 330q-4 -80 80 -125q43 -14 75 -15q37 0 58 23q27 29 26 109q0 47 -10 112q-12 59 -38.5 70.5t-73.5 -6.5q-23 -6 -78 -37q-31 -29 -39 -131z" />
<glyph unicode="&#xff;" horiz-adv-x="714" d="M55 260q0 45 4 111q0 4 1 37.5t2 46t3.5 46.5t6.5 52t9 48t13 47.5t19.5 39t26 34.5t32.5 21q43 18 81 -9t30 -77q-6 -31 -28 -95t-26 -103l-4 -29q-4 -164 -2 -174q10 -53 41 -53t74 45t68 82q31 53 47 112.5t28.5 140.5t20.5 117q12 49 49 72t82 -12q35 -35 35 -96 q0 -33 -13 -78v-2q0 -27 -2 -76t-3 -87t-1 -63v-6q-4 -12 2 -73l6 -99q2 -29 0 -83t-2 -70q0 -20 4 -66q10 -109 -38 -223q-18 -41 -53.5 -76t-69.5 -35q-31 0 -54 29q-18 20 -18 45t10 43t26.5 45t22.5 43q29 84 29 172q0 49 -2 78q-12 43 -51 20q-123 -123 -232 -122 q-55 0 -98 36q-76 64 -76 244zM164 890q2 28 12 48q16 31 41 39q29 10 59 0q31 -12 43 -43q18 -49 -4 -88q-31 -43 -71 -41q-53 0 -68 33l-4 8q-10 16 -8 44zM418 902q2 28 12 48q16 31 41 39q29 10 59 0q31 -12 43 -43q18 -49 -4 -88q-31 -43 -71 -41q-53 0 -68 33l-4 8 q-10 16 -8 44z" />
<glyph unicode="&#x152;" horiz-adv-x="1077" d="M49 522q-4 49 8 178l2 41q0 111 76 263q39 74 101.5 117.5t136.5 35.5q94 -8 141 -47l8 -8q23 49 119 49q35 0 84 -4q18 0 78.5 -4t93.5 -4q10 0 31.5 1t32.5 1q47 0 73 -15q23 -12 29 -41.5t-6 -54.5q-2 -8 -7.5 -13t-12.5 -8t-13 -6.5t-16.5 -4.5t-15.5 -1t-17 -1 t-14 -1h-66q-53 0 -80 -4q-2 0 -19.5 -2t-22.5 -2t-21.5 -3t-23.5 -6t-18.5 -8t-17.5 -12.5t-10 -15.5q-12 -8 -9 -71.5t3 -75.5q-6 -106 4 -129q12 -33 24.5 -42.5t43.5 -9.5q121 0 180 -2q29 -2 42 -3t26.5 -13t13.5 -37q-4 -66 -45 -78q-27 -8 -131.5 -18t-147.5 -45 q-29 -25 -24 -117q6 -76 40 -102q20 -16 115 -2q141 18 144 18q59 0 55 -72q0 -47 -68 -65q-12 -4 -65.5 -18.5t-83.5 -20.5q-23 -6 -68 -14l-67 -13q-6 -2 -21.5 -9t-26.5 -9q-27 -4 -53 8q-41 16 -45 70q-90 -86 -176 -86q-43 0 -82 24q-145 94 -186 287q-17 84 -25 225z M215 520q0 -123 33 -213q41 -104 84 -123q57 -27 100 58q45 78 60 217q0 14 -1.5 52t1.5 54l4 105l4 30q0 80 -32 166t-95 95q-111 12 -144 -256q-2 -10 -2 -15q-12 -111 -12 -170z" />
<glyph unicode="&#x153;" horiz-adv-x="1114" d="M41 373q0 147 70 241q59 86 149 117q31 10 68 10q14 0 96 -10l27 -14q14 -2 30.5 -27.5t22.5 -32.5q43 -37 74 -92q41 41 86 74q96 68 223 68q133 0 176 -99q23 -51 22 -100q0 -31 -9 -58.5t-29.5 -52t-33 -39t-43 -39t-36.5 -30.5l-33 -19q-20 -14 -92 -29.5t-82 -33.5 q-25 -39 25.5 -58.5t101.5 -11.5q31 6 67.5 20.5t62.5 26t50.5 18.5t36.5 0t14 -32q2 -78 -77.5 -133t-157.5 -60q-125 -6 -234 39q-59 25 -98 82q-45 -51 -131 -79.5t-145 -8.5q-80 29 -131.5 101.5t-63.5 160.5q-6 52 -6 101zM199 346q0 -51 14 -88q20 -51 60 -76.5 t87 -3.5q49 20 72 86q6 20 14 62q2 8 4.5 27.5t4.5 27.5v27q6 49 -17 92q-25 47 -59 65q-43 20 -85 -7.5t-65 -74.5q-30 -57 -30 -137zM674 410q0 -23 20.5 -34t48.5 -7q88 10 148 90q55 80 -21 84q-70 2 -139 -45q-10 -6 -18 -15l-2 -4q-37 -38 -37 -69z" />
<glyph unicode="&#x178;" horiz-adv-x="583" d="M25 1069q0 63 41 86q96 51 137 -96q6 -23 19.5 -67t17.5 -64q0 -4 4 -25.5t7 -33t10 -26t18 -18.5q8 -2 15 -3t13 6.5t9 13.5t7.5 17t6.5 19.5t4 17.5t4 13q23 57 45 158q16 84 47 94q31 12 96 -20q43 -18 25 -92q-27 -121 -33 -142q-4 -18 -17.5 -51t-17.5 -43 q-45 -168 -49 -186l-4 -15q-14 -68 -31.5 -133t-29.5 -112q-4 -14 -14.5 -64.5t-17.5 -76t-19.5 -66.5t-28 -73t-33.5 -56q-37 -49 -102 -56q-33 -2 -53.5 14.5t-20.5 47.5q0 33 28.5 100.5t45.5 155.5q14 90 14 156q0 63 -12 124q-45 180 -99 349q-32 98 -32 147z M68 1297.5q2 27.5 12 48.5q16 31 41 38q29 10 59 0q31 -12 43 -43q18 -49 -4 -88q-31 -43 -72 -41q-53 0 -67 33l-4 8q-10 17 -8 44.5zM321.5 1309.5q2.5 27.5 12.5 48.5q16 31 41 39q29 10 59 0q31 -12 43 -43q18 -49 -4 -88q-31 -43 -72 -41q-53 0 -67 32l-4 9 q-11 16 -8.5 43.5z" />
<glyph unicode="&#x2c6;" horiz-adv-x="593" d="M70 1087q0 20 14 46t34.5 56t26.5 44q6 12 19.5 44t26 54.5t28.5 40.5q27 27 73 43.5t77 -2.5q25 -18 41 -47t34.5 -76t30.5 -71q6 -10 20.5 -32t23.5 -39.5t17.5 -37.5t7.5 -39.5t-14 -36.5q-25 -29 -63 -28q-41 0 -66 32q-14 18 -27.5 66.5t-25.5 66.5q-37 57 -84 -34 q-8 -14 -20 -43q-39 -80 -58 -86q-37 -12 -76.5 14t-39.5 65z" />
<glyph unicode="&#x2dc;" horiz-adv-x="845" d="M82 1221q-2 45 59 106q102 111 183 111q35 0 59 -23q6 -6 27.5 -25.5t37 -31.5t31.5 -21q61 -25 123 11q12 6 39 32.5t45 32.5q31 10 52.5 -10.5t27.5 -50.5q16 -61 -35 -106.5t-123 -69.5q-78 -25 -137 -13q-59 10 -96 58q-45 55 -90 34q-20 -8 -49 -39.5t-46 -41.5 q-31 -20 -68.5 -7t-39.5 54z" />
<glyph unicode="&#x2000;" horiz-adv-x="813" />
<glyph unicode="&#x2001;" horiz-adv-x="1628" />
<glyph unicode="&#x2002;" horiz-adv-x="813" />
<glyph unicode="&#x2003;" horiz-adv-x="1628" />
<glyph unicode="&#x2004;" horiz-adv-x="542" />
<glyph unicode="&#x2005;" horiz-adv-x="405" />
<glyph unicode="&#x2006;" horiz-adv-x="270" />
<glyph unicode="&#x2007;" horiz-adv-x="270" />
<glyph unicode="&#x2008;" horiz-adv-x="202" />
<glyph unicode="&#x2009;" horiz-adv-x="325" />
<glyph unicode="&#x200a;" horiz-adv-x="90" />
<glyph unicode="&#x2010;" d="M66 510q0 61 49 68l69 10q76 2 189.5 20.5t161.5 22.5q111 12 112 -72q6 -76 -82 -94q-45 -12 -95 -18.5t-120.5 -11.5t-97.5 -7q-8 0 -48 -7t-61 -7q-41 0 -59 20q-18 19 -18 76z" />
<glyph unicode="&#x2011;" d="M66 510q0 61 49 68l69 10q76 2 189.5 20.5t161.5 22.5q111 12 112 -72q6 -76 -82 -94q-45 -12 -95 -18.5t-120.5 -11.5t-97.5 -7q-8 0 -48 -7t-61 -7q-41 0 -59 20q-18 19 -18 76z" />
<glyph unicode="&#x2012;" d="M66 510q0 61 49 68l69 10q76 2 189.5 20.5t161.5 22.5q111 12 112 -72q6 -76 -82 -94q-45 -12 -95 -18.5t-120.5 -11.5t-97.5 -7q-8 0 -48 -7t-61 -7q-41 0 -59 20q-18 19 -18 76z" />
<glyph unicode="&#x2013;" horiz-adv-x="733" d="M66 547q0 61 49 67l69 11q76 2 189.5 20.5t161.5 22.5q111 12 112 -72q6 -76 -82 -94q-45 -12 -95 -18.5t-120.5 -11.5t-97.5 -7q-8 0 -48 -7t-61 -7q-41 0 -59 20q-18 19 -18 76z" />
<glyph unicode="&#x2014;" horiz-adv-x="890" d="M74 526q0 74 55 74l70 6q78 -4 278.5 9.5t239.5 13.5q47 2 78.5 -16.5t29.5 -63.5q-2 -78 -90 -88q-47 -8 -138 -12.5t-203.5 -6.5t-139.5 -2q-10 0 -42 -3t-50 -3q-55 0 -74 27q-14 18 -14 65z" />
<glyph unicode="&#x2018;" horiz-adv-x="405" d="M74 1066q2 24 16 38q27 27 84 26q53 0 62 -45l14 -69q6 -76 34.5 -186.5t37.5 -157.5q20 -109 -64 -121q-70 -8 -100 76q-14 45 -24.5 94t-22 119.5t-15.5 95.5q-2 10 -9 39t-11 48t-2 43z" />
<glyph unicode="&#x2019;" horiz-adv-x="385" d="M63 633l15 69q27 72 46 187t32 158q25 106 106 81q70 -20 62 -110q-4 -47 -15.5 -96.5t-32 -117t-26.5 -93.5q-2 -8 -6 -38t-9.5 -49.5t-16.5 -40t-30 -26.5q-29 -10 -83 9.5t-42 66.5z" />
<glyph unicode="&#x201c;" horiz-adv-x="655" d="M74 1066q2 24 16 38q27 27 84 26q53 0 62 -45l14 -69q6 -76 34.5 -186.5t37.5 -157.5q20 -109 -64 -121q-70 -8 -100 76q-14 45 -24.5 94t-22 119.5t-15.5 95.5q-2 10 -9 39t-11 48t-2 43zM334 1067q-23 109 63 119q70 8 101 -76q14 -45 24 -93t21.5 -120t15.5 -96 q2 -10 9 -39t11.5 -48.5t2.5 -43t-17 -35.5q-6 -8 -33.5 -18.5t-52.5 -10.5q-51 0 -59 45l-14 70q-6 76 -35 186.5t-37 159.5z" />
<glyph unicode="&#x201d;" horiz-adv-x="688" d="M90 719q4 37 12.5 80t16.5 72.5t22.5 81t20.5 73.5q2 10 7 39t10 49.5t16.5 41t29.5 26.5q29 10 83 -10.5t42 -67.5l-14 -70q-27 -72 -47.5 -186.5t-30.5 -157.5q-27 -106 -108 -82q-68 23 -60 111zM340 633l14 69q27 72 46.5 187t31.5 158q25 106 107 81q70 -20 61 -110 q-4 -47 -15.5 -96.5t-32 -117t-26.5 -93.5q-2 -8 -6 -38t-9 -49.5t-16.5 -40t-29.5 -26.5q-29 -10 -83 9.5t-42 66.5z" />
<glyph unicode="&#x2022;" horiz-adv-x="610" d="M78 586q12 49 53 86t92 49t101 12q66 0 112 -26q55 -31 80 -82q14 -33 14 -74l-6 -31q-2 -8 -18.5 -24.5t-18.5 -22.5q-61 -92 -186 -92q-84 0 -149 45q-33 20 -57.5 70.5t-16.5 89.5z" />
<glyph unicode="&#x2026;" horiz-adv-x="839" d="M92 76.5q2 27.5 12 48.5q16 29 41 39q29 10 60 0q31 -12 43 -43q18 -49 -4 -88q-31 -43 -72 -41q-49 0 -68 33l-4 8q-10 16 -8 43.5zM340 34q-14 44 2 77q14 31 48 50t65 -3l8 -4l6 -7q6 -8 12 -17t6 -13q14 -33 7 -58q-8 -31 -37 -52t-60 -19q-43 2 -57 46zM596 76.5 q2 27.5 12 48.5q16 31 41 39q29 10 60 0q31 -12 43 -43q18 -49 -4 -88q-31 -43 -72 -41q-53 0 -68 33l-4 8q-10 16 -8 43.5z" />
<glyph unicode="&#x202f;" horiz-adv-x="325" />
<glyph unicode="&#x2039;" horiz-adv-x="704" d="M49 532q0 37 60 89q47 43 122 165q6 10 54.5 79t72.5 108q8 12 37 68.5t49 78.5q33 35 83.5 53.5t82.5 -6.5q27 -33 13.5 -80t-48.5 -81q-23 -23 -57.5 -72t-50.5 -70l-23 -35q-16 -29 -67 -88q-4 -6 -21 -26l-24 -31q-8 -10 -19.5 -28.5t-17.5 -35t-8 -32.5 q-4 -33 5 -60.5t21.5 -44t38.5 -45.5q16 -20 48 -68t53 -71q66 -66 135 -152q33 -43 33 -77q0 -39 -39 -66q-74 -51 -140 43q-23 33 -241 318q-18 25 -64.5 59.5t-62.5 54.5q-25 30 -25 53z" />
<glyph unicode="&#x203a;" horiz-adv-x="735" d="M105.5 79q13.5 46 46.5 83q23 23 57.5 72t52.5 69l23 35q8 10 67 88q2 4 14.5 18.5t17.5 20.5t15.5 20.5t15.5 22.5t11 21.5t9 24.5t5 24q4 33 -5 61.5t-19 41.5t-39 46q-18 20 -50 69.5t-53 69.5q-94 102 -135 154q-33 39 -33 74q0 39 41 67q70 53 138 -43 q45 -63 132 -173.5t111 -143.5q18 -25 64.5 -59.5t62.5 -55.5q18 -20 22.5 -39.5t-4.5 -38t-21.5 -32t-33.5 -31.5q-31 -27 -122 -164q-20 -33 -62.5 -94.5t-62.5 -91.5q-6 -10 -36 -67.5t-52 -82.5q-33 -35 -82 -52.5t-84 5.5q-25 35 -11.5 81z" />
<glyph unicode="&#x205f;" horiz-adv-x="405" />
<glyph unicode="&#x20ac;" horiz-adv-x="983" d="M33 383q-37 92 76 109q27 4 49 -0.5t39.5 9t21.5 48.5q2 25 -1 39t-12 18t-18.5 4t-27 -1t-27.5 -1q-45 2 -75.5 26.5t-16.5 74.5q10 33 31.5 44t58.5 13t53 6q61 16 81 59t26 108t26 101q86 147 273 179q100 14 123 14q86 0 153 -66l17 -26q37 -78 45 -109 q10 -37 10 -74q0 -57 -33 -84q-35 -27 -59 -26q-29 0 -48.5 31.5t-37 78t-33.5 64.5q-25 31 -76 31q-94 0 -168 -84q-92 -106 -32 -160q16 -16 45.5 -18.5t50 -13.5t24.5 -48q8 -47 -21.5 -72.5t-76.5 -25.5q-49 -2 -71.5 -40t18.5 -61q33 -14 59.5 -8t49 -6t30.5 -55 q6 -33 -3 -52.5t-18.5 -24.5t-41 -10t-39.5 -7q-31 -12 -32 -47t27.5 -79t65.5 -59q49 -20 96 -20q94 0 172 78q45 41 86 41t64 -37q37 -55 -41 -133q-78 -74 -141.5 -107t-143.5 -22q-90 14 -137 33.5t-119 72.5q-35 27 -61.5 91.5t-51 113.5t-61.5 51q-18 2 -50 -6t-42 -8 q-35 0 -55 53z" />
<glyph unicode="&#x2122;" horiz-adv-x="1071" d="M63 1178q6 8 21.5 13t40.5 8t27 3q31 4 89 7t70 3q2 0 37 6.5t51 2.5q37 -8 37 -60q0 -27 -8 -37t-33 -14q-57 -4 -76 -25q-16 -16 -22 -84q-4 -94 -4 -137q0 -53 5 -157.5t5 -155.5q0 -135 -74 -111q-31 8 -39 52q-4 18 -4 94q2 49 2 145q2 12 1 33.5t-1 32.5v59v21v81 q6 37 2 86q-2 41 -51 35q-51 -10 -69 17q-32 55 -7 82zM485 524q0 16 2 45t2 37q2 23 3 66v114q4 115 4 148v31v44v44q0 4 2 38.5t4 53.5q4 35 31.5 57.5t58.5 3.5q14 -10 37 -73q6 -16 14 -50l12 -51q6 -20 18.5 -55t16.5 -51q6 -29 19 -58l18 -24q8 -2 15.5 -3t14.5 9 t12 18.5t10 22.5t8.5 23.5t7.5 20.5t4 13q10 37 31.5 103.5t25.5 83.5q16 57 31 69q12 10 35.5 10t35.5 -8q16 -12 21 -67q0 -23 1 -68t1 -67q0 -27 -1 -80.5t-1 -79.5q-10 -115 -8 -146q2 -20 3 -41.5t2 -48t1 -41.5q0 -8 1 -24.5t1 -24.5q-4 -14 -4 -41q-6 -16 -23 -20 q-16 -10 -32 -11q-43 -4 -56 31q-4 6 -4 43v43q-2 18 -4 55t-4 56q0 43 -8 49q-4 2 -9.5 -3t-11.5 -15l-8 -13q-16 -25 -24 -69q-2 -6 -4.5 -19.5t-4.5 -21t-6 -16.5t-12 -15q-33 -27 -64 0q-10 10 -34 76q-6 12 -17.5 45t-19.5 49q-14 27 -23 -21q-2 -4 -2 -10q-2 -6 -2 -8 q-2 -18 -3 -53t-3 -51q0 -8 -1 -31t-2 -34t-6 -27.5t-16.5 -24.5t-29.5 -12q-33 -6 -44.5 15t-11.5 60z" />
<glyph unicode="&#xe000;" horiz-adv-x="765" d="M0 765h765v-765h-765v765z" />
<glyph unicode="&#xfb01;" horiz-adv-x="792" d="M576 520q0 12 -1 23q0 81 27 119q27 36 53 35q22 0 44 -25q29 -34 28 -89q0 -15 -2 -32q-8 -57 -8 -129q0 -39 3 -117t3 -117v-6q0 -16 8.5 -51t7 -62.5t-19.5 -45.5q-19 -18 -47 -18q-11 0 -23 2q-43 9 -57 44q-10 18 -10 62q0 37 4 73q1 5 0 19q0 40 -4 155zM586 829 q-8 24 -8 45q0 25 12 44q29 43 72 43q49 0 67 -33l4 -8q9 -14 9 -36q0 -34 -13 -57q-16 -31 -41 -39q-14 -5 -29 -5t-30 5q-31 12 -43 41zM43 498q0 43 18 61q10 10 30 18.5t26 12.5q16 14 26 33q1 19 1 39q0 40 -3 81q-4 29 -3 57q0 99 44 195q39 78 103 101q8 4 14 4 q46 13 76 13q25 0 39 -9q18 -8 38 -39q18 -28 17 -49q0 -36 -25 -43q-20 -8 -26 -8q-55 0 -84 -39q-4 -6 -8 -19q-33 -88 -33 -172q0 -20 4 -86q2 -45 84 -45q57 -2 63 -63q2 -15 3 -28q0 -54 -41 -71q-4 -2 -44 -8t-57 -20q4 -156 10 -209q10 -78 11 -105q0 -74 -35 -114 q-16 -20 -46 -30q-14 -4 -27 -4q-14 0 -28 5q-41 20 -45 88q-1 11 0 25q0 36 3 95q5 83 6 114l-2 14q4 10 2 29l-4 24q0 23 -2.5 35t-15.5 25.5t-40 17.5q-41 6 -47 33q-2 10 -2 41z" />
<glyph unicode="&#xfb02;" horiz-adv-x="804" d="M561 823q0 121 25 196q19 59 62 59q12 0 26 -5q57 -20 57 -266q0 -37 -1 -82t-2 -74.5t-1 -42.5l-2 -8q8 -68 11.5 -150.5t4.5 -182t3 -152.5q1 -10 0 -20q0 -54 -20 -87q-14 -23 -40 -23q-18 0 -41 11q-33 14 -48 47q-14 31 -14 63q0 12 0.5 38t0.5 40q2 31 2 92 q0 45 -17 390q-6 85 -6 157zM43 498q0 43 18 61q10 10 30 18.5t26 12.5q16 14 26 33q1 19 1 39q0 40 -3 81q-4 29 -3 57q0 99 44 195q39 78 103 101q8 4 14 4q46 13 76 13q25 0 39 -9q18 -8 38 -39q18 -28 17 -49q0 -36 -25 -43q-20 -8 -26 -8q-55 0 -84 -39q-4 -6 -8 -19 q-33 -88 -33 -172q0 -20 4 -86q2 -45 84 -45q57 -2 63 -63q2 -15 3 -28q0 -54 -41 -71q-4 -2 -44 -8t-57 -20q4 -156 10 -209q10 -78 11 -105q0 -74 -35 -114q-16 -20 -46 -30q-14 -4 -27 -4q-14 0 -28 5q-41 20 -45 88q-1 11 0 25q0 36 3 95q5 83 6 114l-2 14q4 10 2 29 l-4 24q0 23 -2.5 35t-15.5 25.5t-40 17.5q-41 6 -47 33q-2 10 -2 41z" />
<glyph unicode="&#xfb03;" horiz-adv-x="1296" d="M1080 520q0 12 -1 23q0 81 27 119q27 36 53 35q22 0 44 -25q29 -34 28 -89q0 -15 -2 -32q-8 -57 -8 -129q0 -39 3 -117t3 -117v-6q0 -16 8.5 -51t7 -62.5t-19.5 -45.5q-19 -18 -47 -18q-11 0 -23 2q-43 9 -57 44q-10 18 -10 62q0 37 4 73q1 5 0 19q0 40 -4 155zM1090 829 q-8 24 -8 45q0 25 12 44q29 43 72 43q49 0 67 -33l4 -8q9 -14 9 -36q0 -34 -13 -57q-16 -31 -41 -39q-14 -5 -29 -5t-30 5q-31 12 -43 41zM547 498q0 43 18 61q10 10 30 18.5t26 12.5q16 14 26 33q1 19 1 39q0 40 -3 81q-4 29 -3 57q0 99 44 195q39 78 103 101q8 4 14 4 q46 13 76 13q25 0 39 -9q18 -8 38 -39q18 -28 17 -49q0 -36 -25 -43q-20 -8 -26 -8q-55 0 -84 -39q-4 -6 -8 -19q-33 -88 -33 -172q0 -20 4 -86q2 -45 84 -45q57 -2 63 -63q2 -15 3 -28q0 -54 -41 -71q-4 -2 -44 -8t-57 -20q4 -156 10 -209q10 -78 11 -105q0 -74 -35 -114 q-16 -20 -46 -30q-14 -4 -27 -4q-14 0 -28 5q-41 20 -45 88q-1 11 0 25q0 36 3 95q5 83 6 114l-2 14q4 10 2 29l-4 24q0 23 -2.5 35t-15.5 25.5t-40 17.5q-41 6 -47 33q-2 10 -2 41zM43 498q0 43 18 61q10 10 30 18.5t26 12.5q16 14 26 33q1 19 1 39q0 40 -3 81q-4 29 -3 57 q0 99 44 195q39 78 103 101q8 4 14 4q46 13 76 13q25 0 39 -9q18 -8 38 -39q18 -28 17 -49q0 -36 -25 -43q-20 -8 -26 -8q-55 0 -84 -39q-4 -6 -8 -19q-33 -88 -33 -172q0 -20 4 -86q2 -45 84 -45q57 -2 63 -63q2 -15 3 -28q0 -54 -41 -71q-4 -2 -44 -8t-57 -20 q4 -156 10 -209q10 -78 11 -105q0 -74 -35 -114q-16 -20 -46 -30q-14 -4 -27 -4q-14 0 -28 5q-41 20 -45 88q-1 11 0 25q0 36 3 95q5 83 6 114l-2 14q4 10 2 29l-4 24q0 23 -2.5 35t-15.5 25.5t-40 17.5q-41 6 -47 33q-2 10 -2 41z" />
<glyph unicode="&#xfb04;" horiz-adv-x="1308" d="M1065 823q0 121 25 196q19 59 62 59q12 0 26 -5q57 -20 57 -266q0 -37 -1 -82t-2 -74.5t-1 -42.5l-2 -8q8 -68 11.5 -150.5t4.5 -182t3 -152.5q1 -10 0 -20q0 -54 -20 -87q-14 -23 -40 -23q-18 0 -41 11q-33 14 -48 47q-14 31 -14 63q0 12 0.5 38t0.5 40q2 31 2 92 q0 45 -17 390q-6 85 -6 157zM547 498q0 43 18 61q10 10 30 18.5t26 12.5q16 14 26 33q1 19 1 39q0 40 -3 81q-4 29 -3 57q0 99 44 195q39 78 103 101q8 4 14 4q46 13 76 13q25 0 39 -9q18 -8 38 -39q18 -28 17 -49q0 -36 -25 -43q-20 -8 -26 -8q-55 0 -84 -39q-4 -6 -8 -19 q-33 -88 -33 -172q0 -20 4 -86q2 -45 84 -45q57 -2 63 -63q2 -15 3 -28q0 -54 -41 -71q-4 -2 -44 -8t-57 -20q4 -156 10 -209q10 -78 11 -105q0 -74 -35 -114q-16 -20 -46 -30q-14 -4 -27 -4q-14 0 -28 5q-41 20 -45 88q-1 11 0 25q0 36 3 95q5 83 6 114l-2 14q4 10 2 29 l-4 24q0 23 -2.5 35t-15.5 25.5t-40 17.5q-41 6 -47 33q-2 10 -2 41zM43 498q0 43 18 61q10 10 30 18.5t26 12.5q16 14 26 33q1 19 1 39q0 40 -3 81q-4 29 -3 57q0 99 44 195q39 78 103 101q8 4 14 4q46 13 76 13q25 0 39 -9q18 -8 38 -39q18 -28 17 -49q0 -36 -25 -43 q-20 -8 -26 -8q-55 0 -84 -39q-4 -6 -8 -19q-33 -88 -33 -172q0 -20 4 -86q2 -45 84 -45q57 -2 63 -63q2 -15 3 -28q0 -54 -41 -71q-4 -2 -44 -8t-57 -20q4 -156 10 -209q10 -78 11 -105q0 -74 -35 -114q-16 -20 -46 -30q-14 -4 -27 -4q-14 0 -28 5q-41 20 -45 88 q-1 11 0 25q0 36 3 95q5 83 6 114l-2 14q4 10 2 29l-4 24q0 23 -2.5 35t-15.5 25.5t-40 17.5q-41 6 -47 33q-2 10 -2 41z" />
</font>
</defs>
</svg>
